<?xml version="1.0" encoding="us-ascii" standalone="no"?><svg xmlns="http://www.w3.org/2000/svg" xmlns:xlink="http://www.w3.org/1999/xlink" contentStyleType="text/css" height="661px" preserveAspectRatio="none" style="width:598px;height:661px;background:#FFFFFF;" version="1.1" viewBox="0 0 598 661" width="598px" zoomAndPan="magnify"><defs/><g><rect fill="#FFFFFF" height="477.9219" style="stroke:#181818;stroke-width:1.0;" width="10" x="17.5" y="92.6094"/><rect fill="#FFFFFF" height="446.5703" style="stroke:#181818;stroke-width:1.0;" width="10" x="185.5" y="114.9609"/><rect fill="#FFFFFF" height="30.3516" style="stroke:#181818;stroke-width:1.0;" width="10" x="428.5" y="232.0156"/><rect fill="#FFFFFF" height="30.3516" style="stroke:#181818;stroke-width:1.0;" width="10" x="536" y="292.7188"/><rect fill="#FFFFFF" height="30.3516" style="stroke:#181818;stroke-width:1.0;" width="10" x="536" y="353.4219"/><rect fill="#FFFFFF" height="30.3516" style="stroke:#181818;stroke-width:1.0;" width="10" x="536" y="457.4766"/><line style="stroke:#181818;stroke-width:0.5;stroke-dasharray:5.0,5.0;" x1="22" x2="22" y1="82.6094" y2="579.5313"/><line style="stroke:#181818;stroke-width:0.5;stroke-dasharray:5.0,5.0;" x1="190" x2="190" y1="82.6094" y2="579.5313"/><line style="stroke:#181818;stroke-width:0.5;stroke-dasharray:5.0,5.0;" x1="433" x2="433" y1="82.6094" y2="579.5313"/><line style="stroke:#181818;stroke-width:0.5;stroke-dasharray:5.0,5.0;" x1="541" x2="541" y1="82.6094" y2="579.5313"/><text fill="#000000" font-family="sans-serif" font-size="14" lengthAdjust="spacing" textLength="29" x="5" y="79.5332">User</text><ellipse cx="22.5" cy="13.5" fill="#E2E2F0" rx="8" ry="8" style="stroke:#181818;stroke-width:0.5;"/><path d="M22.5,21.5 L22.5,48.5 M9.5,29.5 L35.5,29.5 M22.5,48.5 L9.5,63.5 M22.5,48.5 L35.5,63.5 " fill="none" style="stroke:#181818;stroke-width:0.5;"/><text fill="#000000" font-family="sans-serif" font-size="14" lengthAdjust="spacing" textLength="29" x="5" y="593.0645">User</text><ellipse cx="22.5" cy="604.6406" fill="#E2E2F0" rx="8" ry="8" style="stroke:#181818;stroke-width:0.5;"/><path d="M22.5,612.6406 L22.5,639.6406 M9.5,620.6406 L35.5,620.6406 M22.5,639.6406 L9.5,654.6406 M22.5,639.6406 L35.5,654.6406 " fill="none" style="stroke:#181818;stroke-width:0.5;"/><rect fill="#E2E2F0" height="31.6094" rx="2.5" ry="2.5" style="stroke:#181818;stroke-width:0.5;" width="103" x="139" y="50"/><text fill="#000000" font-family="sans-serif" font-size="14" lengthAdjust="spacing" textLength="89" x="146" y="71.5332">BiometricGate</text><rect fill="#E2E2F0" height="31.6094" rx="2.5" ry="2.5" style="stroke:#181818;stroke-width:0.5;" width="103" x="139" y="578.5313"/><text fill="#000000" font-family="sans-serif" font-size="14" lengthAdjust="spacing" textLength="89" x="146" y="600.0645">BiometricGate</text><rect fill="#E2E2F0" height="31.6094" rx="2.5" ry="2.5" style="stroke:#181818;stroke-width:0.5;" width="93" x="387" y="50"/><text fill="#000000" font-family="sans-serif" font-size="14" lengthAdjust="spacing" textLength="79" x="394" y="71.5332">SecureStore</text><rect fill="#E2E2F0" height="31.6094" rx="2.5" ry="2.5" style="stroke:#181818;stroke-width:0.5;" width="93" x="387" y="578.5313"/><text fill="#000000" font-family="sans-serif" font-size="14" lengthAdjust="spacing" textLength="79" x="394" y="600.0645">SecureStore</text><rect fill="#E2E2F0" height="31.6094" rx="2.5" ry="2.5" style="stroke:#181818;stroke-width:0.5;" width="102" x="490" y="50"/><text fill="#000000" font-family="sans-serif" font-size="14" lengthAdjust="spacing" textLength="88" x="497" y="71.5332">LocalAuth API</text><rect fill="#E2E2F0" height="31.6094" rx="2.5" ry="2.5" style="stroke:#181818;stroke-width:0.5;" width="102" x="490" y="578.5313"/><text fill="#000000" font-family="sans-serif" font-size="14" lengthAdjust="spacing" textLength="88" x="497" y="600.0645">LocalAuth API</text><rect fill="#FFFFFF" height="477.9219" style="stroke:#181818;stroke-width:1.0;" width="10" x="17.5" y="92.6094"/><rect fill="#FFFFFF" height="446.5703" style="stroke:#181818;stroke-width:1.0;" width="10" x="185.5" y="114.9609"/><rect fill="#FFFFFF" height="30.3516" style="stroke:#181818;stroke-width:1.0;" width="10" x="428.5" y="232.0156"/><rect fill="#FFFFFF" height="30.3516" style="stroke:#181818;stroke-width:1.0;" width="10" x="536" y="292.7188"/><rect fill="#FFFFFF" height="30.3516" style="stroke:#181818;stroke-width:1.0;" width="10" x="536" y="353.4219"/><rect fill="#FFFFFF" height="30.3516" style="stroke:#181818;stroke-width:1.0;" width="10" x="536" y="457.4766"/><polygon fill="#181818" points="173.5,110.9609,183.5,114.9609,173.5,118.9609,177.5,114.9609" style="stroke:#181818;stroke-width:1.0;"/><line style="stroke:#181818;stroke-width:1.0;" x1="27.5" x2="179.5" y1="114.9609" y2="114.9609"/><text fill="#000000" font-family="sans-serif" font-size="13" font-weight="bold" lengthAdjust="spacing" textLength="7" x="34.5" y="110.1045">1</text><text fill="#000000" font-family="sans-serif" font-size="13" lengthAdjust="spacing" textLength="104" x="45.5" y="110.1045">launch application</text><line style="stroke:#181818;stroke-width:1.0;" x1="195.5" x2="237.5" y1="145.3125" y2="145.3125"/><line style="stroke:#181818;stroke-width:1.0;" x1="237.5" x2="237.5" y1="145.3125" y2="158.3125"/><line style="stroke:#181818;stroke-width:1.0;" x1="196.5" x2="237.5" y1="158.3125" y2="158.3125"/><polygon fill="#181818" points="206.5,154.3125,196.5,158.3125,206.5,162.3125,202.5,158.3125" style="stroke:#181818;stroke-width:1.0;"/><text fill="#000000" font-family="sans-serif" font-size="13" font-weight="bold" lengthAdjust="spacing" textLength="7" x="202.5" y="140.4561">2</text><text fill="#000000" font-family="sans-serif" font-size="13" lengthAdjust="spacing" textLength="157" x="213.5" y="140.4561">mount (initial state: locked)</text><line style="stroke:#181818;stroke-width:1.0;" x1="195.5" x2="237.5" y1="188.6641" y2="188.6641"/><line style="stroke:#181818;stroke-width:1.0;" x1="237.5" x2="237.5" y1="188.6641" y2="201.6641"/><line style="stroke:#181818;stroke-width:1.0;" x1="196.5" x2="237.5" y1="201.6641" y2="201.6641"/><polygon fill="#181818" points="206.5,197.6641,196.5,201.6641,206.5,205.6641,202.5,201.6641" style="stroke:#181818;stroke-width:1.0;"/><text fill="#000000" font-family="sans-serif" font-size="13" font-weight="bold" lengthAdjust="spacing" textLength="7" x="202.5" y="183.8076">3</text><text fill="#000000" font-family="sans-serif" font-size="13" lengthAdjust="spacing" textLength="146" x="213.5" y="183.8076">checkBiometricSettings()</text><polygon fill="#181818" points="416.5,228.0156,426.5,232.0156,416.5,236.0156,420.5,232.0156" style="stroke:#181818;stroke-width:1.0;"/><line style="stroke:#181818;stroke-width:1.0;" x1="195.5" x2="422.5" y1="232.0156" y2="232.0156"/><text fill="#000000" font-family="sans-serif" font-size="13" font-weight="bold" lengthAdjust="spacing" textLength="7" x="202.5" y="227.1592">4</text><text fill="#000000" font-family="sans-serif" font-size="13" lengthAdjust="spacing" textLength="203" x="213.5" y="227.1592">getItemAsync("biometric_enabled")</text><polygon fill="#181818" points="206.5,258.3672,196.5,262.3672,206.5,266.3672,202.5,262.3672" style="stroke:#181818;stroke-width:1.0;"/><line style="stroke:#181818;stroke-width:1.0;stroke-dasharray:2.0,2.0;" x1="200.5" x2="432.5" y1="262.3672" y2="262.3672"/><text fill="#000000" font-family="sans-serif" font-size="13" font-weight="bold" lengthAdjust="spacing" textLength="7" x="212.5" y="257.5107">5</text><text fill="#000000" font-family="sans-serif" font-size="13" lengthAdjust="spacing" textLength="22" x="223.5" y="257.5107">true</text><polygon fill="#181818" points="524,288.7188,534,292.7188,524,296.7188,528,292.7188" style="stroke:#181818;stroke-width:1.0;"/><line style="stroke:#181818;stroke-width:1.0;" x1="195.5" x2="530" y1="292.7188" y2="292.7188"/><text fill="#000000" font-family="sans-serif" font-size="13" font-weight="bold" lengthAdjust="spacing" textLength="7" x="202.5" y="287.8623">6</text><text fill="#000000" font-family="sans-serif" font-size="13" lengthAdjust="spacing" textLength="120" x="213.5" y="287.8623">hasHardwareAsync()</text><polygon fill="#181818" points="206.5,319.0703,196.5,323.0703,206.5,327.0703,202.5,323.0703" style="stroke:#181818;stroke-width:1.0;"/><line style="stroke:#181818;stroke-width:1.0;stroke-dasharray:2.0,2.0;" x1="200.5" x2="540" y1="323.0703" y2="323.0703"/><text fill="#000000" font-family="sans-serif" font-size="13" font-weight="bold" lengthAdjust="spacing" textLength="7" x="212.5" y="318.2139">7</text><text fill="#000000" font-family="sans-serif" font-size="13" lengthAdjust="spacing" textLength="22" x="223.5" y="318.2139">true</text><polygon fill="#181818" points="524,349.4219,534,353.4219,524,357.4219,528,353.4219" style="stroke:#181818;stroke-width:1.0;"/><line style="stroke:#181818;stroke-width:1.0;" x1="195.5" x2="530" y1="353.4219" y2="353.4219"/><text fill="#000000" font-family="sans-serif" font-size="13" font-weight="bold" lengthAdjust="spacing" textLength="7" x="202.5" y="348.5654">8</text><text fill="#000000" font-family="sans-serif" font-size="13" lengthAdjust="spacing" textLength="102" x="213.5" y="348.5654">isEnrolledAsync()</text><polygon fill="#181818" points="206.5,379.7734,196.5,383.7734,206.5,387.7734,202.5,383.7734" style="stroke:#181818;stroke-width:1.0;"/><line style="stroke:#181818;stroke-width:1.0;stroke-dasharray:2.0,2.0;" x1="200.5" x2="540" y1="383.7734" y2="383.7734"/><text fill="#000000" font-family="sans-serif" font-size="13" font-weight="bold" lengthAdjust="spacing" textLength="7" x="212.5" y="378.917">9</text><text fill="#000000" font-family="sans-serif" font-size="13" lengthAdjust="spacing" textLength="22" x="223.5" y="378.917">true</text><line style="stroke:#181818;stroke-width:1.0;" x1="195.5" x2="237.5" y1="414.125" y2="414.125"/><line style="stroke:#181818;stroke-width:1.0;" x1="237.5" x2="237.5" y1="414.125" y2="427.125"/><line style="stroke:#181818;stroke-width:1.0;" x1="196.5" x2="237.5" y1="427.125" y2="427.125"/><polygon fill="#181818" points="206.5,423.125,196.5,427.125,206.5,431.125,202.5,427.125" style="stroke:#181818;stroke-width:1.0;"/><text fill="#000000" font-family="sans-serif" font-size="13" font-weight="bold" lengthAdjust="spacing" textLength="14" x="202.5" y="409.2686">10</text><text fill="#000000" font-family="sans-serif" font-size="13" lengthAdjust="spacing" textLength="79" x="220.5" y="409.2686">authenticate()</text><polygon fill="#181818" points="524,453.4766,534,457.4766,524,461.4766,528,457.4766" style="stroke:#181818;stroke-width:1.0;"/><line style="stroke:#181818;stroke-width:1.0;" x1="195.5" x2="530" y1="457.4766" y2="457.4766"/><text fill="#000000" font-family="sans-serif" font-size="13" font-weight="bold" lengthAdjust="spacing" textLength="14" x="202.5" y="452.6201">11</text><text fill="#000000" font-family="sans-serif" font-size="13" lengthAdjust="spacing" textLength="128" x="220.5" y="452.6201">authenticateAsync(...)</text><polygon fill="#181818" points="206.5,483.8281,196.5,487.8281,206.5,491.8281,202.5,487.8281" style="stroke:#181818;stroke-width:1.0;"/><line style="stroke:#181818;stroke-width:1.0;stroke-dasharray:2.0,2.0;" x1="200.5" x2="540" y1="487.8281" y2="487.8281"/><text fill="#000000" font-family="sans-serif" font-size="13" font-weight="bold" lengthAdjust="spacing" textLength="14" x="212.5" y="482.9717">12</text><text fill="#000000" font-family="sans-serif" font-size="13" lengthAdjust="spacing" textLength="95" x="230.5" y="482.9717">{ success: true }</text><line style="stroke:#181818;stroke-width:1.0;" x1="195.5" x2="237.5" y1="518.1797" y2="518.1797"/><line style="stroke:#181818;stroke-width:1.0;" x1="237.5" x2="237.5" y1="518.1797" y2="531.1797"/><line style="stroke:#181818;stroke-width:1.0;" x1="196.5" x2="237.5" y1="531.1797" y2="531.1797"/><polygon fill="#181818" points="206.5,527.1797,196.5,531.1797,206.5,535.1797,202.5,531.1797" style="stroke:#181818;stroke-width:1.0;"/><text fill="#000000" font-family="sans-serif" font-size="13" font-weight="bold" lengthAdjust="spacing" textLength="14" x="202.5" y="513.3232">13</text><text fill="#000000" font-family="sans-serif" font-size="13" lengthAdjust="spacing" textLength="111" x="220.5" y="513.3232">set state: unlocked</text><polygon fill="#181818" points="38.5,557.5313,28.5,561.5313,38.5,565.5313,34.5,561.5313" style="stroke:#181818;stroke-width:1.0;"/><line style="stroke:#181818;stroke-width:1.0;stroke-dasharray:2.0,2.0;" x1="32.5" x2="189.5" y1="561.5313" y2="561.5313"/><text fill="#000000" font-family="sans-serif" font-size="13" font-weight="bold" lengthAdjust="spacing" textLength="14" x="44.5" y="556.6748">14</text><text fill="#000000" font-family="sans-serif" font-size="13" lengthAdjust="spacing" textLength="116" x="62.5" y="556.6748">display main screen</text><!--SRC=[fP8zQyD038Pt_mhXAHcI7v2Xa49f0nqAeNDHP16Bs7VcJjSIIlzxxoE9dGpfqELEs8_ULn-7GQq9_OvTLI6fTL2_UtOre8SKL0Cw5P81ZKBzABPdTKBFg9oP55mpMwRWU1kb2f6ZQ-JL4dRhe2sitpOPYdVsby-eLupJ0Ok7x00hw30OQW67eHD25Mic2RcA38u9lGtHQoP6LB03h_5pbB5qu6P-2rFBTBXqjsLLCNi_crSNCBSHoJthHhbV-wEXMRqxftommLt7JJqVgogTbyJ5wAKkSDNm3NOnYgE8K8l-1LtpXOwBrKGt3IjHTpJpFAyLnJyPPxjOuxy5Jmp63RBHj0wUZghuJVyMn-LoUT_q6tmWOk-BF_pyLO5dFIyscBBQ4nAP_81Mq8WVEZn2ZsB0asEEBsUYc_XV]--></g></svg>