<?xml version="1.0" encoding="us-ascii" standalone="no"?><svg xmlns="http://www.w3.org/2000/svg" xmlns:xlink="http://www.w3.org/1999/xlink" contentStyleType="text/css" height="315px" preserveAspectRatio="none" style="width:385px;height:315px;background:#FFFFFF;" version="1.1" viewBox="0 0 385 315" width="385px" zoomAndPan="magnify"><defs/><g><!--cluster client--><g id="cluster_client"><polygon fill="none" points="16,16,26,6,355,6,355,106,345,116,16,116,16,16" style="stroke:#181818;stroke-width:1.0;"/><line style="stroke:#181818;stroke-width:1.0;" x1="345" x2="355" y1="16" y2="6"/><line style="stroke:#181818;stroke-width:1.0;" x1="16" x2="345" y1="16" y2="16"/><line style="stroke:#181818;stroke-width:1.0;" x1="345" x2="345" y1="16" y2="116"/><text fill="#000000" font-family="sans-serif" font-size="14" font-weight="bold" lengthAdjust="spacing" textLength="108" x="127.5" y="33.5332">Android Device</text></g><!--cluster External Services--><g id="cluster_External Services"><path d="M247.5384,148.2392 C250.0662,142.5058 254.644,141.0942 258.951,146.3999 C261.9857,141.3768 266.1329,141.776 269.0731,146.4981 C270.5859,140.3946 275.9918,140.8199 279.3601,144.5587 C281.5988,137.902 286.6188,137.6003 290.7734,142.6984 C293.0194,135.9018 296.3698,134.4136 302.2122,139.1231 C306.383,134.2966 311.5899,136.1141 313.048,141.8944 C317.6262,138.1456 321.8418,137.8003 324.0494,144.4117 C327.5983,139.542 331.9976,139.9708 335.1382,144.8749 C339.0067,141.6228 343.445,142.4378 345.0951,147.5239 C353.5504,140.7512 361.3548,145.463 363,155 C364.1012,154.1378 364.9943,154.8249 365.1479,155.9994 C371.59,159.0008 372.2454,163.7609 366.51,168.1297 C372.5499,171.3498 372.5515,174.7931 367.3932,178.929 C372.41,181.1819 374.0624,185.9532 369.2351,189.8642 C374.7376,192.4472 373.9575,195.7973 370.4778,199.5345 C376.2441,202.2273 377.4344,207.6476 372.0825,211.7956 C378.3872,214.3319 378.0442,218.606 373.9846,222.9152 C378.8171,226.4739 377.3154,231.6369 372.3713,233.7384 C376.4021,237.7456 375.906,241.3402 370.7359,243.861 C374.7314,248.7794 374.8811,252.7749 368.4058,255.6182 C373.8177,260.0061 372.3278,263.3212 367.099,266.4219 C372.4283,271.4819 372.6935,275.3288 365.5886,278.8814 C371.3405,288.1252 366.4558,295.3977 356,295 C356.9949,295.3119 357.3923,296.0119 356.5384,296.8592 C353.7871,302.4569 349.0302,302.8098 345.3974,297.7835 C343.2176,303.2172 339.7071,304.5838 335.1235,300.3338 C331.9814,305.9999 326.5607,305.6691 323.12,300.6699 C320.5795,306.3896 316.2889,306.9228 312.456,301.9601 C310.0091,307.4178 305.6636,308.059 301.3006,304.2722 C298.1684,308.3875 293.4582,308.0661 291.8932,302.7148 C288.1932,308.0462 283.1295,307.4874 280.8472,301.3495 C275.5718,306.3083 271.8765,305.6235 269.4969,298.6052 C265.4798,303.7168 261.2682,304.1942 257.5017,298.3312 C246.9108,305.5296 239.7076,298.5013 239,288 C240.1325,287.8561 240.6015,288.4501 240.3862,289.5286 C234.2935,287.0382 232.6679,282.7533 238.0376,277.9399 C232.0007,275.9726 232.0596,270.8606 236.1281,267.1113 C230.6154,264.2979 228.7412,259.3558 234.3311,254.9076 C230.0139,252.3479 230.0284,247.3056 234.3046,244.7236 C228.1777,243.1935 227.9702,238.5886 231.8843,234.6468 C226.7588,232.2696 224.4673,228.0793 229.7627,223.6851 C224.7265,218.9881 225.8937,213.9361 232.6361,212.181 C226.4548,206.8872 226.8594,202.9967 234.3687,199.5864 C229.8485,196.5967 230.4753,192.376 235.0957,190.0857 C229.2599,186.2562 230.6594,180.8468 235.9569,177.7976 C231.5667,173.8628 232.6159,169.4532 237.7537,167.122 C231.1373,157.7198 234.0349,149.389 246,148 C246.5133,147.3097 247.2542,147.4562 247.5384,148.2392 " fill="none" style="stroke:#181818;stroke-width:1.0;"/><text fill="#000000" font-family="sans-serif" font-size="14" font-weight="bold" lengthAdjust="spacing" textLength="124" x="239" y="167.5332">External Services</text></g><!--entity app--><g id="elem_app"><rect fill="#F1F1F1" height="37.6094" rx="2.5" ry="2.5" style="stroke:#181818;stroke-width:0.5;" width="86" x="32" y="62"/><text fill="#000000" font-family="sans-serif" font-size="14" lengthAdjust="spacing" textLength="66" x="42" y="86.5332">Tick it App</text></g><!--entity db--><g id="elem_db"><path d="M262,57.5 C262,47.5 300.5,47.5 300.5,47.5 C300.5,47.5 339,47.5 339,57.5 L339,84.1094 C339,94.1094 300.5,94.1094 300.5,94.1094 C300.5,94.1094 262,94.1094 262,84.1094 L262,57.5 " fill="#F1F1F1" style="stroke:#181818;stroke-width:0.5;"/><path d="M262,57.5 C262,67.5 300.5,67.5 300.5,67.5 C300.5,67.5 339,67.5 339,57.5 " fill="none" style="stroke:#181818;stroke-width:0.5;"/><text fill="#000000" font-family="sans-serif" font-size="14" lengthAdjust="spacing" textLength="57" x="272" y="86.0332">Local DB</text></g><!--entity todoist--><g id="elem_todoist"><rect fill="#F1F1F1" height="37.6094" rx="2.5" ry="2.5" style="stroke:#181818;stroke-width:0.5;" width="92" x="254.5" y="176"/><text fill="#000000" font-family="sans-serif" font-size="14" lengthAdjust="spacing" textLength="72" x="264.5" y="200.5332">Todoist API</text></g><!--entity weather--><g id="elem_weather"><rect fill="#F1F1F1" height="37.6094" rx="2.5" ry="2.5" style="stroke:#181818;stroke-width:0.5;" width="99" x="251" y="249"/><text fill="#000000" font-family="sans-serif" font-size="14" lengthAdjust="spacing" textLength="79" x="261" y="273.5332">Weather API</text></g><!--link app to db--><g id="link_app_db"><path d="M118.04,79.12 C159.39,77.27 215.946,74.7381 255.746,72.9581 " fill="none" id="app-to-db" style="stroke:#181818;stroke-width:1.0;stroke-dasharray:7.0,7.0;"/><polygon fill="#181818" points="261.74,72.69,252.5703,69.0961,256.745,72.9134,252.9277,77.0881,261.74,72.69" style="stroke:#181818;stroke-width:1.0;"/><text fill="#000000" font-family="sans-serif" font-size="13" lengthAdjust="spacing" textLength="65" x="149" y="71.4951">Read/Write</text></g><!--link app to todoist--><g id="link_app_todoist"><path d="M113.41,100.08 C154.67,121.12 215.3151,152.0638 256.6251,173.1338 " fill="none" id="app-to-todoist" style="stroke:#181818;stroke-width:1.0;"/><polygon fill="#181818" points="261.97,175.86,255.7701,168.2075,257.5159,173.5882,252.1352,175.334,261.97,175.86" style="stroke:#181818;stroke-width:1.0;"/><text fill="#000000" font-family="sans-serif" font-size="13" lengthAdjust="spacing" textLength="49" x="157" y="114.4951">HTTP(S)</text></g><!--link app to weather--><g id="link_app_weather"><path d="M87.68,100.27 C100.77,120.92 123.4,153.96 148,178 C177.2,206.52 187.84,210.27 223,231 C233.67,237.3 240.181,240.8226 251.361,246.2426 " fill="none" id="app-to-weather" style="stroke:#181818;stroke-width:1.0;"/><polygon fill="#181818" points="256.76,248.86,250.4064,241.3346,252.2608,246.6788,246.9166,248.5332,256.76,248.86" style="stroke:#181818;stroke-width:1.0;"/><text fill="#000000" font-family="sans-serif" font-size="13" lengthAdjust="spacing" textLength="49" x="157" y="174.4951">HTTP(S)</text></g><!--SRC=[ROwzQaCn38LtFuNmr0v9zmo1b1GQw11wBsHMR3KHSInZgpyXzDthwoItKAf189tlw2ZGcu8APDxj5JndSieIZIa7ZWap7i79CKcag9sU0i50ODm5CYQA9x2BwBEmXoLzi2CBMC05hZoS3TGQ_M1xTWTWXKLAZSEK6k9HSOkb7diHXm6MZqtsswQsLb6OJkTrDuDNGl-moQnalernGTuzsASlfHohkQCyF5BiF_dYXKlDNwzQW5xclzY6KFUKH-ppCWzXmnkJoVpcdC5ptw_lkljHkBA_mWy0]--></g></svg>