<?xml version="1.0" encoding="us-ascii" standalone="no"?><svg xmlns="http://www.w3.org/2000/svg" xmlns:xlink="http://www.w3.org/1999/xlink" contentStyleType="text/css" height="965px" preserveAspectRatio="none" style="width:1431px;height:965px;background:#FFFFFF;" version="1.1" viewBox="0 0 1431 965" width="1431px" zoomAndPan="magnify"><defs/><g><!--cluster src--><g id="cluster_src"><path d="M8.5,6 L31.5,6 A3.75,3.75 0 0 1 34,8.5 L41,29.6094 L1421.5,29.6094 A2.5,2.5 0 0 1 1424,32.1094 L1424,955.5 A2.5,2.5 0 0 1 1421.5,958 L8.5,958 A2.5,2.5 0 0 1 6,955.5 L6,8.5 A2.5,2.5 0 0 1 8.5,6 " fill="none" style="stroke:#000000;stroke-width:1.5;"/><line style="stroke:#000000;stroke-width:1.5;" x1="6" x2="41" y1="29.6094" y2="29.6094"/><text fill="#000000" font-family="sans-serif" font-size="14" font-weight="bold" lengthAdjust="spacing" textLength="22" x="10" y="22.5332">src</text></g><!--cluster App--><g id="cluster_App"><path d="M732.5,58 L759.5,58 A3.75,3.75 0 0 1 762,60.5 L769,81.6094 L1121.5,81.6094 A2.5,2.5 0 0 1 1124,84.1094 L1124,171.5 A2.5,2.5 0 0 1 1121.5,174 L732.5,174 A2.5,2.5 0 0 1 730,171.5 L730,60.5 A2.5,2.5 0 0 1 732.5,58 " fill="none" style="stroke:#000000;stroke-width:1.5;"/><line style="stroke:#000000;stroke-width:1.5;" x1="730" x2="769" y1="81.6094" y2="81.6094"/><text fill="#000000" font-family="sans-serif" font-size="14" font-weight="bold" lengthAdjust="spacing" textLength="26" x="734" y="74.5332">app</text></g><!--cluster Components--><g id="cluster_Components"><path d="M365.5,226 L453.5,226 A3.75,3.75 0 0 1 456,228.5 L463,249.6094 L560.5,249.6094 A2.5,2.5 0 0 1 563,252.1094 L563,339.5 A2.5,2.5 0 0 1 560.5,342 L365.5,342 A2.5,2.5 0 0 1 363,339.5 L363,228.5 A2.5,2.5 0 0 1 365.5,226 " fill="none" style="stroke:#000000;stroke-width:1.5;"/><line style="stroke:#000000;stroke-width:1.5;" x1="363" x2="463" y1="249.6094" y2="249.6094"/><text fill="#000000" font-family="sans-serif" font-size="14" font-weight="bold" lengthAdjust="spacing" textLength="87" x="367" y="242.5332">components</text></g><!--cluster Assets--><g id="cluster_Assets"><path d="M605.5,226 L652.5,226 A3.75,3.75 0 0 1 655,228.5 L662,249.6094 L826.5,249.6094 A2.5,2.5 0 0 1 829,252.1094 L829,339.5 A2.5,2.5 0 0 1 826.5,342 L605.5,342 A2.5,2.5 0 0 1 603,339.5 L603,228.5 A2.5,2.5 0 0 1 605.5,226 " fill="none" style="stroke:#000000;stroke-width:1.5;"/><line style="stroke:#000000;stroke-width:1.5;" x1="603" x2="662" y1="249.6094" y2="249.6094"/><text fill="#000000" font-family="sans-serif" font-size="14" font-weight="bold" lengthAdjust="spacing" textLength="46" x="607" y="242.5332">assets</text></g><!--cluster lib--><g id="cluster_lib"><path d="M32.5,374 L50.5,374 A3.75,3.75 0 0 1 53,376.5 L60,397.6094 L1397.5,397.6094 A2.5,2.5 0 0 1 1400,400.1094 L1400,931.5 A2.5,2.5 0 0 1 1397.5,934 L32.5,934 A2.5,2.5 0 0 1 30,931.5 L30,376.5 A2.5,2.5 0 0 1 32.5,374 " fill="none" style="stroke:#000000;stroke-width:1.5;"/><line style="stroke:#000000;stroke-width:1.5;" x1="30" x2="60" y1="397.6094" y2="397.6094"/><text fill="#000000" font-family="sans-serif" font-size="14" font-weight="bold" lengthAdjust="spacing" textLength="17" x="34" y="390.5332">lib</text></g><!--cluster LibRoot--><g id="cluster_LibRoot"><rect fill="none" height="90" rx="2.5" ry="2.5" style="stroke:#181818;stroke-width:1.0;" width="323" x="54" y="623"/><text fill="#000000" font-family="sans-serif" font-size="14" font-weight="bold" lengthAdjust="spacing" textLength="90" x="170.5" y="639.5332">Root Utilities</text></g><!--cluster SharedTypes--><g id="cluster_SharedTypes"><path d="M411.5,431 L450.5,431 A3.75,3.75 0 0 1 453,433.5 L460,454.6094 L667.5,454.6094 A2.5,2.5 0 0 1 670,457.1094 L670,718.5 A2.5,2.5 0 0 1 667.5,721 L411.5,721 A2.5,2.5 0 0 1 409,718.5 L409,433.5 A2.5,2.5 0 0 1 411.5,431 " fill="none" style="stroke:#000000;stroke-width:1.5;"/><line style="stroke:#000000;stroke-width:1.5;" x1="409" x2="460" y1="454.6094" y2="454.6094"/><text fill="#000000" font-family="sans-serif" font-size="14" font-weight="bold" lengthAdjust="spacing" textLength="38" x="413" y="447.5332">types</text></g><!--cluster Context--><g id="cluster_Context"><path d="M712.5,426 L766.5,426 A3.75,3.75 0 0 1 769,428.5 L776,449.6094 L1289.5,449.6094 A2.5,2.5 0 0 1 1292,452.1094 L1292,539.5 A2.5,2.5 0 0 1 1289.5,542 L712.5,542 A2.5,2.5 0 0 1 710,539.5 L710,428.5 A2.5,2.5 0 0 1 712.5,426 " fill="none" style="stroke:#000000;stroke-width:1.5;"/><line style="stroke:#000000;stroke-width:1.5;" x1="710" x2="776" y1="449.6094" y2="449.6094"/><text fill="#000000" font-family="sans-serif" font-size="14" font-weight="bold" lengthAdjust="spacing" textLength="53" x="714" y="442.5332">context</text></g><!--cluster Services--><g id="cluster_Services"><path d="M704.5,574 L766.5,574 A3.75,3.75 0 0 1 769,576.5 L776,597.6094 L1009.5,597.6094 A2.5,2.5 0 0 1 1012,600.1094 L1012,907.5 A2.5,2.5 0 0 1 1009.5,910 L704.5,910 A2.5,2.5 0 0 1 702,907.5 L702,576.5 A2.5,2.5 0 0 1 704.5,574 " fill="none" style="stroke:#000000;stroke-width:1.5;"/><line style="stroke:#000000;stroke-width:1.5;" x1="702" x2="776" y1="597.6094" y2="597.6094"/><text fill="#000000" font-family="sans-serif" font-size="14" font-weight="bold" lengthAdjust="spacing" textLength="61" x="706" y="590.5332">services</text></g><!--cluster TodoistService--><g id="cluster_TodoistService"><path d="M728.5,618 L778.5,618 A3.75,3.75 0 0 1 781,620.5 L788,641.6094 L985.5,641.6094 A2.5,2.5 0 0 1 988,644.1094 L988,883.5 A2.5,2.5 0 0 1 985.5,886 L728.5,886 A2.5,2.5 0 0 1 726,883.5 L726,620.5 A2.5,2.5 0 0 1 728.5,618 " fill="none" style="stroke:#000000;stroke-width:1.5;"/><line style="stroke:#000000;stroke-width:1.5;" x1="726" x2="788" y1="641.6094" y2="641.6094"/><text fill="#000000" font-family="sans-serif" font-size="14" font-weight="bold" lengthAdjust="spacing" textLength="49" x="730" y="634.5332">todoist</text></g><!--cluster Network--><g id="cluster_Network"><path d="M1038.5,786 L1076.5,786 A3.75,3.75 0 0 1 1079,788.5 L1086,809.6094 L1373.5,809.6094 A2.5,2.5 0 0 1 1376,812.1094 L1376,883.5 A2.5,2.5 0 0 1 1373.5,886 L1038.5,886 A2.5,2.5 0 0 1 1036,883.5 L1036,788.5 A2.5,2.5 0 0 1 1038.5,786 " fill="none" style="stroke:#000000;stroke-width:1.5;"/><line style="stroke:#000000;stroke-width:1.5;" x1="1036" x2="1086" y1="809.6094" y2="809.6094"/><text fill="#000000" font-family="sans-serif" font-size="14" font-weight="bold" lengthAdjust="spacing" textLength="37" x="1040" y="802.5332">axios</text></g><!--entity Layout Wrappers--><g id="elem_Layout Wrappers"><rect fill="#F1F1F1" height="47.6094" rx="2.5" ry="2.5" style="stroke:#181818;stroke-width:0.5;" width="149" x="950.5" y="102"/><rect fill="#F1F1F1" height="10" style="stroke:#181818;stroke-width:0.5;" width="15" x="1079.5" y="107"/><rect fill="#F1F1F1" height="2" style="stroke:#181818;stroke-width:0.5;" width="4" x="1077.5" y="109"/><rect fill="#F1F1F1" height="2" style="stroke:#181818;stroke-width:0.5;" width="4" x="1077.5" y="113"/><text fill="#000000" font-family="sans-serif" font-size="14" lengthAdjust="spacing" textLength="109" x="965.5" y="136.5332">Layout Wrappers</text></g><!--entity Screens--><g id="elem_Screens"><rect fill="#F1F1F1" height="47.6094" rx="2.5" ry="2.5" style="stroke:#181818;stroke-width:0.5;" width="92" x="798" y="102"/><rect fill="#F1F1F1" height="10" style="stroke:#181818;stroke-width:0.5;" width="15" x="870" y="107"/><rect fill="#F1F1F1" height="2" style="stroke:#181818;stroke-width:0.5;" width="4" x="868" y="109"/><rect fill="#F1F1F1" height="2" style="stroke:#181818;stroke-width:0.5;" width="4" x="868" y="113"/><text fill="#000000" font-family="sans-serif" font-size="14" lengthAdjust="spacing" textLength="52" x="813" y="136.5332">Screens</text></g><!--entity UI Widgets--><g id="elem_UI Widgets"><rect fill="#F1F1F1" height="47.6094" rx="2.5" ry="2.5" style="stroke:#181818;stroke-width:0.5;" width="107" x="431.5" y="270"/><rect fill="#F1F1F1" height="10" style="stroke:#181818;stroke-width:0.5;" width="15" x="518.5" y="275"/><rect fill="#F1F1F1" height="2" style="stroke:#181818;stroke-width:0.5;" width="4" x="516.5" y="277"/><rect fill="#F1F1F1" height="2" style="stroke:#181818;stroke-width:0.5;" width="4" x="516.5" y="281"/><text fill="#000000" font-family="sans-serif" font-size="14" lengthAdjust="spacing" textLength="67" x="446.5" y="304.5332">UI Widgets</text></g><!--entity Icons & Splash--><g id="elem_Icons &amp; Splash"><rect fill="#F1F1F1" height="47.6094" rx="2.5" ry="2.5" style="stroke:#181818;stroke-width:0.5;" width="133" x="671.5" y="270"/><rect fill="#F1F1F1" height="10" style="stroke:#181818;stroke-width:0.5;" width="15" x="784.5" y="275"/><rect fill="#F1F1F1" height="2" style="stroke:#181818;stroke-width:0.5;" width="4" x="782.5" y="277"/><rect fill="#F1F1F1" height="2" style="stroke:#181818;stroke-width:0.5;" width="4" x="782.5" y="281"/><text fill="#000000" font-family="sans-serif" font-size="14" lengthAdjust="spacing" textLength="93" x="686.5" y="304.5332">Icons &amp; Splash</text></g><!--entity Theme--><g id="elem_Theme"><path d="M205.5,661.5 L205.5,694.1094 A2.5,2.5 0 0 0 208,696.6094 L262,696.6094 A2.5,2.5 0 0 0 264.5,694.1094 L264.5,669 L254.5,659 L208,659 A2.5,2.5 0 0 0 205.5,661.5 " fill="#F1F1F1" style="stroke:#181818;stroke-width:0.5;"/><path d="M254.5,659 L254.5,666.5 A2.5,2.5 0 0 0 257,669 L264.5,669 " fill="#F1F1F1" style="stroke:#181818;stroke-width:0.5;"/><text fill="#000000" font-family="sans-serif" font-size="14" lengthAdjust="spacing" textLength="39" x="215.5" y="683.5332">theme</text></g><!--entity Calendar--><g id="elem_Calendar"><path d="M70.5,661.5 L70.5,694.1094 A2.5,2.5 0 0 0 73,696.6094 L143,696.6094 A2.5,2.5 0 0 0 145.5,694.1094 L145.5,669 L135.5,659 L73,659 A2.5,2.5 0 0 0 70.5,661.5 " fill="#F1F1F1" style="stroke:#181818;stroke-width:0.5;"/><path d="M135.5,659 L135.5,666.5 A2.5,2.5 0 0 0 138,669 L145.5,669 " fill="#F1F1F1" style="stroke:#181818;stroke-width:0.5;"/><text fill="#000000" font-family="sans-serif" font-size="14" lengthAdjust="spacing" textLength="55" x="80.5" y="683.5332">calendar</text></g><!--entity Database--><g id="elem_Database"><path d="M325,661.5 L325,694.1094 A2.5,2.5 0 0 0 327.5,696.6094 L358.5,696.6094 A2.5,2.5 0 0 0 361,694.1094 L361,669 L351,659 L327.5,659 A2.5,2.5 0 0 0 325,661.5 " fill="#F1F1F1" style="stroke:#181818;stroke-width:0.5;"/><path d="M351,659 L351,666.5 A2.5,2.5 0 0 0 353.5,669 L361,669 " fill="#F1F1F1" style="stroke:#181818;stroke-width:0.5;"/><text fill="#000000" font-family="sans-serif" font-size="14" lengthAdjust="spacing" textLength="16" x="335" y="683.5332">db</text></g><!--entity index--><g id="elem_index"><path d="M477.5,477.5 L477.5,510.1094 A2.5,2.5 0 0 0 480,512.6094 L528,512.6094 A2.5,2.5 0 0 0 530.5,510.1094 L530.5,485 L520.5,475 L480,475 A2.5,2.5 0 0 0 477.5,477.5 " fill="#F1F1F1" style="stroke:#181818;stroke-width:0.5;"/><path d="M520.5,475 L520.5,482.5 A2.5,2.5 0 0 0 523,485 L530.5,485 " fill="#F1F1F1" style="stroke:#181818;stroke-width:0.5;"/><text fill="#000000" font-family="sans-serif" font-size="14" lengthAdjust="spacing" textLength="33" x="487.5" y="499.5332">index</text></g><!--entity notes--><g id="elem_notes"><path d="M590.5,477.5 L590.5,510.1094 A2.5,2.5 0 0 0 593,512.6094 L643,512.6094 A2.5,2.5 0 0 0 645.5,510.1094 L645.5,485 L635.5,475 L593,475 A2.5,2.5 0 0 0 590.5,477.5 " fill="#F1F1F1" style="stroke:#181818;stroke-width:0.5;"/><path d="M635.5,475 L635.5,482.5 A2.5,2.5 0 0 0 638,485 L645.5,485 " fill="#F1F1F1" style="stroke:#181818;stroke-width:0.5;"/><text fill="#000000" font-family="sans-serif" font-size="14" lengthAdjust="spacing" textLength="35" x="600.5" y="499.5332">notes</text></g><!--entity session--><g id="elem_session"><path d="M448,661.5 L448,694.1094 A2.5,2.5 0 0 0 450.5,696.6094 L513.5,696.6094 A2.5,2.5 0 0 0 516,694.1094 L516,669 L506,659 L450.5,659 A2.5,2.5 0 0 0 448,661.5 " fill="#F1F1F1" style="stroke:#181818;stroke-width:0.5;"/><path d="M506,659 L506,666.5 A2.5,2.5 0 0 0 508.5,669 L516,669 " fill="#F1F1F1" style="stroke:#181818;stroke-width:0.5;"/><text fill="#000000" font-family="sans-serif" font-size="14" lengthAdjust="spacing" textLength="48" x="458" y="683.5332">session</text></g><!--entity weather--><g id="elem_weather"><path d="M576,661.5 L576,694.1094 A2.5,2.5 0 0 0 578.5,696.6094 L643.5,696.6094 A2.5,2.5 0 0 0 646,694.1094 L646,669 L636,659 L578.5,659 A2.5,2.5 0 0 0 576,661.5 " fill="#F1F1F1" style="stroke:#181818;stroke-width:0.5;"/><path d="M636,659 L636,666.5 A2.5,2.5 0 0 0 638.5,669 L646,669 " fill="#F1F1F1" style="stroke:#181818;stroke-width:0.5;"/><text fill="#000000" font-family="sans-serif" font-size="14" lengthAdjust="spacing" textLength="50" x="586" y="683.5332">weather</text></g><!--entity Auth--><g id="elem_Auth"><rect fill="#F1F1F1" height="47.6094" rx="2.5" ry="2.5" style="stroke:#181818;stroke-width:0.5;" width="69" x="1044.5" y="470"/><rect fill="#F1F1F1" height="10" style="stroke:#181818;stroke-width:0.5;" width="15" x="1093.5" y="475"/><rect fill="#F1F1F1" height="2" style="stroke:#181818;stroke-width:0.5;" width="4" x="1091.5" y="477"/><rect fill="#F1F1F1" height="2" style="stroke:#181818;stroke-width:0.5;" width="4" x="1091.5" y="481"/><text fill="#000000" font-family="sans-serif" font-size="14" lengthAdjust="spacing" textLength="29" x="1059.5" y="504.5332">Auth</text></g><!--entity Notes--><g id="elem_Notes"><rect fill="#F1F1F1" height="47.6094" rx="2.5" ry="2.5" style="stroke:#181818;stroke-width:0.5;" width="76" x="908" y="470"/><rect fill="#F1F1F1" height="10" style="stroke:#181818;stroke-width:0.5;" width="15" x="964" y="475"/><rect fill="#F1F1F1" height="2" style="stroke:#181818;stroke-width:0.5;" width="4" x="962" y="477"/><rect fill="#F1F1F1" height="2" style="stroke:#181818;stroke-width:0.5;" width="4" x="962" y="481"/><text fill="#000000" font-family="sans-serif" font-size="14" lengthAdjust="spacing" textLength="36" x="923" y="504.5332">Notes</text></g><!--entity Weather--><g id="elem_Weather"><rect fill="#F1F1F1" height="47.6094" rx="2.5" ry="2.5" style="stroke:#181818;stroke-width:0.5;" width="94" x="1174" y="470"/><rect fill="#F1F1F1" height="10" style="stroke:#181818;stroke-width:0.5;" width="15" x="1248" y="475"/><rect fill="#F1F1F1" height="2" style="stroke:#181818;stroke-width:0.5;" width="4" x="1246" y="477"/><rect fill="#F1F1F1" height="2" style="stroke:#181818;stroke-width:0.5;" width="4" x="1246" y="481"/><text fill="#000000" font-family="sans-serif" font-size="14" lengthAdjust="spacing" textLength="54" x="1189" y="504.5332">Weather</text></g><!--entity Alert--><g id="elem_Alert"><rect fill="#F1F1F1" height="47.6094" rx="2.5" ry="2.5" style="stroke:#181818;stroke-width:0.5;" width="69" x="778.5" y="470"/><rect fill="#F1F1F1" height="10" style="stroke:#181818;stroke-width:0.5;" width="15" x="827.5" y="475"/><rect fill="#F1F1F1" height="2" style="stroke:#181818;stroke-width:0.5;" width="4" x="825.5" y="477"/><rect fill="#F1F1F1" height="2" style="stroke:#181818;stroke-width:0.5;" width="4" x="825.5" y="481"/><text fill="#000000" font-family="sans-serif" font-size="14" lengthAdjust="spacing" textLength="29" x="793.5" y="504.5332">Alert</text></g><!--entity TodoistIndex--><g id="elem_TodoistIndex"><rect fill="#F1F1F1" height="47.6094" rx="2.5" ry="2.5" style="stroke:#181818;stroke-width:0.5;" width="73" x="898.5" y="654"/><rect fill="#F1F1F1" height="10" style="stroke:#181818;stroke-width:0.5;" width="15" x="951.5" y="659"/><rect fill="#F1F1F1" height="2" style="stroke:#181818;stroke-width:0.5;" width="4" x="949.5" y="661"/><rect fill="#F1F1F1" height="2" style="stroke:#181818;stroke-width:0.5;" width="4" x="949.5" y="665"/><text fill="#000000" font-family="sans-serif" font-size="14" lengthAdjust="spacing" textLength="33" x="913.5" y="688.5332">index</text></g><!--entity mappers--><g id="elem_mappers"><rect fill="#F1F1F1" height="47.6094" rx="2.5" ry="2.5" style="stroke:#181818;stroke-width:0.5;" width="95" x="742.5" y="822"/><rect fill="#F1F1F1" height="10" style="stroke:#181818;stroke-width:0.5;" width="15" x="817.5" y="827"/><rect fill="#F1F1F1" height="2" style="stroke:#181818;stroke-width:0.5;" width="4" x="815.5" y="829"/><rect fill="#F1F1F1" height="2" style="stroke:#181818;stroke-width:0.5;" width="4" x="815.5" y="833"/><text fill="#000000" font-family="sans-serif" font-size="14" lengthAdjust="spacing" textLength="55" x="757.5" y="856.5332">mappers</text></g><!--entity types--><g id="elem_types"><rect fill="#F1F1F1" height="47.6094" rx="2.5" ry="2.5" style="stroke:#181818;stroke-width:0.5;" width="74" x="898" y="822"/><rect fill="#F1F1F1" height="10" style="stroke:#181818;stroke-width:0.5;" width="15" x="952" y="827"/><rect fill="#F1F1F1" height="2" style="stroke:#181818;stroke-width:0.5;" width="4" x="950" y="829"/><rect fill="#F1F1F1" height="2" style="stroke:#181818;stroke-width:0.5;" width="4" x="950" y="833"/><text fill="#000000" font-family="sans-serif" font-size="14" lengthAdjust="spacing" textLength="34" x="913" y="856.5332">types</text></g><!--entity TodoistClient--><g id="elem_TodoistClient"><rect fill="#F1F1F1" height="47.6094" rx="2.5" ry="2.5" style="stroke:#181818;stroke-width:0.5;" width="120" x="1052" y="822"/><rect fill="#F1F1F1" height="10" style="stroke:#181818;stroke-width:0.5;" width="15" x="1152" y="827"/><rect fill="#F1F1F1" height="2" style="stroke:#181818;stroke-width:0.5;" width="4" x="1150" y="829"/><rect fill="#F1F1F1" height="2" style="stroke:#181818;stroke-width:0.5;" width="4" x="1150" y="833"/><text fill="#000000" font-family="sans-serif" font-size="14" lengthAdjust="spacing" textLength="80" x="1067" y="856.5332">todoist-client</text></g><!--entity WeatherClient--><g id="elem_WeatherClient"><rect fill="#F1F1F1" height="47.6094" rx="2.5" ry="2.5" style="stroke:#181818;stroke-width:0.5;" width="128" x="1232" y="822"/><rect fill="#F1F1F1" height="10" style="stroke:#181818;stroke-width:0.5;" width="15" x="1340" y="827"/><rect fill="#F1F1F1" height="2" style="stroke:#181818;stroke-width:0.5;" width="4" x="1338" y="829"/><rect fill="#F1F1F1" height="2" style="stroke:#181818;stroke-width:0.5;" width="4" x="1338" y="833"/><text fill="#000000" font-family="sans-serif" font-size="14" lengthAdjust="spacing" textLength="88" x="1247" y="856.5332">weather-client</text></g><!--link App to Components--><g id="link_App_Components"><path d="M729.6451,114 C729.4107,114 729.1716,114 728.928,114 C726.9792,114 724.7393,114 722.2305,114 C712.1953,114 697.8594,114 680.6563,114 C646.25,114 600.375,114 554.5,114 C462.75,114 371,114 371,114 C371,114 371,156.2325 371,199.7838 C371,205.2277 371,210.6922 371,216.0974 C371,218.8 371,221.4878 371,224.1507 C371,224.4836 371,218.8161 371,219.1481 " fill="none" id="App-to-Components" style="stroke:#181818;stroke-width:1.0;stroke-dasharray:7.0,7.0;"/><polygon fill="#181818" points="371,225.1481,375,216.1481,371,220.1481,367,216.1481,371,225.1481" style="stroke:#181818;stroke-width:1.0;"/><text fill="#000000" font-family="sans-serif" font-size="13" lengthAdjust="spacing" textLength="43" x="426.5" y="110.4951">imports</text></g><!--link App to Context--><g id="link_App_Context"><path d="M729.8174,139 C729.7186,139 729.6191,139 729.5189,139 C729.118,139 728.7056,139 728.2824,139 C727.4359,139 726.5459,139 725.6172,139 C718.1875,139 708.2813,139 698.375,139 C678.5625,139 658.75,139 658.75,139 C658.75,139 658.75,494 658.75,494 C658.75,494 671.77,494 685.6025,494 C692.5188,494 699.6381,494 705.4347,494 C706.8838,494 708.2503,494 709.5102,494 C709.6677,494 703.8236,494 703.9777,494 " fill="none" id="App-to-Context" style="stroke:#181818;stroke-width:1.0;stroke-dasharray:7.0,7.0;"/><polygon fill="#181818" points="709.9777,494,700.9777,490,704.9777,494,700.9777,498,709.9777,494" style="stroke:#181818;stroke-width:1.0;"/><text fill="#000000" font-family="sans-serif" font-size="13" lengthAdjust="spacing" textLength="51" x="606.75" y="314.4451">providers</text></g><!--link App to Theme--><g id="link_App_Theme"><path d="M768.5,174.3764 C768.5,174.5388 768.5,174.701 768.5,174.8631 C768.5,175.1873 768.5,175.511 768.5,175.834 C768.5,178.418 768.5,180.9609 768.5,183.4219 C768.5,188.3438 768.5,192.9375 768.5,196.875 C768.5,204.75 768.5,210 768.5,210 C768.5,210 225.17,210 225.17,210 C225.17,210 225.17,564.72 225.17,652.78 " fill="none" id="App-to-Theme" style="stroke:#181818;stroke-width:1.0;stroke-dasharray:7.0,7.0;"/><polygon fill="#181818" points="225.17,658.78,229.17,649.78,225.17,653.78,221.17,649.78,225.17,658.78" style="stroke:#181818;stroke-width:1.0;"/><text fill="#000000" font-family="sans-serif" font-size="13" lengthAdjust="spacing" textLength="41" x="287.32" y="206.4951">applies</text></g><!--link App to Assets--><g id="link_App_Assets"><path d="M729.6833,126 C729.5567,126 729.4288,126 729.2996,126 C729.0414,126 728.7782,126 728.5101,126 C727.974,126 727.4186,126 726.8447,126 C725.6968,126 724.4751,126 723.1865,126 C720.6094,126 717.765,126 714.7095,126 C702.4878,126 686.8906,126 671.5263,126 C640.7975,126 611,126 611,126 C611,126 611,165.415 611,206.0625 C611,211.1434 611,216.2436 611,221.2885 C611,222.5497 611,223.8075 611,225.0606 C611,225.3739 611,219.6869 611,219.9996 " fill="none" id="App-to-Assets" style="stroke:#181818;stroke-width:1.0;stroke-dasharray:7.0,7.0;"/><polygon fill="#181818" points="611,225.9996,615,216.9996,611,220.9996,607,216.9996,611,225.9996" style="stroke:#181818;stroke-width:1.0;"/><text fill="#000000" font-family="sans-serif" font-size="13" lengthAdjust="spacing" textLength="48" x="562" y="142.9351">includes</text></g><!--link Components to Context--><g id="link_Components_Context"><path d="M371,342.4917 C371,342.6778 371,342.8639 371,343.05 C371,344.539 371,346.0291 371,347.515 C371,371.29 371,394 371,394 C371,394 718,394 718,394 C718,394 718,399.6775 718,408.3269 C718,412.6516 718,417.7192 718,423.1916 C718,423.8757 718,424.5661 718,425.2621 C718,425.4361 718,419.6105 718,419.7852 " fill="none" id="Components-to-Context" style="stroke:#181818;stroke-width:1.0;stroke-dasharray:7.0,7.0;"/><polygon fill="#181818" points="718,425.7852,722,416.7852,718,420.7852,714,416.7852,718,425.7852" style="stroke:#181818;stroke-width:1.0;"/><text fill="#000000" font-family="sans-serif" font-size="13" lengthAdjust="spacing" textLength="60" x="483.5" y="390.4951">consumes</text></g><!--link Components to Calendar--><g id="link_Components_Calendar"><path d="M362.5548,294 C362.1703,294 361.7737,294 361.3654,294 C359.7319,294 357.9099,294 355.9142,294 C347.9313,294 337.1698,294 324.5864,294 C299.4197,294 266.9656,294 234.8788,294 C170.705,294 108,294 108,294 C108,294 108,575.47 108,652.96 " fill="none" id="Components-to-Calendar" style="stroke:#181818;stroke-width:1.0;stroke-dasharray:7.0,7.0;"/><polygon fill="#181818" points="108,658.96,112,649.96,108,653.96,104,649.96,108,658.96" style="stroke:#181818;stroke-width:1.0;"/><text fill="#000000" font-family="sans-serif" font-size="13" lengthAdjust="spacing" textLength="28" x="79" y="341.6851">uses</text></g><!--link Components to Theme--><g id="link_Components_Theme"><path d="M362.9412,295 C362.4354,295 361.909,295 361.3628,295 C360.2704,295 359.0991,295 357.8562,295 C355.3704,295 352.5982,295 349.5984,295 C337.5994,295 321.9588,295 306.4375,295 C275.395,295 244.83,295 244.83,295 C244.83,295 244.83,575.08 244.83,652.74 " fill="none" id="Components-to-Theme" style="stroke:#181818;stroke-width:1.0;stroke-dasharray:7.0,7.0;"/><polygon fill="#181818" points="244.83,658.74,248.83,649.74,244.83,653.74,240.83,649.74,244.83,658.74" style="stroke:#181818;stroke-width:1.0;"/><text fill="#000000" font-family="sans-serif" font-size="13" lengthAdjust="spacing" textLength="28" x="215.83" y="410.3251">uses</text></g><!--link Components to SharedTypes--><g id="link_Components_SharedTypes"><path d="M417,342.7668 C417,343.0971 417,343.4284 417,343.7607 C417,344.4253 417,345.0939 417,345.7663 C417,348.456 417,351.207 417,354.008 C417,365.2123 417,377.2184 417,389.3162 C417,401.4141 417,413.6035 417,425.1743 C417,426.6207 417,428.0574 417,429.483 C417,429.8394 417,424.1951 417,424.5501 " fill="none" id="Components-to-SharedTypes" style="stroke:#181818;stroke-width:1.0;stroke-dasharray:7.0,7.0;"/><polygon fill="#181818" points="417,430.5501,421,421.5501,417,425.5501,413,421.5501,417,430.5501" style="stroke:#181818;stroke-width:1.0;"/><text fill="#000000" font-family="sans-serif" font-size="13" lengthAdjust="spacing" textLength="28" x="388" y="367.4651">uses</text></g><!--link Notes to TodoistIndex--><g id="link_Notes_TodoistIndex"><path d="M950.33,518.05 C950.33,553.32 950.33,612.67 950.33,647.94 " fill="none" id="Notes-to-TodoistIndex" style="stroke:#181818;stroke-width:1.0;stroke-dasharray:7.0,7.0;"/><polygon fill="#181818" points="950.33,653.94,954.33,644.94,950.33,648.94,946.33,644.94,950.33,653.94" style="stroke:#181818;stroke-width:1.0;"/><text fill="#000000" font-family="sans-serif" font-size="13" lengthAdjust="spacing" textLength="35" x="914.33" y="582.4951">syncs</text></g><!--link Notes to Database--><g id="link_Notes_Database"><path d="M929.17,518.17 C929.17,545.43 929.17,586 929.17,586 C929.17,586 343,586 343,586 C343,586 343,625.99 343,652.94 " fill="none" id="Notes-to-Database" style="stroke:#181818;stroke-width:1.0;stroke-dasharray:7.0,7.0;"/><polygon fill="#181818" points="343,658.94,347,649.94,343,653.94,339,649.94,343,658.94" style="stroke:#181818;stroke-width:1.0;"/><text fill="#000000" font-family="sans-serif" font-size="13" lengthAdjust="spacing" textLength="46" x="586.53" y="582.4951">persists</text></g><!--link Auth to TodoistClient--><g id="link_Auth_TodoistClient"><path d="M1093,518.19 C1093,582.5 1093,751.14 1093,815.64 " fill="none" id="Auth-to-TodoistClient" style="stroke:#181818;stroke-width:1.0;stroke-dasharray:7.0,7.0;"/><polygon fill="#181818" points="1093,821.64,1097,812.64,1093,816.64,1089,812.64,1093,821.64" style="stroke:#181818;stroke-width:1.0;"/><text fill="#000000" font-family="sans-serif" font-size="13" lengthAdjust="spacing" textLength="25" x="1067" y="666.4151">auth</text></g><!--link Weather to WeatherClient--><g id="link_Weather_WeatherClient"><path d="M1250,518.19 C1250,582.5 1250,751.14 1250,815.64 " fill="none" id="Weather-to-WeatherClient" style="stroke:#181818;stroke-width:1.0;stroke-dasharray:7.0,7.0;"/><polygon fill="#181818" points="1250,821.64,1254,812.64,1250,816.64,1246,812.64,1250,821.64" style="stroke:#181818;stroke-width:1.0;"/><text fill="#000000" font-family="sans-serif" font-size="13" lengthAdjust="spacing" textLength="42" x="1207" y="666.4151">fetches</text></g><!--link TodoistIndex to TodoistClient--><g id="link_TodoistIndex_TodoistClient"><path d="M971.85,678 C1012.58,678 1072.5,678 1072.5,678 C1072.5,678 1072.5,769.48 1072.5,815.93 " fill="none" id="TodoistIndex-to-TodoistClient" style="stroke:#181818;stroke-width:1.0;stroke-dasharray:7.0,7.0;"/><polygon fill="#181818" points="1072.5,821.93,1076.5,812.93,1072.5,816.93,1068.5,812.93,1072.5,821.93" style="stroke:#181818;stroke-width:1.0;"/><text fill="#000000" font-family="sans-serif" font-size="13" lengthAdjust="spacing" textLength="49" x="1022.5" y="696.1351">HTTP(S)</text></g><!--link TodoistIndex to mappers--><g id="link_TodoistIndex_mappers"><path d="M898.27,678 C860.76,678 808,678 808,678 C808,678 808,769.48 808,815.93 " fill="none" id="TodoistIndex-to-mappers" style="stroke:#181818;stroke-width:1.0;stroke-dasharray:7.0,7.0;"/><polygon fill="#181818" points="808,821.93,812,812.93,808,816.93,804,812.93,808,821.93" style="stroke:#181818;stroke-width:1.0;"/></g><!--link TodoistIndex to types--><g id="link_TodoistIndex_types"><path d="M935,702.07 C935,734.01 935,784.06 935,815.97 " fill="none" id="TodoistIndex-to-types" style="stroke:#181818;stroke-width:1.0;stroke-dasharray:7.0,7.0;"/><polygon fill="#181818" points="935,821.97,939,812.97,935,816.97,931,812.97,935,821.97" style="stroke:#181818;stroke-width:1.0;"/></g><!--SRC=[VLGzRnin3DtrAuGRYdPea7ReaA60aGur40H1xC13u47MCJx1PqaGvSH6uVzUwiEsxYFM9F4zae-KADmeROKJMzug3VvWWHld6yFm36XJ0uBblsuBenDw4um_VjuoPeNSY3Nm2fsi-3_6QPrjmjgA2-GJQpCKrkk3E9YTvmj7E3XSNf2PT00wMuwi6qsQhJKQjCSOzFvyB6E_JFb2rMlmdmGHY903JEAsT9vAev5_uJFR2cp60xHgLHK-3gGNUjqIycoCvozUjSehI2aUr2fQB_omtbIW-mQs45dpi1jXID62heLBvUR32AzUHSOVuSLAu2LIbjwH7wuvQPirma4z3-THVKhNiAz606qyXHW1412LqMFG1mYgrrLNjL7tFUnzljsuxobxdUnyi-oQ7eESdcsHqlMianQSNrwLWE3UbJnrA1zw8YwzDBLHcFJEqpwxz3p2Eh_UKsSBhsamNFFOfacfhd7IpNOOHpRS3MiMUsLImO_WFupRzDINEPBUxx9LT2vBk8-Mp_pozPT- -OfwViSyStGtuTEukVbTplaTLxHt7WimFPCxRfrvLpKrwOp5iIA4UaT9BlOyznHCotP77nnZHOvkrF0XxBP4wJFoD19bXqFub7eCA-SkCrXymycpU144uq5BBE3JZ8U2gLPYadSOYj8vzJHKJW3BZOw4JjE9y0PUDa509-rOgB_p-TFNsRSXCJ_D8H3V8_iF]--></g></svg>