<?xml version="1.0" encoding="us-ascii" standalone="no"?><svg xmlns="http://www.w3.org/2000/svg" xmlns:xlink="http://www.w3.org/1999/xlink" contentStyleType="text/css" height="625px" preserveAspectRatio="none" style="width:822px;height:625px;background:#FFFFFF;" version="1.1" viewBox="0 0 822 625" width="822px" zoomAndPan="magnify"><defs/><g><!--cluster Tick it--><g id="cluster_Tick it"><rect fill="none" height="610" rx="2.5" ry="2.5" style="stroke:#181818;stroke-width:1.0;" width="531" x="82" y="7"/><text fill="#000000" font-family="sans-serif" font-size="14" font-weight="bold" lengthAdjust="spacing" textLength="41" x="327" y="23.5332">Tick it</text></g><g id="elem_UC01"><ellipse cx="198.9506" cy="66.0901" fill="#F1F1F1" rx="100.9506" ry="22.5901" style="stroke:#181818;stroke-width:0.5;"/><text fill="#000000" font-family="sans-serif" font-size="14" lengthAdjust="spacing" textLength="163" x="117.4506" y="69.8186">UC01 - Unlock Application</text></g><g id="elem_UC02"><ellipse cx="199.097" cy="142.1194" fill="#F1F1F1" rx="81.097" ry="18.6194" style="stroke:#181818;stroke-width:0.5;"/><text fill="#000000" font-family="sans-serif" font-size="14" lengthAdjust="spacing" textLength="117" x="140.0843" y="145.9982">UC02 - View Notes</text></g><g id="elem_UC03"><ellipse cx="199.0066" cy="215.2013" fill="#F1F1F1" rx="84.0066" ry="19.2013" style="stroke:#181818;stroke-width:0.5;"/><text fill="#000000" font-family="sans-serif" font-size="14" lengthAdjust="spacing" textLength="124" x="137.0066" y="218.9298">UC03 - Create Note</text></g><g id="elem_UC04"><ellipse cx="198.855" cy="287.171" fill="#F1F1F1" rx="76.355" ry="17.671" style="stroke:#181818;stroke-width:0.5;"/><text fill="#000000" font-family="sans-serif" font-size="14" lengthAdjust="spacing" textLength="105" x="143.6233" y="291.6255">UC04 - Edit Note</text></g><g id="elem_UC05"><ellipse cx="199.169" cy="359.0338" fill="#F1F1F1" rx="83.169" ry="19.0338" style="stroke:#181818;stroke-width:0.5;"/><text fill="#000000" font-family="sans-serif" font-size="14" lengthAdjust="spacing" textLength="122" x="138.169" y="362.7623">UC05 - Delete Note</text></g><g id="elem_UC06"><ellipse cx="199.1904" cy="434.9381" fill="#F1F1F1" rx="95.1904" ry="21.4381" style="stroke:#181818;stroke-width:0.5;"/><text fill="#000000" font-family="sans-serif" font-size="14" lengthAdjust="spacing" textLength="150" x="124.1904" y="438.6666">UC06 - Log into Todoist</text></g><g id="elem_UC07"><ellipse cx="199.0109" cy="509.0022" fill="#F1F1F1" rx="73.0109" ry="17.0022" style="stroke:#181818;stroke-width:0.5;"/><text fill="#000000" font-family="sans-serif" font-size="14" lengthAdjust="spacing" textLength="96" x="148.0109" y="513.5188">UC07 - Log out</text></g><g id="elem_UC08"><ellipse cx="199.1756" cy="581.1351" fill="#F1F1F1" rx="88.6756" ry="20.1351" style="stroke:#181818;stroke-width:0.5;"/><text fill="#000000" font-family="sans-serif" font-size="14" lengthAdjust="spacing" textLength="135" x="131.6756" y="584.8636">UC08 - View Weather</text></g><g id="elem_UC09"><ellipse cx="517.4775" cy="318.7955" fill="#F1F1F1" rx="79.4775" ry="18.2955" style="stroke:#181818;stroke-width:0.5;"/><text fill="#000000" font-family="sans-serif" font-size="14" lengthAdjust="spacing" textLength="113" x="459.756" y="322.8709">UC09 - Sync Data</text></g><!--entity user--><g id="elem_user"><ellipse cx="20.5" cy="300.5" fill="#F1F1F1" rx="8" ry="8" style="stroke:#181818;stroke-width:0.5;"/><path d="M20.5,308.5 L20.5,335.5 M7.5,316.5 L33.5,316.5 M20.5,335.5 L7.5,350.5 M20.5,335.5 L33.5,350.5 " fill="none" style="stroke:#181818;stroke-width:0.5;"/><text fill="#000000" font-family="sans-serif" font-size="14" lengthAdjust="spacing" textLength="29" x="6" y="366.5332">User</text></g><!--entity todoist--><g id="elem_todoist"><ellipse cx="775.5" cy="355.5" fill="#F1F1F1" rx="8" ry="8" style="stroke:#181818;stroke-width:0.5;"/><path d="M775.5,363.5 L775.5,390.5 M762.5,371.5 L788.5,371.5 M775.5,390.5 L762.5,405.5 M775.5,390.5 L788.5,405.5 " fill="none" style="stroke:#181818;stroke-width:0.5;"/><text fill="#000000" font-family="sans-serif" font-size="14" lengthAdjust="spacing" textLength="72" x="739.5" y="421.5332">Todoist API</text></g><!--entity weather--><g id="elem_weather"><ellipse cx="775.5" cy="550.5" fill="#F1F1F1" rx="8" ry="8" style="stroke:#181818;stroke-width:0.5;"/><path d="M775.5,558.5 L775.5,585.5 M762.5,566.5 L788.5,566.5 M775.5,585.5 L762.5,600.5 M775.5,585.5 L788.5,600.5 " fill="none" style="stroke:#181818;stroke-width:0.5;"/><text fill="#000000" font-family="sans-serif" font-size="14" lengthAdjust="spacing" textLength="79" x="736" y="616.5332">Weather API</text></g><!--link user to UC06--><g id="link_user_UC06"><path d="M35.06,353.37 C44.45,367.13 58.08,384.16 74,395 C90.45,406.21 104.5298,412.6192 123.4198,418.5992 " fill="none" id="user-to-UC06" style="stroke:#181818;stroke-width:1.0;"/><polygon fill="#181818" points="129.14,420.41,121.7669,413.8803,124.3732,418.901,119.3524,421.5072,129.14,420.41" style="stroke:#181818;stroke-width:1.0;"/></g><!--link user to UC07--><g id="link_user_UC07"><path d="M26.02,370.06 C31.79,402.29 44.8,446.96 74,474 C89.76,488.59 105.3004,495.7402 125.8704,500.7502 " fill="none" id="user-to-UC07" style="stroke:#181818;stroke-width:1.0;"/><polygon fill="#181818" points="131.7,502.17,123.9022,496.1538,126.842,500.9868,122.0091,503.9266,131.7,502.17" style="stroke:#181818;stroke-width:1.0;"/></g><!--link user to UC01--><g id="link_user_UC01"><path d="M25.99,291.73 C33.26,234.69 49.35,132.78 74,106 C85.41,93.6 95.0562,87.1212 110.9762,81.2012 " fill="none" id="user-to-UC01" style="stroke:#181818;stroke-width:1.0;"/><polygon fill="#181818" points="116.6,79.11,106.7702,78.4977,111.9135,80.8527,109.5585,85.996,116.6,79.11" style="stroke:#181818;stroke-width:1.0;"/></g><!--link user to UC02--><g id="link_user_UC02"><path d="M24.95,291.7 C30.05,257.14 42.69,207.84 74,178 C88.36,164.31 101.8295,157.3982 120.8795,152.0982 " fill="none" id="user-to-UC02" style="stroke:#181818;stroke-width:1.0;"/><polygon fill="#181818" points="126.66,150.49,116.9172,149.0487,121.843,151.8302,119.0615,156.756,126.66,150.49" style="stroke:#181818;stroke-width:1.0;"/></g><!--link user to UC03--><g id="link_user_UC03"><path d="M35.04,300.9 C43.93,284.29 57.06,264.54 74,252 C90.52,239.77 105.3041,233.1846 124.8941,227.6746 " fill="none" id="user-to-UC03" style="stroke:#181818;stroke-width:1.0;"/><polygon fill="#181818" points="130.67,226.05,120.9231,224.6363,125.8568,227.4038,123.0892,232.3374,130.67,226.05" style="stroke:#181818;stroke-width:1.0;"/></g><!--link user to UC04--><g id="link_user_UC04"><path d="M35.12,326.27 C43.65,323.4 54.9,319.76 65,317 C89.89,310.2 111.8371,305.0254 135.5571,299.8654 " fill="none" id="user-to-UC04" style="stroke:#181818;stroke-width:1.0;"/><polygon fill="#181818" points="141.42,298.59,131.7754,296.5945,136.5343,299.6528,133.4759,304.4117,141.42,298.59" style="stroke:#181818;stroke-width:1.0;"/></g><!--link user to UC05--><g id="link_user_UC05"><path d="M35.06,333.15 C55.4,336.38 89.2641,341.7498 124.4341,347.3298 " fill="none" id="user-to-UC05" style="stroke:#181818;stroke-width:1.0;"/><polygon fill="#181818" points="130.36,348.27,122.098,342.9091,125.4218,347.4865,120.8444,350.8103,130.36,348.27" style="stroke:#181818;stroke-width:1.0;"/></g><!--link user to UC08--><g id="link_user_UC08"><path d="M26.56,370.31 C34.3,424.53 50.67,518.36 74,543 C86.85,556.57 98.6794,563.5303 116.5394,569.1803 " fill="none" id="user-to-UC08" style="stroke:#181818;stroke-width:1.0;"/><polygon fill="#181818" points="122.26,570.99,114.8856,564.4617,117.4929,569.4819,112.4727,572.0892,122.26,570.99" style="stroke:#181818;stroke-width:1.0;"/></g><!--link UC03 to UC09--><g id="link_UC03_UC09"><path d="M270.27,225.07 C311.26,232.2 363.49,243.47 408,260 C437.15,270.82 462.9702,285.1651 484.3202,298.3051 " fill="none" id="UC03-to-UC09" style="stroke:#181818;stroke-width:1.0;stroke-dasharray:7.0,7.0;"/><polygon fill="#181818" points="489.43,301.45,483.8619,293.3262,485.1718,298.8293,479.6688,300.1392,489.43,301.45" style="stroke:#181818;stroke-width:1.0;"/><text fill="#000000" font-family="sans-serif" font-size="13" lengthAdjust="spacing" textLength="55" x="339.5" y="219.4951">&#171;include&#187;</text><text fill="#000000" font-family="sans-serif" font-size="13" lengthAdjust="spacing" textLength="76" x="331" y="235.8467">(when online)</text></g><!--link UC04 to UC09--><g id="link_UC04_UC09"><path d="M269.46,294.02 C321.23,299.26 385.7704,305.7867 438.2104,311.0867 " fill="none" id="UC04-to-UC09" style="stroke:#181818;stroke-width:1.0;stroke-dasharray:7.0,7.0;"/><polygon fill="#181818" points="444.18,311.69,435.6278,306.8053,439.2053,311.1872,434.8234,314.7647,444.18,311.69" style="stroke:#181818;stroke-width:1.0;"/><text fill="#000000" font-family="sans-serif" font-size="13" lengthAdjust="spacing" textLength="55" x="339.5" y="282.4951">&#171;include&#187;</text><text fill="#000000" font-family="sans-serif" font-size="13" lengthAdjust="spacing" textLength="76" x="331" y="298.8467">(when online)</text></g><!--link UC05 to UC09--><g id="link_UC05_UC09"><path d="M281.95,359.88 C320.43,359.17 366.79,356.68 408,350 C429.47,346.52 446.9774,342.0013 466.4274,335.9913 " fill="none" id="UC05-to-UC09" style="stroke:#181818;stroke-width:1.0;stroke-dasharray:7.0,7.0;"/><polygon fill="#181818" points="472.16,334.22,462.3803,333.0553,467.3829,335.6961,464.742,340.6987,472.16,334.22" style="stroke:#181818;stroke-width:1.0;"/><text fill="#000000" font-family="sans-serif" font-size="13" lengthAdjust="spacing" textLength="55" x="339.5" y="330.4951">&#171;include&#187;</text><text fill="#000000" font-family="sans-serif" font-size="13" lengthAdjust="spacing" textLength="76" x="331" y="346.8467">(when online)</text></g><!--reverse link UC06 to todoist--><g id="link_UC06_todoist"><path d="M294.1683,426.9699 C422.9783,415.9799 650.85,396.55 739.32,389 " fill="none" id="UC06-backto-todoist" style="stroke:#181818;stroke-width:1.0;"/><polygon fill="#181818" points="288.19,427.48,297.4975,430.7004,293.1719,427.0549,296.8174,422.7294,288.19,427.48" style="stroke:#181818;stroke-width:1.0;"/><text fill="#000000" font-family="sans-serif" font-size="13" lengthAdjust="spacing" textLength="111" x="462" y="396.4951">Authenticates User</text></g><!--reverse link UC08 to weather--><g id="link_UC08_weather"><path d="M293.57,581 C420.62,581 644.85,581 735.92,581 " fill="none" id="UC08-backto-weather" style="stroke:#181818;stroke-width:1.0;"/><polygon fill="#181818" points="287.57,581,296.57,585,292.57,581,296.57,577,287.57,581" style="stroke:#181818;stroke-width:1.0;"/><text fill="#000000" font-family="sans-serif" font-size="13" lengthAdjust="spacing" textLength="124" x="455.5" y="577.4951">Fetches Weather Info</text></g><!--reverse link UC09 to todoist--><g id="link_UC09_todoist"><path d="M576.7245,334.2392 C627.0445,347.4092 695.84,365.41 739.38,376.81 " fill="none" id="UC09-backto-todoist" style="stroke:#181818;stroke-width:1.0;"/><polygon fill="#181818" points="570.92,332.72,578.6139,338.8684,575.7571,333.986,580.6395,331.1291,570.92,332.72" style="stroke:#181818;stroke-width:1.0;"/><text fill="#000000" font-family="sans-serif" font-size="13" lengthAdjust="spacing" textLength="75" x="630" y="345.4951">Syncs Notes</text></g><!--SRC=[ZT9DQyCm30RWkt-5w6axPAmVwSSeXT9kK1XZq7Mxx68SDJ7rx90ub3BstwSuTPddItFA6psehYo5UmlMG2Npma8cAnHM6itgWzGbh_WNb5mSU8vRUr88RPdhN25ZN5XJGMzNOzK3NaD3B_xZcycCh2qiNpUkPhlion_8RO7LfNpiCcENzjH2YWD8suDl1lHGTy5h-hvRtVSXWPrMXi2oB9KKl3sowzHM8pyW_oxn22_6OktT8793SgkApe9EUZYCu8ZWOoPjm4OHIucjKU6_Vca4nmIVJGvIqqsSP-VrEDAJipRD1KqYDFN_-JnhBwUHd97SdhI0DRVSindxOQozKKYIHNUClsaIf7wG1a4Q1caKf3H8KyRS7TpTkJY31vZFfHQgoN2nW4zzSonGWz5AQhnbxXgkj-crbhdxc2U9NrhoouP6g6sxQ4ZZQHVTZPXKufUNs1DQKH3mwxtHUyFSJuRjscdNtJAoNm00]--></g></svg>