<?xml version="1.0" encoding="us-ascii" standalone="no"?><svg xmlns="http://www.w3.org/2000/svg" xmlns:xlink="http://www.w3.org/1999/xlink" contentStyleType="text/css" height="712px" preserveAspectRatio="none" style="width:1200px;height:712px;background:#FFFFFF;" version="1.1" viewBox="0 0 1200 712" width="1200px" zoomAndPan="magnify"><defs/><g><rect fill="#FFFFFF" height="519.9766" style="stroke:#181818;stroke-width:1.0;" width="10" x="17.5" y="92.6094"/><rect fill="#FFFFFF" height="497.625" style="stroke:#181818;stroke-width:1.0;" width="10" x="234.5" y="114.9609"/><rect fill="#FFFFFF" height="436.9219" style="stroke:#181818;stroke-width:1.0;" width="10" x="388.5" y="145.3125"/><rect fill="#FFFFFF" height="316.5156" style="stroke:#181818;stroke-width:1.0;" width="10" x="554.5" y="175.6641"/><rect fill="#FFFFFF" height="30.3516" style="stroke:#181818;stroke-width:1.0;" width="10" x="819.5" y="206.0156"/><rect fill="#FFFFFF" height="30.3516" style="stroke:#181818;stroke-width:1.0;" width="10" x="819.5" y="266.7188"/><rect fill="#FFFFFF" height="91.0547" style="stroke:#181818;stroke-width:1.0;" width="10" x="933" y="327.4219"/><rect fill="#FFFFFF" height="30.3516" style="stroke:#181818;stroke-width:1.0;" width="10" x="1125" y="357.7734"/><line style="stroke:#181818;stroke-width:0.5;stroke-dasharray:5.0,5.0;" x1="22" x2="22" y1="82.6094" y2="630.5859"/><line style="stroke:#181818;stroke-width:0.5;stroke-dasharray:5.0,5.0;" x1="239" x2="239" y1="82.6094" y2="630.5859"/><line style="stroke:#181818;stroke-width:0.5;stroke-dasharray:5.0,5.0;" x1="393" x2="393" y1="82.6094" y2="630.5859"/><line style="stroke:#181818;stroke-width:0.5;stroke-dasharray:5.0,5.0;" x1="559" x2="559" y1="82.6094" y2="630.5859"/><line style="stroke:#181818;stroke-width:0.5;stroke-dasharray:5.0,5.0;" x1="824" x2="824" y1="82.6094" y2="630.5859"/><line style="stroke:#181818;stroke-width:0.5;stroke-dasharray:5.0,5.0;" x1="938" x2="938" y1="82.6094" y2="630.5859"/><line style="stroke:#181818;stroke-width:0.5;stroke-dasharray:5.0,5.0;" x1="1130" x2="1130" y1="82.6094" y2="630.5859"/><text fill="#000000" font-family="sans-serif" font-size="14" lengthAdjust="spacing" textLength="29" x="5" y="79.5332">User</text><ellipse cx="22.5" cy="13.5" fill="#E2E2F0" rx="8" ry="8" style="stroke:#181818;stroke-width:0.5;"/><path d="M22.5,21.5 L22.5,48.5 M9.5,29.5 L35.5,29.5 M22.5,48.5 L9.5,63.5 M22.5,48.5 L35.5,63.5 " fill="none" style="stroke:#181818;stroke-width:0.5;"/><text fill="#000000" font-family="sans-serif" font-size="14" lengthAdjust="spacing" textLength="29" x="5" y="644.1191">User</text><ellipse cx="22.5" cy="655.6953" fill="#E2E2F0" rx="8" ry="8" style="stroke:#181818;stroke-width:0.5;"/><path d="M22.5,663.6953 L22.5,690.6953 M9.5,671.6953 L35.5,671.6953 M22.5,690.6953 L9.5,705.6953 M22.5,690.6953 L35.5,705.6953 " fill="none" style="stroke:#181818;stroke-width:0.5;"/><rect fill="#E2E2F0" height="31.6094" rx="2.5" ry="2.5" style="stroke:#181818;stroke-width:0.5;" width="99" x="190" y="50"/><text fill="#000000" font-family="sans-serif" font-size="14" lengthAdjust="spacing" textLength="85" x="197" y="71.5332">Home Screen</text><rect fill="#E2E2F0" height="31.6094" rx="2.5" ry="2.5" style="stroke:#181818;stroke-width:0.5;" width="99" x="190" y="629.5859"/><text fill="#000000" font-family="sans-serif" font-size="14" lengthAdjust="spacing" textLength="85" x="197" y="651.1191">Home Screen</text><rect fill="#E2E2F0" height="31.6094" rx="2.5" ry="2.5" style="stroke:#181818;stroke-width:0.5;" width="189" x="299" y="50"/><text fill="#000000" font-family="sans-serif" font-size="14" lengthAdjust="spacing" textLength="175" x="306" y="71.5332">WeatherWidget Component</text><rect fill="#E2E2F0" height="31.6094" rx="2.5" ry="2.5" style="stroke:#181818;stroke-width:0.5;" width="189" x="299" y="629.5859"/><text fill="#000000" font-family="sans-serif" font-size="14" lengthAdjust="spacing" textLength="175" x="306" y="651.1191">WeatherWidget Component</text><rect fill="#E2E2F0" height="31.6094" rx="2.5" ry="2.5" style="stroke:#181818;stroke-width:0.5;" width="121" x="499" y="50"/><text fill="#000000" font-family="sans-serif" font-size="14" lengthAdjust="spacing" textLength="107" x="506" y="71.5332">WeatherProvider</text><rect fill="#E2E2F0" height="31.6094" rx="2.5" ry="2.5" style="stroke:#181818;stroke-width:0.5;" width="121" x="499" y="629.5859"/><text fill="#000000" font-family="sans-serif" font-size="14" lengthAdjust="spacing" textLength="107" x="506" y="651.1191">WeatherProvider</text><rect fill="#E2E2F0" height="31.6094" rx="2.5" ry="2.5" style="stroke:#181818;stroke-width:0.5;" width="103" x="773" y="50"/><text fill="#000000" font-family="sans-serif" font-size="14" lengthAdjust="spacing" textLength="89" x="780" y="71.5332">Expo Location</text><rect fill="#E2E2F0" height="31.6094" rx="2.5" ry="2.5" style="stroke:#181818;stroke-width:0.5;" width="103" x="773" y="629.5859"/><text fill="#000000" font-family="sans-serif" font-size="14" lengthAdjust="spacing" textLength="89" x="780" y="651.1191">Expo Location</text><rect fill="#E2E2F0" height="31.6094" rx="2.5" ry="2.5" style="stroke:#181818;stroke-width:0.5;" width="104" x="886" y="50"/><text fill="#000000" font-family="sans-serif" font-size="14" lengthAdjust="spacing" textLength="90" x="893" y="71.5332">WeatherClient</text><rect fill="#E2E2F0" height="31.6094" rx="2.5" ry="2.5" style="stroke:#181818;stroke-width:0.5;" width="104" x="886" y="629.5859"/><text fill="#000000" font-family="sans-serif" font-size="14" lengthAdjust="spacing" textLength="90" x="893" y="651.1191">WeatherClient</text><rect fill="#E2E2F0" height="31.6094" rx="2.5" ry="2.5" style="stroke:#181818;stroke-width:0.5;" width="128" x="1066" y="50"/><text fill="#000000" font-family="sans-serif" font-size="14" lengthAdjust="spacing" textLength="114" x="1073" y="71.5332">OpenWeather API</text><rect fill="#E2E2F0" height="31.6094" rx="2.5" ry="2.5" style="stroke:#181818;stroke-width:0.5;" width="128" x="1066" y="629.5859"/><text fill="#000000" font-family="sans-serif" font-size="14" lengthAdjust="spacing" textLength="114" x="1073" y="651.1191">OpenWeather API</text><rect fill="#FFFFFF" height="519.9766" style="stroke:#181818;stroke-width:1.0;" width="10" x="17.5" y="92.6094"/><rect fill="#FFFFFF" height="497.625" style="stroke:#181818;stroke-width:1.0;" width="10" x="234.5" y="114.9609"/><rect fill="#FFFFFF" height="436.9219" style="stroke:#181818;stroke-width:1.0;" width="10" x="388.5" y="145.3125"/><rect fill="#FFFFFF" height="316.5156" style="stroke:#181818;stroke-width:1.0;" width="10" x="554.5" y="175.6641"/><rect fill="#FFFFFF" height="30.3516" style="stroke:#181818;stroke-width:1.0;" width="10" x="819.5" y="206.0156"/><rect fill="#FFFFFF" height="30.3516" style="stroke:#181818;stroke-width:1.0;" width="10" x="819.5" y="266.7188"/><rect fill="#FFFFFF" height="91.0547" style="stroke:#181818;stroke-width:1.0;" width="10" x="933" y="327.4219"/><rect fill="#FFFFFF" height="30.3516" style="stroke:#181818;stroke-width:1.0;" width="10" x="1125" y="357.7734"/><polygon fill="#181818" points="222.5,110.9609,232.5,114.9609,222.5,118.9609,226.5,114.9609" style="stroke:#181818;stroke-width:1.0;"/><line style="stroke:#181818;stroke-width:1.0;" x1="27.5" x2="228.5" y1="114.9609" y2="114.9609"/><text fill="#000000" font-family="sans-serif" font-size="13" font-weight="bold" lengthAdjust="spacing" textLength="7" x="34.5" y="110.1045">1</text><text fill="#000000" font-family="sans-serif" font-size="13" lengthAdjust="spacing" textLength="114" x="45.5" y="110.1045">opens home screen</text><polygon fill="#181818" points="376.5,141.3125,386.5,145.3125,376.5,149.3125,380.5,145.3125" style="stroke:#181818;stroke-width:1.0;"/><line style="stroke:#181818;stroke-width:1.0;" x1="244.5" x2="382.5" y1="145.3125" y2="145.3125"/><text fill="#000000" font-family="sans-serif" font-size="13" font-weight="bold" lengthAdjust="spacing" textLength="7" x="251.5" y="140.4561">2</text><text fill="#000000" font-family="sans-serif" font-size="13" lengthAdjust="spacing" textLength="111" x="262.5" y="140.4561">mounts component</text><polygon fill="#181818" points="542.5,171.6641,552.5,175.6641,542.5,179.6641,546.5,175.6641" style="stroke:#181818;stroke-width:1.0;"/><line style="stroke:#181818;stroke-width:1.0;" x1="398.5" x2="548.5" y1="175.6641" y2="175.6641"/><text fill="#000000" font-family="sans-serif" font-size="13" font-weight="bold" lengthAdjust="spacing" textLength="7" x="405.5" y="170.8076">3</text><text fill="#000000" font-family="sans-serif" font-size="13" lengthAdjust="spacing" textLength="78" x="416.5" y="170.8076">useWeather()</text><polygon fill="#181818" points="807.5,202.0156,817.5,206.0156,807.5,210.0156,811.5,206.0156" style="stroke:#181818;stroke-width:1.0;"/><line style="stroke:#181818;stroke-width:1.0;" x1="564.5" x2="813.5" y1="206.0156" y2="206.0156"/><text fill="#000000" font-family="sans-serif" font-size="13" font-weight="bold" lengthAdjust="spacing" textLength="7" x="571.5" y="201.1592">4</text><text fill="#000000" font-family="sans-serif" font-size="13" lengthAdjust="spacing" textLength="225" x="582.5" y="201.1592">requestForegroundPermissionsAsync()</text><polygon fill="#181818" points="575.5,232.3672,565.5,236.3672,575.5,240.3672,571.5,236.3672" style="stroke:#181818;stroke-width:1.0;"/><line style="stroke:#181818;stroke-width:1.0;stroke-dasharray:2.0,2.0;" x1="569.5" x2="823.5" y1="236.3672" y2="236.3672"/><text fill="#000000" font-family="sans-serif" font-size="13" font-weight="bold" lengthAdjust="spacing" textLength="7" x="581.5" y="231.5107">5</text><text fill="#000000" font-family="sans-serif" font-size="13" lengthAdjust="spacing" textLength="87" x="592.5" y="231.5107">status: granted</text><polygon fill="#181818" points="807.5,262.7188,817.5,266.7188,807.5,270.7188,811.5,266.7188" style="stroke:#181818;stroke-width:1.0;"/><line style="stroke:#181818;stroke-width:1.0;" x1="564.5" x2="813.5" y1="266.7188" y2="266.7188"/><text fill="#000000" font-family="sans-serif" font-size="13" font-weight="bold" lengthAdjust="spacing" textLength="7" x="571.5" y="261.8623">6</text><text fill="#000000" font-family="sans-serif" font-size="13" lengthAdjust="spacing" textLength="152" x="582.5" y="261.8623">getCurrentPositionAsync()</text><polygon fill="#181818" points="575.5,293.0703,565.5,297.0703,575.5,301.0703,571.5,297.0703" style="stroke:#181818;stroke-width:1.0;"/><line style="stroke:#181818;stroke-width:1.0;stroke-dasharray:2.0,2.0;" x1="569.5" x2="823.5" y1="297.0703" y2="297.0703"/><text fill="#000000" font-family="sans-serif" font-size="13" font-weight="bold" lengthAdjust="spacing" textLength="7" x="581.5" y="292.2139">7</text><text fill="#000000" font-family="sans-serif" font-size="13" lengthAdjust="spacing" textLength="118" x="592.5" y="292.2139">{ latitude, longitude }</text><polygon fill="#181818" points="921,323.4219,931,327.4219,921,331.4219,925,327.4219" style="stroke:#181818;stroke-width:1.0;"/><line style="stroke:#181818;stroke-width:1.0;" x1="564.5" x2="927" y1="327.4219" y2="327.4219"/><text fill="#000000" font-family="sans-serif" font-size="13" font-weight="bold" lengthAdjust="spacing" textLength="7" x="571.5" y="322.5654">8</text><text fill="#000000" font-family="sans-serif" font-size="13" lengthAdjust="spacing" textLength="142" x="582.5" y="322.5654">get('/weather', { lat, lon })</text><polygon fill="#181818" points="1113,353.7734,1123,357.7734,1113,361.7734,1117,357.7734" style="stroke:#181818;stroke-width:1.0;"/><line style="stroke:#181818;stroke-width:1.0;" x1="943" x2="1119" y1="357.7734" y2="357.7734"/><text fill="#000000" font-family="sans-serif" font-size="13" font-weight="bold" lengthAdjust="spacing" textLength="7" x="950" y="352.917">9</text><text fill="#000000" font-family="sans-serif" font-size="13" lengthAdjust="spacing" textLength="130" x="961" y="352.917">GET /data/2.5/weather</text><polygon fill="#181818" points="954,384.125,944,388.125,954,392.125,950,388.125" style="stroke:#181818;stroke-width:1.0;"/><line style="stroke:#181818;stroke-width:1.0;stroke-dasharray:2.0,2.0;" x1="948" x2="1129" y1="388.125" y2="388.125"/><text fill="#000000" font-family="sans-serif" font-size="13" font-weight="bold" lengthAdjust="spacing" textLength="14" x="960" y="383.2686">10</text><text fill="#000000" font-family="sans-serif" font-size="13" lengthAdjust="spacing" textLength="140" x="978" y="383.2686">weather JSON response</text><polygon fill="#181818" points="575.5,414.4766,565.5,418.4766,575.5,422.4766,571.5,418.4766" style="stroke:#181818;stroke-width:1.0;"/><line style="stroke:#181818;stroke-width:1.0;stroke-dasharray:2.0,2.0;" x1="569.5" x2="937" y1="418.4766" y2="418.4766"/><text fill="#000000" font-family="sans-serif" font-size="13" font-weight="bold" lengthAdjust="spacing" textLength="14" x="581.5" y="413.6201">11</text><text fill="#000000" font-family="sans-serif" font-size="13" lengthAdjust="spacing" textLength="25" x="599.5" y="413.6201">data</text><line style="stroke:#181818;stroke-width:1.0;" x1="564.5" x2="606.5" y1="448.8281" y2="448.8281"/><line style="stroke:#181818;stroke-width:1.0;" x1="606.5" x2="606.5" y1="448.8281" y2="461.8281"/><line style="stroke:#181818;stroke-width:1.0;" x1="565.5" x2="606.5" y1="461.8281" y2="461.8281"/><polygon fill="#181818" points="575.5,457.8281,565.5,461.8281,575.5,465.8281,571.5,461.8281" style="stroke:#181818;stroke-width:1.0;"/><text fill="#000000" font-family="sans-serif" font-size="13" font-weight="bold" lengthAdjust="spacing" textLength="14" x="571.5" y="443.9717">12</text><text fill="#000000" font-family="sans-serif" font-size="13" lengthAdjust="spacing" textLength="100" x="589.5" y="443.9717">setWeather(data)</text><polygon fill="#181818" points="409.5,488.1797,399.5,492.1797,409.5,496.1797,405.5,492.1797" style="stroke:#181818;stroke-width:1.0;"/><line style="stroke:#181818;stroke-width:1.0;stroke-dasharray:2.0,2.0;" x1="403.5" x2="558.5" y1="492.1797" y2="492.1797"/><text fill="#000000" font-family="sans-serif" font-size="13" font-weight="bold" lengthAdjust="spacing" textLength="14" x="415.5" y="487.3232">13</text><text fill="#000000" font-family="sans-serif" font-size="13" lengthAdjust="spacing" textLength="45" x="433.5" y="487.3232">weather</text><line style="stroke:#181818;stroke-width:1.0;" x1="398.5" x2="440.5" y1="538.8828" y2="538.8828"/><line style="stroke:#181818;stroke-width:1.0;" x1="440.5" x2="440.5" y1="538.8828" y2="551.8828"/><line style="stroke:#181818;stroke-width:1.0;" x1="399.5" x2="440.5" y1="551.8828" y2="551.8828"/><polygon fill="#181818" points="409.5,547.8828,399.5,551.8828,409.5,555.8828,405.5,551.8828" style="stroke:#181818;stroke-width:1.0;"/><text fill="#000000" font-family="sans-serif" font-size="13" font-weight="bold" lengthAdjust="spacing" textLength="14" x="405.5" y="525.8506">14</text><text fill="#000000" font-family="sans-serif" font-size="13" lengthAdjust="spacing" textLength="78" x="423.5" y="517.6748">re-render with</text><text fill="#000000" font-family="sans-serif" font-size="13" lengthAdjust="spacing" textLength="124" x="423.5" y="534.0264">updated weather data</text><polygon fill="#181818" points="255.5,578.2344,245.5,582.2344,255.5,586.2344,251.5,582.2344" style="stroke:#181818;stroke-width:1.0;"/><line style="stroke:#181818;stroke-width:1.0;stroke-dasharray:2.0,2.0;" x1="249.5" x2="392.5" y1="582.2344" y2="582.2344"/><text fill="#000000" font-family="sans-serif" font-size="13" font-weight="bold" lengthAdjust="spacing" textLength="14" x="261.5" y="577.3779">15</text><text fill="#000000" font-family="sans-serif" font-size="13" lengthAdjust="spacing" textLength="83" x="279.5" y="577.3779">render content</text><polygon fill="#181818" points="33.5,608.5859,23.5,612.5859,33.5,616.5859,29.5,612.5859" style="stroke:#181818;stroke-width:1.0;"/><line style="stroke:#181818;stroke-width:1.0;stroke-dasharray:2.0,2.0;" x1="27.5" x2="238.5" y1="612.5859" y2="612.5859"/><text fill="#000000" font-family="sans-serif" font-size="13" font-weight="bold" lengthAdjust="spacing" textLength="14" x="39.5" y="607.7295">16</text><text fill="#000000" font-family="sans-serif" font-size="13" lengthAdjust="spacing" textLength="165" x="57.5" y="607.7295">displays current weather info</text><!--SRC=[bLDDQzmm4BtxLmnxIGBPB1HwsKCWB6cpfJGBQSWb5yMUx0hMagiPvOEI_zwH9TboFYYvxDhoUs_clHafpzRuzWvTLQcQhOFPDQ6RWI883rMd7EjQTyemp2viYt1LEqGJ4UlfznjKl4DtevijCgnisrc3XdjiF7mNlt7sGJUfwieQngTNmFEdpi9FMolMDfREB-yAhlOwbusFKzHbXoOXuMopxd7otoUW7nHZj1v-O7ugBc49LZW4kn00zG4Ku7Kb404ctqjehJTCKES0HcnAeKfG8IM_mlA4gQl3ev6HywWoK3ZPl90S_l58_Cqwt3efsspGjPf8lj8PFPkwr1f26mJcamw85NjQmjP9JjXK3RwbVj27k5bvvyJinf8EXv-k_XVsSio-mMFOMxFj7-7blrt44SSU3WyMZp73W-Ces6l1IvbeN8b44m6PlR2_d_-6HQDOBRwSVCqg8oiiI03Eoue91J-kBd_9A4Z6JLWs75YvqCHiA5G2KrCJN-DSaFDc1DxHY2gtBhTSgkRb6VTjW3kSoxZasi6ZvjsjyPreOpDuwZiSYFaU94eTXANVebPUxUkOKNzxnAUcRg-UvJB4xHZajRct9LrkKVacx7y0]--></g></svg>