<?xml version="1.0" encoding="us-ascii" standalone="no"?><svg xmlns="http://www.w3.org/2000/svg" xmlns:xlink="http://www.w3.org/1999/xlink" contentStyleType="text/css" height="392px" preserveAspectRatio="none" style="width:542px;height:392px;background:#FFFFFF;" version="1.1" viewBox="0 0 542 392" width="542px" zoomAndPan="magnify"><defs/><g><rect fill="#FFFFFF" height="200.1094" style="stroke:#181818;stroke-width:1.0;" width="10" x="17.5" y="92.6094"/><rect fill="#FFFFFF" height="177.7578" style="stroke:#181818;stroke-width:1.0;" width="10" x="227.5" y="114.9609"/><rect fill="#FFFFFF" height="30.3516" style="stroke:#181818;stroke-width:1.0;" width="10" x="493.5" y="232.0156"/><line style="stroke:#181818;stroke-width:0.5;stroke-dasharray:5.0,5.0;" x1="22" x2="22" y1="82.6094" y2="310.7188"/><line style="stroke:#181818;stroke-width:0.5;stroke-dasharray:5.0,5.0;" x1="232.5" x2="232.5" y1="82.6094" y2="310.7188"/><line style="stroke:#181818;stroke-width:0.5;stroke-dasharray:5.0,5.0;" x1="498" x2="498" y1="82.6094" y2="310.7188"/><text fill="#000000" font-family="sans-serif" font-size="14" lengthAdjust="spacing" textLength="29" x="5" y="79.5332">User</text><ellipse cx="22.5" cy="13.5" fill="#E2E2F0" rx="8" ry="8" style="stroke:#181818;stroke-width:0.5;"/><path d="M22.5,21.5 L22.5,48.5 M9.5,29.5 L35.5,29.5 M22.5,48.5 L9.5,63.5 M22.5,48.5 L35.5,63.5 " fill="none" style="stroke:#181818;stroke-width:0.5;"/><text fill="#000000" font-family="sans-serif" font-size="14" lengthAdjust="spacing" textLength="29" x="5" y="324.252">User</text><ellipse cx="22.5" cy="335.8281" fill="#E2E2F0" rx="8" ry="8" style="stroke:#181818;stroke-width:0.5;"/><path d="M22.5,343.8281 L22.5,370.8281 M9.5,351.8281 L35.5,351.8281 M22.5,370.8281 L9.5,385.8281 M22.5,370.8281 L35.5,385.8281 " fill="none" style="stroke:#181818;stroke-width:0.5;"/><rect fill="#E2E2F0" height="31.6094" rx="2.5" ry="2.5" style="stroke:#181818;stroke-width:0.5;" width="60" x="202.5" y="50"/><text fill="#000000" font-family="sans-serif" font-size="14" lengthAdjust="spacing" textLength="46" x="209.5" y="71.5332">System</text><rect fill="#E2E2F0" height="31.6094" rx="2.5" ry="2.5" style="stroke:#181818;stroke-width:0.5;" width="60" x="202.5" y="309.7188"/><text fill="#000000" font-family="sans-serif" font-size="14" lengthAdjust="spacing" textLength="46" x="209.5" y="331.252">System</text><text fill="#000000" font-family="sans-serif" font-size="14" lengthAdjust="spacing" textLength="79" x="456" y="79.5332">Weather API</text><ellipse cx="498.5" cy="13.5" fill="#E2E2F0" rx="8" ry="8" style="stroke:#181818;stroke-width:0.5;"/><path d="M498.5,21.5 L498.5,48.5 M485.5,29.5 L511.5,29.5 M498.5,48.5 L485.5,63.5 M498.5,48.5 L511.5,63.5 " fill="none" style="stroke:#181818;stroke-width:0.5;"/><text fill="#000000" font-family="sans-serif" font-size="14" lengthAdjust="spacing" textLength="79" x="456" y="324.252">Weather API</text><ellipse cx="498.5" cy="335.8281" fill="#E2E2F0" rx="8" ry="8" style="stroke:#181818;stroke-width:0.5;"/><path d="M498.5,343.8281 L498.5,370.8281 M485.5,351.8281 L511.5,351.8281 M498.5,370.8281 L485.5,385.8281 M498.5,370.8281 L511.5,385.8281 " fill="none" style="stroke:#181818;stroke-width:0.5;"/><rect fill="#FFFFFF" height="200.1094" style="stroke:#181818;stroke-width:1.0;" width="10" x="17.5" y="92.6094"/><rect fill="#FFFFFF" height="177.7578" style="stroke:#181818;stroke-width:1.0;" width="10" x="227.5" y="114.9609"/><rect fill="#FFFFFF" height="30.3516" style="stroke:#181818;stroke-width:1.0;" width="10" x="493.5" y="232.0156"/><polygon fill="#181818" points="215.5,110.9609,225.5,114.9609,215.5,118.9609,219.5,114.9609" style="stroke:#181818;stroke-width:1.0;"/><line style="stroke:#181818;stroke-width:1.0;" x1="27.5" x2="221.5" y1="114.9609" y2="114.9609"/><text fill="#000000" font-family="sans-serif" font-size="13" font-weight="bold" lengthAdjust="spacing" textLength="7" x="34.5" y="110.1045">1</text><text fill="#000000" font-family="sans-serif" font-size="13" lengthAdjust="spacing" textLength="123" x="45.5" y="110.1045">requests weather info</text><line style="stroke:#181818;stroke-width:1.0;" x1="237.5" x2="279.5" y1="145.3125" y2="145.3125"/><line style="stroke:#181818;stroke-width:1.0;" x1="279.5" x2="279.5" y1="145.3125" y2="158.3125"/><line style="stroke:#181818;stroke-width:1.0;" x1="238.5" x2="279.5" y1="158.3125" y2="158.3125"/><polygon fill="#181818" points="248.5,154.3125,238.5,158.3125,248.5,162.3125,244.5,158.3125" style="stroke:#181818;stroke-width:1.0;"/><text fill="#000000" font-family="sans-serif" font-size="13" font-weight="bold" lengthAdjust="spacing" textLength="7" x="244.5" y="140.4561">2</text><text fill="#000000" font-family="sans-serif" font-size="13" lengthAdjust="spacing" textLength="165" x="255.5" y="140.4561">checks location permissions</text><line style="stroke:#181818;stroke-width:1.0;" x1="237.5" x2="279.5" y1="188.6641" y2="188.6641"/><line style="stroke:#181818;stroke-width:1.0;" x1="279.5" x2="279.5" y1="188.6641" y2="201.6641"/><line style="stroke:#181818;stroke-width:1.0;" x1="238.5" x2="279.5" y1="201.6641" y2="201.6641"/><polygon fill="#181818" points="248.5,197.6641,238.5,201.6641,248.5,205.6641,244.5,201.6641" style="stroke:#181818;stroke-width:1.0;"/><text fill="#000000" font-family="sans-serif" font-size="13" font-weight="bold" lengthAdjust="spacing" textLength="7" x="244.5" y="183.8076">3</text><text fill="#000000" font-family="sans-serif" font-size="13" lengthAdjust="spacing" textLength="141" x="255.5" y="183.8076">retrieves current location</text><polygon fill="#181818" points="481.5,228.0156,491.5,232.0156,481.5,236.0156,485.5,232.0156" style="stroke:#181818;stroke-width:1.0;"/><line style="stroke:#181818;stroke-width:1.0;" x1="237.5" x2="487.5" y1="232.0156" y2="232.0156"/><text fill="#000000" font-family="sans-serif" font-size="13" font-weight="bold" lengthAdjust="spacing" textLength="7" x="244.5" y="227.1592">4</text><text fill="#000000" font-family="sans-serif" font-size="13" lengthAdjust="spacing" textLength="226" x="255.5" y="227.1592">requests weather data with coordinates</text><polygon fill="#181818" points="248.5,258.3672,238.5,262.3672,248.5,266.3672,244.5,262.3672" style="stroke:#181818;stroke-width:1.0;"/><line style="stroke:#181818;stroke-width:1.0;stroke-dasharray:2.0,2.0;" x1="242.5" x2="497.5" y1="262.3672" y2="262.3672"/><text fill="#000000" font-family="sans-serif" font-size="13" font-weight="bold" lengthAdjust="spacing" textLength="7" x="254.5" y="257.5107">5</text><text fill="#000000" font-family="sans-serif" font-size="13" lengthAdjust="spacing" textLength="118" x="265.5" y="257.5107">returns weather data</text><polygon fill="#181818" points="33.5,288.7188,23.5,292.7188,33.5,296.7188,29.5,292.7188" style="stroke:#181818;stroke-width:1.0;"/><line style="stroke:#181818;stroke-width:1.0;stroke-dasharray:2.0,2.0;" x1="27.5" x2="231.5" y1="292.7188" y2="292.7188"/><text fill="#000000" font-family="sans-serif" font-size="13" font-weight="bold" lengthAdjust="spacing" textLength="7" x="39.5" y="287.8623">6</text><text fill="#000000" font-family="sans-serif" font-size="13" lengthAdjust="spacing" textLength="165" x="50.5" y="287.8623">displays current weather info</text><!--SRC=[RP2nhi8m34NtV8NLdHzWU18Z6n92p2OrgWLD-cm7nD-Jb41Rn99Oji_rjJ5P3Aa_aJY7tg90Sr2I1b2X16v0CVOyO31ezWyrwiVYAtmpHqBhI62psuxL_8zwV4EZbr1vOFLNGLY3q7yYDOLxXJcSumJL0QxspqdVaRyeNAD7unXW8EbPDOVwgrt8XEb62Zw9K5xaJSxLi-LVfbeqX3jR1pv6QJbaRpgvB8iMSlKrC4bOQhYM5j1dSWR7qwoXPHsk-9XiBWupu-jfPfcYy0G0]--></g></svg>