<?xml version="1.0" encoding="us-ascii" standalone="no"?><svg xmlns="http://www.w3.org/2000/svg" xmlns:xlink="http://www.w3.org/1999/xlink" contentStyleType="text/css" height="483px" preserveAspectRatio="none" style="width:888px;height:483px;background:#FFFFFF;" version="1.1" viewBox="0 0 888 483" width="888px" zoomAndPan="magnify"><defs/><g><rect fill="#FFFFFF" height="300.1641" style="stroke:#181818;stroke-width:1.0;" width="10" x="17.5" y="92.6094"/><rect fill="#FFFFFF" height="268.8125" style="stroke:#181818;stroke-width:1.0;" width="10" x="280.5" y="114.9609"/><rect fill="#FFFFFF" height="208.1094" style="stroke:#181818;stroke-width:1.0;" width="10" x="473.5" y="145.3125"/><rect fill="#FFFFFF" height="104.0547" style="stroke:#181818;stroke-width:1.0;" width="10" x="651.5" y="175.6641"/><line style="stroke:#181818;stroke-width:0.5;stroke-dasharray:5.0,5.0;" x1="22" x2="22" y1="82.6094" y2="401.7734"/><line style="stroke:#181818;stroke-width:0.5;stroke-dasharray:5.0,5.0;" x1="285.5" x2="285.5" y1="82.6094" y2="401.7734"/><line style="stroke:#181818;stroke-width:0.5;stroke-dasharray:5.0,5.0;" x1="478" x2="478" y1="82.6094" y2="401.7734"/><line style="stroke:#181818;stroke-width:0.5;stroke-dasharray:5.0,5.0;" x1="656" x2="656" y1="82.6094" y2="401.7734"/><text fill="#000000" font-family="sans-serif" font-size="14" lengthAdjust="spacing" textLength="29" x="5" y="79.5332">User</text><ellipse cx="22.5" cy="13.5" fill="#E2E2F0" rx="8" ry="8" style="stroke:#181818;stroke-width:0.5;"/><path d="M22.5,21.5 L22.5,48.5 M9.5,29.5 L35.5,29.5 M22.5,48.5 L9.5,63.5 M22.5,48.5 L35.5,63.5 " fill="none" style="stroke:#181818;stroke-width:0.5;"/><text fill="#000000" font-family="sans-serif" font-size="14" lengthAdjust="spacing" textLength="29" x="5" y="415.3066">User</text><ellipse cx="22.5" cy="426.8828" fill="#E2E2F0" rx="8" ry="8" style="stroke:#181818;stroke-width:0.5;"/><path d="M22.5,434.8828 L22.5,461.8828 M9.5,442.8828 L35.5,442.8828 M22.5,461.8828 L9.5,476.8828 M22.5,461.8828 L35.5,476.8828 " fill="none" style="stroke:#181818;stroke-width:0.5;"/><rect fill="#E2E2F0" height="31.6094" rx="2.5" ry="2.5" style="stroke:#181818;stroke-width:0.5;" width="102" x="234.5" y="50"/><text fill="#000000" font-family="sans-serif" font-size="14" lengthAdjust="spacing" textLength="88" x="241.5" y="71.5332">User Interface</text><rect fill="#E2E2F0" height="31.6094" rx="2.5" ry="2.5" style="stroke:#181818;stroke-width:0.5;" width="102" x="234.5" y="400.7734"/><text fill="#000000" font-family="sans-serif" font-size="14" lengthAdjust="spacing" textLength="88" x="241.5" y="422.3066">User Interface</text><rect fill="#E2E2F0" height="31.6094" rx="2.5" ry="2.5" style="stroke:#181818;stroke-width:0.5;" width="103" x="427" y="50"/><text fill="#000000" font-family="sans-serif" font-size="14" lengthAdjust="spacing" textLength="89" x="434" y="71.5332">NotesProvider</text><rect fill="#E2E2F0" height="31.6094" rx="2.5" ry="2.5" style="stroke:#181818;stroke-width:0.5;" width="103" x="427" y="400.7734"/><text fill="#000000" font-family="sans-serif" font-size="14" lengthAdjust="spacing" textLength="89" x="434" y="422.3066">NotesProvider</text><rect fill="#E2E2F0" height="31.6094" rx="2.5" ry="2.5" style="stroke:#181818;stroke-width:0.5;" width="75" x="619" y="50"/><text fill="#000000" font-family="sans-serif" font-size="14" lengthAdjust="spacing" textLength="61" x="626" y="71.5332">Database</text><rect fill="#E2E2F0" height="31.6094" rx="2.5" ry="2.5" style="stroke:#181818;stroke-width:0.5;" width="75" x="619" y="400.7734"/><text fill="#000000" font-family="sans-serif" font-size="14" lengthAdjust="spacing" textLength="61" x="626" y="422.3066">Database</text><rect fill="#FFFFFF" height="300.1641" style="stroke:#181818;stroke-width:1.0;" width="10" x="17.5" y="92.6094"/><rect fill="#FFFFFF" height="268.8125" style="stroke:#181818;stroke-width:1.0;" width="10" x="280.5" y="114.9609"/><rect fill="#FFFFFF" height="208.1094" style="stroke:#181818;stroke-width:1.0;" width="10" x="473.5" y="145.3125"/><rect fill="#FFFFFF" height="104.0547" style="stroke:#181818;stroke-width:1.0;" width="10" x="651.5" y="175.6641"/><polygon fill="#181818" points="268.5,110.9609,278.5,114.9609,268.5,118.9609,272.5,114.9609" style="stroke:#181818;stroke-width:1.0;"/><line style="stroke:#181818;stroke-width:1.0;" x1="27.5" x2="274.5" y1="114.9609" y2="114.9609"/><text fill="#000000" font-family="sans-serif" font-size="13" font-weight="bold" lengthAdjust="spacing" textLength="7" x="34.5" y="110.1045">1</text><text fill="#000000" font-family="sans-serif" font-size="13" lengthAdjust="spacing" textLength="58" x="45.5" y="110.1045">Open App</text><polygon fill="#181818" points="461.5,141.3125,471.5,145.3125,461.5,149.3125,465.5,145.3125" style="stroke:#181818;stroke-width:1.0;"/><line style="stroke:#181818;stroke-width:1.0;" x1="290.5" x2="467.5" y1="145.3125" y2="145.3125"/><text fill="#000000" font-family="sans-serif" font-size="13" font-weight="bold" lengthAdjust="spacing" textLength="7" x="297.5" y="140.4561">2</text><text fill="#000000" font-family="sans-serif" font-size="13" lengthAdjust="spacing" textLength="153" x="308.5" y="140.4561">useContext(NotesContext)</text><polygon fill="#181818" points="639.5,171.6641,649.5,175.6641,639.5,179.6641,643.5,175.6641" style="stroke:#181818;stroke-width:1.0;"/><line style="stroke:#181818;stroke-width:1.0;" x1="483.5" x2="645.5" y1="175.6641" y2="175.6641"/><text fill="#000000" font-family="sans-serif" font-size="13" font-weight="bold" lengthAdjust="spacing" textLength="7" x="490.5" y="170.8076">3</text><text fill="#000000" font-family="sans-serif" font-size="13" lengthAdjust="spacing" textLength="25" x="501.5" y="170.8076">init()</text><line style="stroke:#181818;stroke-width:1.0;" x1="661.5" x2="703.5" y1="206.0156" y2="206.0156"/><line style="stroke:#181818;stroke-width:1.0;" x1="703.5" x2="703.5" y1="206.0156" y2="219.0156"/><line style="stroke:#181818;stroke-width:1.0;" x1="662.5" x2="703.5" y1="219.0156" y2="219.0156"/><polygon fill="#181818" points="672.5,215.0156,662.5,219.0156,672.5,223.0156,668.5,219.0156" style="stroke:#181818;stroke-width:1.0;"/><text fill="#000000" font-family="sans-serif" font-size="13" font-weight="bold" lengthAdjust="spacing" textLength="7" x="668.5" y="201.1592">4</text><text fill="#000000" font-family="sans-serif" font-size="13" lengthAdjust="spacing" textLength="202" x="679.5" y="201.1592">CREATE TABLE IF NOT EXISTS...</text><polygon fill="#181818" points="639.5,245.3672,649.5,249.3672,639.5,253.3672,643.5,249.3672" style="stroke:#181818;stroke-width:1.0;"/><line style="stroke:#181818;stroke-width:1.0;" x1="483.5" x2="645.5" y1="249.3672" y2="249.3672"/><text fill="#000000" font-family="sans-serif" font-size="13" font-weight="bold" lengthAdjust="spacing" textLength="7" x="490.5" y="244.5107">5</text><text fill="#000000" font-family="sans-serif" font-size="13" lengthAdjust="spacing" textLength="60" x="501.5" y="244.5107">getNotes()</text><polygon fill="#181818" points="494.5,275.7188,484.5,279.7188,494.5,283.7188,490.5,279.7188" style="stroke:#181818;stroke-width:1.0;"/><line style="stroke:#181818;stroke-width:1.0;stroke-dasharray:2.0,2.0;" x1="488.5" x2="655.5" y1="279.7188" y2="279.7188"/><text fill="#000000" font-family="sans-serif" font-size="13" font-weight="bold" lengthAdjust="spacing" textLength="7" x="500.5" y="274.8623">6</text><text fill="#000000" font-family="sans-serif" font-size="13" lengthAdjust="spacing" textLength="75" x="511.5" y="274.8623">notes: Note[]</text><line style="stroke:#181818;stroke-width:1.0;" x1="483.5" x2="525.5" y1="310.0703" y2="310.0703"/><line style="stroke:#181818;stroke-width:1.0;" x1="525.5" x2="525.5" y1="310.0703" y2="323.0703"/><line style="stroke:#181818;stroke-width:1.0;" x1="484.5" x2="525.5" y1="323.0703" y2="323.0703"/><polygon fill="#181818" points="494.5,319.0703,484.5,323.0703,494.5,327.0703,490.5,323.0703" style="stroke:#181818;stroke-width:1.0;"/><text fill="#000000" font-family="sans-serif" font-size="13" font-weight="bold" lengthAdjust="spacing" textLength="7" x="490.5" y="305.2139">7</text><text fill="#000000" font-family="sans-serif" font-size="13" lengthAdjust="spacing" textLength="143" x="501.5" y="305.2139">dispatch("SET_NOTES")</text><polygon fill="#181818" points="301.5,349.4219,291.5,353.4219,301.5,357.4219,297.5,353.4219" style="stroke:#181818;stroke-width:1.0;"/><line style="stroke:#181818;stroke-width:1.0;stroke-dasharray:2.0,2.0;" x1="295.5" x2="477.5" y1="353.4219" y2="353.4219"/><text fill="#000000" font-family="sans-serif" font-size="13" font-weight="bold" lengthAdjust="spacing" textLength="7" x="307.5" y="348.5654">8</text><text fill="#000000" font-family="sans-serif" font-size="13" lengthAdjust="spacing" textLength="85" x="318.5" y="348.5654">return { notes }</text><polygon fill="#181818" points="38.5,379.7734,28.5,383.7734,38.5,387.7734,34.5,383.7734" style="stroke:#181818;stroke-width:1.0;"/><line style="stroke:#181818;stroke-width:1.0;stroke-dasharray:2.0,2.0;" x1="32.5" x2="284.5" y1="383.7734" y2="383.7734"/><text fill="#000000" font-family="sans-serif" font-size="13" font-weight="bold" lengthAdjust="spacing" textLength="7" x="44.5" y="378.917">9</text><text fill="#000000" font-family="sans-serif" font-size="13" lengthAdjust="spacing" textLength="218" x="55.5" y="378.917">component with notes data re-renders</text><!--SRC=[PP5DQiCm48NtEiNWbRD83k15mOvTC9Iar2uKIYcAFMcqY2IaSLeelNl7VxLCTvBclU-DPcH7HdVN4peXP4F6GVJiqKKWFVG7OQKZrIWhDOqbA3MXEyi6Hr6vbXmCeNzqvgRQ2RCtRFYYjIoN94_IZumy6yBLJHAEgKFGzexfaC3HeeRKsa1J2i4b5anmLdKUfqiyz31TDejhRaJC9lRd6LkLLXG7Gkw7t-Vg_gb8wmBgD7ieeBo7mx66ugMiwcgts_s7VI0D-GmSAAicTLz9e1UyleaMmyYGj3XQvQsavX97LL6_StPHHPj5Ei_88NLEm_UO03yX- -_V_SXwGp_S11fpjKOZR-DJqMKojhmNXcqTQjwV3p4yz5y0]--></g></svg>