<?xml version="1.0" encoding="us-ascii" standalone="no"?><svg xmlns="http://www.w3.org/2000/svg" xmlns:xlink="http://www.w3.org/1999/xlink" contentStyleType="text/css" height="820px" preserveAspectRatio="none" style="width:1009px;height:820px;background:#FFFFFF;" version="1.1" viewBox="0 0 1009 820" width="1009px" zoomAndPan="magnify"><defs/><g><rect fill="#FFFFFF" height="636.3828" style="stroke:#181818;stroke-width:1.0;" width="10" x="17.5" y="92.6094"/><rect fill="#FFFFFF" height="605.0313" style="stroke:#181818;stroke-width:1.0;" width="10" x="248.5" y="114.9609"/><rect fill="#FFFFFF" height="90.0547" style="stroke:#181818;stroke-width:1.0;" width="10" x="464.5" y="145.3125"/><rect fill="#FFFFFF" height="377.2188" style="stroke:#181818;stroke-width:1.0;" width="10" x="464.5" y="312.4219"/><rect fill="#FFFFFF" height="91.0547" style="stroke:#181818;stroke-width:1.0;" width="10" x="680.5" y="342.7734"/><rect fill="#FFFFFF" height="91.0547" style="stroke:#181818;stroke-width:1.0;" width="10" x="680.5" y="464.1797"/><rect fill="#FFFFFF" height="30.3516" style="stroke:#181818;stroke-width:1.0;" width="10" x="852.5" y="282.0703"/><rect fill="#FFFFFF" height="30.3516" style="stroke:#181818;stroke-width:1.0;" width="10" x="852.5" y="373.125"/><rect fill="#FFFFFF" height="30.3516" style="stroke:#181818;stroke-width:1.0;" width="10" x="852.5" y="494.5313"/><rect fill="#FFFFFF" height="30.3516" style="stroke:#181818;stroke-width:1.0;" width="10" x="952" y="585.5859"/><line style="stroke:#181818;stroke-width:0.5;stroke-dasharray:5.0,5.0;" x1="22" x2="22" y1="82.6094" y2="737.9922"/><line style="stroke:#181818;stroke-width:0.5;stroke-dasharray:5.0,5.0;" x1="253.5" x2="253.5" y1="82.6094" y2="737.9922"/><line style="stroke:#181818;stroke-width:0.5;stroke-dasharray:5.0,5.0;" x1="469.5" x2="469.5" y1="82.6094" y2="737.9922"/><line style="stroke:#181818;stroke-width:0.5;stroke-dasharray:5.0,5.0;" x1="685" x2="685" y1="82.6094" y2="737.9922"/><line style="stroke:#181818;stroke-width:0.5;stroke-dasharray:5.0,5.0;" x1="857.5" x2="857.5" y1="82.6094" y2="737.9922"/><line style="stroke:#181818;stroke-width:0.5;stroke-dasharray:5.0,5.0;" x1="956.5" x2="956.5" y1="82.6094" y2="737.9922"/><text fill="#000000" font-family="sans-serif" font-size="14" lengthAdjust="spacing" textLength="29" x="5" y="79.5332">User</text><ellipse cx="22.5" cy="13.5" fill="#E2E2F0" rx="8" ry="8" style="stroke:#181818;stroke-width:0.5;"/><path d="M22.5,21.5 L22.5,48.5 M9.5,29.5 L35.5,29.5 M22.5,48.5 L9.5,63.5 M22.5,48.5 L35.5,63.5 " fill="none" style="stroke:#181818;stroke-width:0.5;"/><text fill="#000000" font-family="sans-serif" font-size="14" lengthAdjust="spacing" textLength="29" x="5" y="751.5254">User</text><ellipse cx="22.5" cy="763.1016" fill="#E2E2F0" rx="8" ry="8" style="stroke:#181818;stroke-width:0.5;"/><path d="M22.5,771.1016 L22.5,798.1016 M9.5,779.1016 L35.5,779.1016 M22.5,798.1016 L9.5,813.1016 M22.5,798.1016 L35.5,813.1016 " fill="none" style="stroke:#181818;stroke-width:0.5;"/><rect fill="#E2E2F0" height="31.6094" rx="2.5" ry="2.5" style="stroke:#181818;stroke-width:0.5;" width="114" x="196.5" y="50"/><text fill="#000000" font-family="sans-serif" font-size="14" lengthAdjust="spacing" textLength="100" x="203.5" y="71.5332">Settings Screen</text><rect fill="#E2E2F0" height="31.6094" rx="2.5" ry="2.5" style="stroke:#181818;stroke-width:0.5;" width="114" x="196.5" y="736.9922"/><text fill="#000000" font-family="sans-serif" font-size="14" lengthAdjust="spacing" textLength="100" x="203.5" y="758.5254">Settings Screen</text><rect fill="#E2E2F0" height="31.6094" rx="2.5" ry="2.5" style="stroke:#181818;stroke-width:0.5;" width="96" x="421.5" y="50"/><text fill="#000000" font-family="sans-serif" font-size="14" lengthAdjust="spacing" textLength="82" x="428.5" y="71.5332">AuthProvider</text><rect fill="#E2E2F0" height="31.6094" rx="2.5" ry="2.5" style="stroke:#181818;stroke-width:0.5;" width="96" x="421.5" y="736.9922"/><text fill="#000000" font-family="sans-serif" font-size="14" lengthAdjust="spacing" textLength="82" x="428.5" y="758.5254">AuthProvider</text><rect fill="#E2E2F0" height="31.6094" rx="2.5" ry="2.5" style="stroke:#181818;stroke-width:0.5;" width="97" x="637" y="50"/><text fill="#000000" font-family="sans-serif" font-size="14" lengthAdjust="spacing" textLength="83" x="644" y="71.5332">TodoistClient</text><rect fill="#E2E2F0" height="31.6094" rx="2.5" ry="2.5" style="stroke:#181818;stroke-width:0.5;" width="97" x="637" y="736.9922"/><text fill="#000000" font-family="sans-serif" font-size="14" lengthAdjust="spacing" textLength="83" x="644" y="758.5254">TodoistClient</text><rect fill="#E2E2F0" height="31.6094" rx="2.5" ry="2.5" style="stroke:#181818;stroke-width:0.5;" width="86" x="814.5" y="50"/><text fill="#000000" font-family="sans-serif" font-size="14" lengthAdjust="spacing" textLength="72" x="821.5" y="71.5332">Todoist API</text><rect fill="#E2E2F0" height="31.6094" rx="2.5" ry="2.5" style="stroke:#181818;stroke-width:0.5;" width="86" x="814.5" y="736.9922"/><text fill="#000000" font-family="sans-serif" font-size="14" lengthAdjust="spacing" textLength="72" x="821.5" y="758.5254">Todoist API</text><rect fill="#E2E2F0" height="31.6094" rx="2.5" ry="2.5" style="stroke:#181818;stroke-width:0.5;" width="93" x="910.5" y="50"/><text fill="#000000" font-family="sans-serif" font-size="14" lengthAdjust="spacing" textLength="79" x="917.5" y="71.5332">SecureStore</text><rect fill="#E2E2F0" height="31.6094" rx="2.5" ry="2.5" style="stroke:#181818;stroke-width:0.5;" width="93" x="910.5" y="736.9922"/><text fill="#000000" font-family="sans-serif" font-size="14" lengthAdjust="spacing" textLength="79" x="917.5" y="758.5254">SecureStore</text><rect fill="#FFFFFF" height="636.3828" style="stroke:#181818;stroke-width:1.0;" width="10" x="17.5" y="92.6094"/><rect fill="#FFFFFF" height="605.0313" style="stroke:#181818;stroke-width:1.0;" width="10" x="248.5" y="114.9609"/><rect fill="#FFFFFF" height="90.0547" style="stroke:#181818;stroke-width:1.0;" width="10" x="464.5" y="145.3125"/><rect fill="#FFFFFF" height="377.2188" style="stroke:#181818;stroke-width:1.0;" width="10" x="464.5" y="312.4219"/><rect fill="#FFFFFF" height="91.0547" style="stroke:#181818;stroke-width:1.0;" width="10" x="680.5" y="342.7734"/><rect fill="#FFFFFF" height="91.0547" style="stroke:#181818;stroke-width:1.0;" width="10" x="680.5" y="464.1797"/><rect fill="#FFFFFF" height="30.3516" style="stroke:#181818;stroke-width:1.0;" width="10" x="852.5" y="282.0703"/><rect fill="#FFFFFF" height="30.3516" style="stroke:#181818;stroke-width:1.0;" width="10" x="852.5" y="373.125"/><rect fill="#FFFFFF" height="30.3516" style="stroke:#181818;stroke-width:1.0;" width="10" x="852.5" y="494.5313"/><rect fill="#FFFFFF" height="30.3516" style="stroke:#181818;stroke-width:1.0;" width="10" x="952" y="585.5859"/><polygon fill="#181818" points="236.5,110.9609,246.5,114.9609,236.5,118.9609,240.5,114.9609" style="stroke:#181818;stroke-width:1.0;"/><line style="stroke:#181818;stroke-width:1.0;" x1="27.5" x2="242.5" y1="114.9609" y2="114.9609"/><text fill="#000000" font-family="sans-serif" font-size="13" font-weight="bold" lengthAdjust="spacing" textLength="7" x="34.5" y="110.1045">1</text><text fill="#000000" font-family="sans-serif" font-size="13" lengthAdjust="spacing" textLength="190" x="45.5" y="110.1045">press "Login with Todoist" button</text><polygon fill="#181818" points="452.5,141.3125,462.5,145.3125,452.5,149.3125,456.5,145.3125" style="stroke:#181818;stroke-width:1.0;"/><line style="stroke:#181818;stroke-width:1.0;" x1="258.5" x2="458.5" y1="145.3125" y2="145.3125"/><text fill="#000000" font-family="sans-serif" font-size="13" font-weight="bold" lengthAdjust="spacing" textLength="7" x="265.5" y="140.4561">2</text><text fill="#000000" font-family="sans-serif" font-size="13" lengthAdjust="spacing" textLength="35" x="276.5" y="140.4561">login()</text><line style="stroke:#181818;stroke-width:1.0;" x1="474.5" x2="516.5" y1="175.6641" y2="175.6641"/><line style="stroke:#181818;stroke-width:1.0;" x1="516.5" x2="516.5" y1="175.6641" y2="188.6641"/><line style="stroke:#181818;stroke-width:1.0;" x1="475.5" x2="516.5" y1="188.6641" y2="188.6641"/><polygon fill="#181818" points="485.5,184.6641,475.5,188.6641,485.5,192.6641,481.5,188.6641" style="stroke:#181818;stroke-width:1.0;"/><text fill="#000000" font-family="sans-serif" font-size="13" font-weight="bold" lengthAdjust="spacing" textLength="7" x="481.5" y="170.8076">3</text><text fill="#000000" font-family="sans-serif" font-size="13" lengthAdjust="spacing" textLength="181" x="492.5" y="170.8076">prompts authentication session</text><polygon fill="#181818" points="38.5,231.3672,28.5,235.3672,38.5,239.3672,34.5,235.3672" style="stroke:#181818;stroke-width:1.0;"/><line style="stroke:#181818;stroke-width:1.0;stroke-dasharray:2.0,2.0;" x1="32.5" x2="468.5" y1="235.3672" y2="235.3672"/><text fill="#000000" font-family="sans-serif" font-size="13" font-weight="bold" lengthAdjust="spacing" textLength="7" x="44.5" y="222.335">4</text><text fill="#000000" font-family="sans-serif" font-size="13" lengthAdjust="spacing" textLength="79" x="55.5" y="214.1592">redirects user</text><text fill="#000000" font-family="sans-serif" font-size="13" lengthAdjust="spacing" textLength="102" x="55.5" y="230.5107">to oauth webpage</text><polygon fill="#181818" points="840.5,278.0703,850.5,282.0703,840.5,286.0703,844.5,282.0703" style="stroke:#181818;stroke-width:1.0;"/><line style="stroke:#181818;stroke-width:1.0;" x1="27.5" x2="846.5" y1="282.0703" y2="282.0703"/><text fill="#000000" font-family="sans-serif" font-size="13" font-weight="bold" lengthAdjust="spacing" textLength="7" x="34.5" y="269.0381">5</text><text fill="#000000" font-family="sans-serif" font-size="13" lengthAdjust="spacing" textLength="103" x="45.5" y="260.8623">enters credentials</text><text fill="#000000" font-family="sans-serif" font-size="13" lengthAdjust="spacing" textLength="110" x="45.5" y="277.2139">and authorizes app</text><polygon fill="#181818" points="485.5,308.4219,475.5,312.4219,485.5,316.4219,481.5,312.4219" style="stroke:#181818;stroke-width:1.0;"/><line style="stroke:#181818;stroke-width:1.0;stroke-dasharray:2.0,2.0;" x1="479.5" x2="856.5" y1="312.4219" y2="312.4219"/><text fill="#000000" font-family="sans-serif" font-size="13" font-weight="bold" lengthAdjust="spacing" textLength="7" x="491.5" y="307.5654">6</text><text fill="#000000" font-family="sans-serif" font-size="13" lengthAdjust="spacing" textLength="219" x="502.5" y="307.5654">redirects back with authorization code</text><polygon fill="#181818" points="668.5,338.7734,678.5,342.7734,668.5,346.7734,672.5,342.7734" style="stroke:#181818;stroke-width:1.0;"/><line style="stroke:#181818;stroke-width:1.0;" x1="474.5" x2="674.5" y1="342.7734" y2="342.7734"/><text fill="#000000" font-family="sans-serif" font-size="13" font-weight="bold" lengthAdjust="spacing" textLength="7" x="481.5" y="337.917">7</text><text fill="#000000" font-family="sans-serif" font-size="13" lengthAdjust="spacing" textLength="157" x="492.5" y="337.917">post(token_endpoint, code)</text><polygon fill="#181818" points="840.5,369.125,850.5,373.125,840.5,377.125,844.5,373.125" style="stroke:#181818;stroke-width:1.0;"/><line style="stroke:#181818;stroke-width:1.0;" x1="690.5" x2="846.5" y1="373.125" y2="373.125"/><text fill="#000000" font-family="sans-serif" font-size="13" font-weight="bold" lengthAdjust="spacing" textLength="7" x="697.5" y="368.2686">8</text><text fill="#000000" font-family="sans-serif" font-size="13" lengthAdjust="spacing" textLength="132" x="708.5" y="368.2686">requests access token</text><polygon fill="#181818" points="701.5,399.4766,691.5,403.4766,701.5,407.4766,697.5,403.4766" style="stroke:#181818;stroke-width:1.0;"/><line style="stroke:#181818;stroke-width:1.0;stroke-dasharray:2.0,2.0;" x1="695.5" x2="856.5" y1="403.4766" y2="403.4766"/><text fill="#000000" font-family="sans-serif" font-size="13" font-weight="bold" lengthAdjust="spacing" textLength="7" x="707.5" y="398.6201">9</text><text fill="#000000" font-family="sans-serif" font-size="13" lengthAdjust="spacing" textLength="122" x="718.5" y="398.6201">returns access token</text><polygon fill="#181818" points="485.5,429.8281,475.5,433.8281,485.5,437.8281,481.5,433.8281" style="stroke:#181818;stroke-width:1.0;"/><line style="stroke:#181818;stroke-width:1.0;stroke-dasharray:2.0,2.0;" x1="479.5" x2="684.5" y1="433.8281" y2="433.8281"/><text fill="#000000" font-family="sans-serif" font-size="13" font-weight="bold" lengthAdjust="spacing" textLength="14" x="491.5" y="428.9717">10</text><text fill="#000000" font-family="sans-serif" font-size="13" lengthAdjust="spacing" textLength="105" x="509.5" y="428.9717">returns token data</text><polygon fill="#181818" points="668.5,460.1797,678.5,464.1797,668.5,468.1797,672.5,464.1797" style="stroke:#181818;stroke-width:1.0;"/><line style="stroke:#181818;stroke-width:1.0;" x1="474.5" x2="674.5" y1="464.1797" y2="464.1797"/><text fill="#000000" font-family="sans-serif" font-size="13" font-weight="bold" lengthAdjust="spacing" textLength="14" x="481.5" y="459.3232">11</text><text fill="#000000" font-family="sans-serif" font-size="13" lengthAdjust="spacing" textLength="107" x="499.5" y="459.3232">get(user_endpoint)</text><polygon fill="#181818" points="840.5,490.5313,850.5,494.5313,840.5,498.5313,844.5,494.5313" style="stroke:#181818;stroke-width:1.0;"/><line style="stroke:#181818;stroke-width:1.0;" x1="690.5" x2="846.5" y1="494.5313" y2="494.5313"/><text fill="#000000" font-family="sans-serif" font-size="13" font-weight="bold" lengthAdjust="spacing" textLength="14" x="697.5" y="489.6748">12</text><text fill="#000000" font-family="sans-serif" font-size="13" lengthAdjust="spacing" textLength="117" x="715.5" y="489.6748">requests user profile</text><polygon fill="#181818" points="701.5,520.8828,691.5,524.8828,701.5,528.8828,697.5,524.8828" style="stroke:#181818;stroke-width:1.0;"/><line style="stroke:#181818;stroke-width:1.0;stroke-dasharray:2.0,2.0;" x1="695.5" x2="856.5" y1="524.8828" y2="524.8828"/><text fill="#000000" font-family="sans-serif" font-size="13" font-weight="bold" lengthAdjust="spacing" textLength="14" x="707.5" y="520.0264">13</text><text fill="#000000" font-family="sans-serif" font-size="13" lengthAdjust="spacing" textLength="107" x="725.5" y="520.0264">returns user profile</text><polygon fill="#181818" points="485.5,551.2344,475.5,555.2344,485.5,559.2344,481.5,555.2344" style="stroke:#181818;stroke-width:1.0;"/><line style="stroke:#181818;stroke-width:1.0;stroke-dasharray:2.0,2.0;" x1="479.5" x2="684.5" y1="555.2344" y2="555.2344"/><text fill="#000000" font-family="sans-serif" font-size="13" font-weight="bold" lengthAdjust="spacing" textLength="14" x="491.5" y="550.3779">14</text><text fill="#000000" font-family="sans-serif" font-size="13" lengthAdjust="spacing" textLength="98" x="509.5" y="550.3779">returns user data</text><polygon fill="#181818" points="940,581.5859,950,585.5859,940,589.5859,944,585.5859" style="stroke:#181818;stroke-width:1.0;"/><line style="stroke:#181818;stroke-width:1.0;" x1="474.5" x2="946" y1="585.5859" y2="585.5859"/><text fill="#000000" font-family="sans-serif" font-size="13" font-weight="bold" lengthAdjust="spacing" textLength="14" x="481.5" y="580.7295">15</text><text fill="#000000" font-family="sans-serif" font-size="13" lengthAdjust="spacing" textLength="104" x="499.5" y="580.7295">save session data</text><polygon fill="#181818" points="485.5,611.9375,475.5,615.9375,485.5,619.9375,481.5,615.9375" style="stroke:#181818;stroke-width:1.0;"/><line style="stroke:#181818;stroke-width:1.0;stroke-dasharray:2.0,2.0;" x1="479.5" x2="956" y1="615.9375" y2="615.9375"/><text fill="#000000" font-family="sans-serif" font-size="13" font-weight="bold" lengthAdjust="spacing" textLength="14" x="491.5" y="611.0811">16</text><text fill="#000000" font-family="sans-serif" font-size="13" lengthAdjust="spacing" textLength="22" x="509.5" y="611.0811">void</text><line style="stroke:#181818;stroke-width:1.0;" x1="474.5" x2="516.5" y1="646.2891" y2="646.2891"/><line style="stroke:#181818;stroke-width:1.0;" x1="516.5" x2="516.5" y1="646.2891" y2="659.2891"/><line style="stroke:#181818;stroke-width:1.0;" x1="475.5" x2="516.5" y1="659.2891" y2="659.2891"/><polygon fill="#181818" points="485.5,655.2891,475.5,659.2891,485.5,663.2891,481.5,659.2891" style="stroke:#181818;stroke-width:1.0;"/><text fill="#000000" font-family="sans-serif" font-size="13" font-weight="bold" lengthAdjust="spacing" textLength="14" x="481.5" y="641.4326">17</text><text fill="#000000" font-family="sans-serif" font-size="13" lengthAdjust="spacing" textLength="117" x="499.5" y="641.4326">dispatch("SIGN_IN")</text><polygon fill="#181818" points="269.5,685.6406,259.5,689.6406,269.5,693.6406,265.5,689.6406" style="stroke:#181818;stroke-width:1.0;"/><line style="stroke:#181818;stroke-width:1.0;stroke-dasharray:2.0,2.0;" x1="263.5" x2="468.5" y1="689.6406" y2="689.6406"/><text fill="#000000" font-family="sans-serif" font-size="13" font-weight="bold" lengthAdjust="spacing" textLength="14" x="275.5" y="684.7842">18</text><text fill="#000000" font-family="sans-serif" font-size="13" lengthAdjust="spacing" textLength="164" x="293.5" y="684.7842">updates authentication state</text><polygon fill="#181818" points="38.5,715.9922,28.5,719.9922,38.5,723.9922,34.5,719.9922" style="stroke:#181818;stroke-width:1.0;"/><line style="stroke:#181818;stroke-width:1.0;stroke-dasharray:2.0,2.0;" x1="32.5" x2="252.5" y1="719.9922" y2="719.9922"/><text fill="#000000" font-family="sans-serif" font-size="13" font-weight="bold" lengthAdjust="spacing" textLength="14" x="44.5" y="715.1357">19</text><text fill="#000000" font-family="sans-serif" font-size="13" lengthAdjust="spacing" textLength="179" x="62.5" y="715.1357">displays user profile (logged in)</text><!--SRC=[bLJ1Qjmm4BtxAmQVlD3yG0w1a4Cnb13OvXO8Mcdg5N4aLHflsdvzPoHxrzfiItAnX7XlvhqdZTL4taslEunDepJv2ErZmjY2IY2R9gX8LjkW746xHIBhXWHR7H5TGVKrvdQY_KFq1slcCdVU4VwY6lNT6syJtOqM7HLOtbv4mUr3dp6ydWlIKyGjwyOCoBlin1uKOR4W7xYwOQLm3I5YIj1-yuDry6Pf3tEJ5dOJSHWhSjymXOcp0sQFGkis9ynYhbam5Jn4_neeWU9Cs9pLYgnta5W2hoUEY1EHrn3Hs8YQEHCVF3dou8KDRxWBQi36uFlUYq6EXqjm8um9-8QCz5HZUdBAcIp2H_i7MKy89miIgZ2lAkad8JkbNqfIIuNYGdjJoP4w_yybtx34uXDrv5_GFQCpmLj7NtAvTR3bESoSexc8FoTC4gdMSf6voZ-yBEqYqXJT6ULC-DBdB8D2p0mmYbGLVr5uqU60rCa57lrzmfdmvENyi2D-q5b5-OopJFo0iJnNp4lgWClpBRmZgunU0TRD3jwQTVrvI2zEZB4fADBxhjtsN- -V-_jsKu-9H3K5RetlnuhuzFA0zEiPanwZ-bt71XtFze06hDkiQ_1Fu2y0]--></g></svg>