<?xml version="1.0" encoding="us-ascii" standalone="no"?><svg xmlns="http://www.w3.org/2000/svg" xmlns:xlink="http://www.w3.org/1999/xlink" contentStyleType="text/css" height="830px" preserveAspectRatio="none" style="width:1005px;height:830px;background:#FFFFFF;" version="1.1" viewBox="0 0 1005 830" width="1005px" zoomAndPan="magnify"><defs/><g><rect fill="#FFFFFF" height="647.0313" style="stroke:#181818;stroke-width:1.0;" width="10" x="17.5" y="92.6094"/><rect fill="#FFFFFF" height="30.3516" style="stroke:#181818;stroke-width:1.0;" width="10" x="247.5" y="114.9609"/><rect fill="#FFFFFF" height="73.7031" style="stroke:#181818;stroke-width:1.0;" width="10" x="458.5" y="145.3125"/><rect fill="#FFFFFF" height="420.5703" style="stroke:#181818;stroke-width:1.0;" width="10" x="458.5" y="279.7188"/><rect fill="#FFFFFF" height="91.0547" style="stroke:#181818;stroke-width:1.0;" width="10" x="674.5" y="353.4219"/><rect fill="#FFFFFF" height="91.0547" style="stroke:#181818;stroke-width:1.0;" width="10" x="674.5" y="474.8281"/><rect fill="#FFFFFF" height="30.3516" style="stroke:#181818;stroke-width:1.0;" width="10" x="848.5" y="249.3672"/><rect fill="#FFFFFF" height="30.3516" style="stroke:#181818;stroke-width:1.0;" width="10" x="848.5" y="383.7734"/><rect fill="#FFFFFF" height="30.3516" style="stroke:#181818;stroke-width:1.0;" width="10" x="848.5" y="505.1797"/><rect fill="#FFFFFF" height="30.3516" style="stroke:#181818;stroke-width:1.0;" width="10" x="948" y="596.2344"/><line style="stroke:#181818;stroke-width:0.5;stroke-dasharray:5.0,5.0;" x1="22" x2="22" y1="82.6094" y2="748.6406"/><line style="stroke:#181818;stroke-width:0.5;stroke-dasharray:5.0,5.0;" x1="252.5" x2="252.5" y1="82.6094" y2="748.6406"/><line style="stroke:#181818;stroke-width:0.5;stroke-dasharray:5.0,5.0;" x1="463.5" x2="463.5" y1="82.6094" y2="748.6406"/><line style="stroke:#181818;stroke-width:0.5;stroke-dasharray:5.0,5.0;" x1="679" x2="679" y1="82.6094" y2="748.6406"/><line style="stroke:#181818;stroke-width:0.5;stroke-dasharray:5.0,5.0;" x1="853.5" x2="853.5" y1="82.6094" y2="748.6406"/><line style="stroke:#181818;stroke-width:0.5;stroke-dasharray:5.0,5.0;" x1="952.5" x2="952.5" y1="82.6094" y2="748.6406"/><text fill="#000000" font-family="sans-serif" font-size="14" lengthAdjust="spacing" textLength="29" x="5" y="79.5332">User</text><ellipse cx="22.5" cy="13.5" fill="#E2E2F0" rx="8" ry="8" style="stroke:#181818;stroke-width:0.5;"/><path d="M22.5,21.5 L22.5,48.5 M9.5,29.5 L35.5,29.5 M22.5,48.5 L9.5,63.5 M22.5,48.5 L35.5,63.5 " fill="none" style="stroke:#181818;stroke-width:0.5;"/><text fill="#000000" font-family="sans-serif" font-size="14" lengthAdjust="spacing" textLength="29" x="5" y="762.1738">User</text><ellipse cx="22.5" cy="773.75" fill="#E2E2F0" rx="8" ry="8" style="stroke:#181818;stroke-width:0.5;"/><path d="M22.5,781.75 L22.5,808.75 M9.5,789.75 L35.5,789.75 M22.5,808.75 L9.5,823.75 M22.5,808.75 L35.5,823.75 " fill="none" style="stroke:#181818;stroke-width:0.5;"/><rect fill="#E2E2F0" height="31.6094" rx="2.5" ry="2.5" style="stroke:#181818;stroke-width:0.5;" width="114" x="195.5" y="50"/><text fill="#000000" font-family="sans-serif" font-size="14" lengthAdjust="spacing" textLength="100" x="202.5" y="71.5332">Settings Screen</text><rect fill="#E2E2F0" height="31.6094" rx="2.5" ry="2.5" style="stroke:#181818;stroke-width:0.5;" width="114" x="195.5" y="747.6406"/><text fill="#000000" font-family="sans-serif" font-size="14" lengthAdjust="spacing" textLength="100" x="202.5" y="769.1738">Settings Screen</text><rect fill="#E2E2F0" height="31.6094" rx="2.5" ry="2.5" style="stroke:#181818;stroke-width:0.5;" width="96" x="415.5" y="50"/><text fill="#000000" font-family="sans-serif" font-size="14" lengthAdjust="spacing" textLength="82" x="422.5" y="71.5332">AuthProvider</text><rect fill="#E2E2F0" height="31.6094" rx="2.5" ry="2.5" style="stroke:#181818;stroke-width:0.5;" width="96" x="415.5" y="747.6406"/><text fill="#000000" font-family="sans-serif" font-size="14" lengthAdjust="spacing" textLength="82" x="422.5" y="769.1738">AuthProvider</text><rect fill="#E2E2F0" height="31.6094" rx="2.5" ry="2.5" style="stroke:#181818;stroke-width:0.5;" width="97" x="631" y="50"/><text fill="#000000" font-family="sans-serif" font-size="14" lengthAdjust="spacing" textLength="83" x="638" y="71.5332">TodoistClient</text><rect fill="#E2E2F0" height="31.6094" rx="2.5" ry="2.5" style="stroke:#181818;stroke-width:0.5;" width="97" x="631" y="747.6406"/><text fill="#000000" font-family="sans-serif" font-size="14" lengthAdjust="spacing" textLength="83" x="638" y="769.1738">TodoistClient</text><rect fill="#E2E2F0" height="31.6094" rx="2.5" ry="2.5" style="stroke:#181818;stroke-width:0.5;" width="86" x="810.5" y="50"/><text fill="#000000" font-family="sans-serif" font-size="14" lengthAdjust="spacing" textLength="72" x="817.5" y="71.5332">Todoist API</text><rect fill="#E2E2F0" height="31.6094" rx="2.5" ry="2.5" style="stroke:#181818;stroke-width:0.5;" width="86" x="810.5" y="747.6406"/><text fill="#000000" font-family="sans-serif" font-size="14" lengthAdjust="spacing" textLength="72" x="817.5" y="769.1738">Todoist API</text><rect fill="#E2E2F0" height="31.6094" rx="2.5" ry="2.5" style="stroke:#181818;stroke-width:0.5;" width="93" x="906.5" y="50"/><text fill="#000000" font-family="sans-serif" font-size="14" lengthAdjust="spacing" textLength="79" x="913.5" y="71.5332">SecureStore</text><rect fill="#E2E2F0" height="31.6094" rx="2.5" ry="2.5" style="stroke:#181818;stroke-width:0.5;" width="93" x="906.5" y="747.6406"/><text fill="#000000" font-family="sans-serif" font-size="14" lengthAdjust="spacing" textLength="79" x="913.5" y="769.1738">SecureStore</text><rect fill="#FFFFFF" height="647.0313" style="stroke:#181818;stroke-width:1.0;" width="10" x="17.5" y="92.6094"/><rect fill="#FFFFFF" height="30.3516" style="stroke:#181818;stroke-width:1.0;" width="10" x="247.5" y="114.9609"/><rect fill="#FFFFFF" height="73.7031" style="stroke:#181818;stroke-width:1.0;" width="10" x="458.5" y="145.3125"/><rect fill="#FFFFFF" height="420.5703" style="stroke:#181818;stroke-width:1.0;" width="10" x="458.5" y="279.7188"/><rect fill="#FFFFFF" height="91.0547" style="stroke:#181818;stroke-width:1.0;" width="10" x="674.5" y="353.4219"/><rect fill="#FFFFFF" height="91.0547" style="stroke:#181818;stroke-width:1.0;" width="10" x="674.5" y="474.8281"/><rect fill="#FFFFFF" height="30.3516" style="stroke:#181818;stroke-width:1.0;" width="10" x="848.5" y="249.3672"/><rect fill="#FFFFFF" height="30.3516" style="stroke:#181818;stroke-width:1.0;" width="10" x="848.5" y="383.7734"/><rect fill="#FFFFFF" height="30.3516" style="stroke:#181818;stroke-width:1.0;" width="10" x="848.5" y="505.1797"/><rect fill="#FFFFFF" height="30.3516" style="stroke:#181818;stroke-width:1.0;" width="10" x="948" y="596.2344"/><polygon fill="#181818" points="235.5,110.9609,245.5,114.9609,235.5,118.9609,239.5,114.9609" style="stroke:#181818;stroke-width:1.0;"/><line style="stroke:#181818;stroke-width:1.0;" x1="27.5" x2="241.5" y1="114.9609" y2="114.9609"/><text fill="#000000" font-family="sans-serif" font-size="13" font-weight="bold" lengthAdjust="spacing" textLength="7" x="34.5" y="110.1045">1</text><text fill="#000000" font-family="sans-serif" font-size="13" lengthAdjust="spacing" textLength="190" x="45.5" y="110.1045">press "Login with Todoist" button</text><polygon fill="#181818" points="446.5,141.3125,456.5,145.3125,446.5,149.3125,450.5,145.3125" style="stroke:#181818;stroke-width:1.0;"/><line style="stroke:#181818;stroke-width:1.0;" x1="252.5" x2="452.5" y1="145.3125" y2="145.3125"/><text fill="#000000" font-family="sans-serif" font-size="13" font-weight="bold" lengthAdjust="spacing" textLength="7" x="259.5" y="140.4561">2</text><text fill="#000000" font-family="sans-serif" font-size="13" lengthAdjust="spacing" textLength="35" x="270.5" y="140.4561">login()</text><line style="stroke:#181818;stroke-width:1.0;" x1="468.5" x2="510.5" y1="175.6641" y2="175.6641"/><line style="stroke:#181818;stroke-width:1.0;" x1="510.5" x2="510.5" y1="175.6641" y2="188.6641"/><line style="stroke:#181818;stroke-width:1.0;" x1="469.5" x2="510.5" y1="188.6641" y2="188.6641"/><polygon fill="#181818" points="479.5,184.6641,469.5,188.6641,479.5,192.6641,475.5,188.6641" style="stroke:#181818;stroke-width:1.0;"/><text fill="#000000" font-family="sans-serif" font-size="13" font-weight="bold" lengthAdjust="spacing" textLength="7" x="475.5" y="170.8076">3</text><text fill="#000000" font-family="sans-serif" font-size="13" lengthAdjust="spacing" textLength="181" x="486.5" y="170.8076">prompts authentication session</text><polygon fill="#181818" points="38.5,215.0156,28.5,219.0156,38.5,223.0156,34.5,219.0156" style="stroke:#181818;stroke-width:1.0;"/><line style="stroke:#181818;stroke-width:1.0;stroke-dasharray:2.0,2.0;" x1="32.5" x2="462.5" y1="219.0156" y2="219.0156"/><text fill="#000000" font-family="sans-serif" font-size="13" font-weight="bold" lengthAdjust="spacing" textLength="7" x="44.5" y="214.1592">4</text><text fill="#000000" font-family="sans-serif" font-size="13" lengthAdjust="spacing" textLength="185" x="55.5" y="214.1592">redirects user to oauth webpage</text><polygon fill="#181818" points="836.5,245.3672,846.5,249.3672,836.5,253.3672,840.5,249.3672" style="stroke:#181818;stroke-width:1.0;"/><line style="stroke:#181818;stroke-width:1.0;" x1="27.5" x2="842.5" y1="249.3672" y2="249.3672"/><text fill="#000000" font-family="sans-serif" font-size="13" font-weight="bold" lengthAdjust="spacing" textLength="7" x="34.5" y="244.5107">5</text><text fill="#000000" font-family="sans-serif" font-size="13" lengthAdjust="spacing" textLength="217" x="45.5" y="244.5107">enters credentials and authorizes app</text><polygon fill="#181818" points="479.5,275.7188,469.5,279.7188,479.5,283.7188,475.5,279.7188" style="stroke:#181818;stroke-width:1.0;"/><line style="stroke:#181818;stroke-width:1.0;stroke-dasharray:2.0,2.0;" x1="473.5" x2="852.5" y1="279.7188" y2="279.7188"/><text fill="#000000" font-family="sans-serif" font-size="13" font-weight="bold" lengthAdjust="spacing" textLength="7" x="485.5" y="274.8623">6</text><text fill="#000000" font-family="sans-serif" font-size="13" lengthAdjust="spacing" textLength="219" x="496.5" y="274.8623">redirects back with authorization code</text><line style="stroke:#181818;stroke-width:1.0;" x1="468.5" x2="510.5" y1="310.0703" y2="310.0703"/><line style="stroke:#181818;stroke-width:1.0;" x1="510.5" x2="510.5" y1="310.0703" y2="323.0703"/><line style="stroke:#181818;stroke-width:1.0;" x1="469.5" x2="510.5" y1="323.0703" y2="323.0703"/><polygon fill="#181818" points="479.5,319.0703,469.5,323.0703,479.5,327.0703,475.5,323.0703" style="stroke:#181818;stroke-width:1.0;"/><text fill="#000000" font-family="sans-serif" font-size="13" font-weight="bold" lengthAdjust="spacing" textLength="7" x="475.5" y="305.2139">7</text><text fill="#000000" font-family="sans-serif" font-size="13" lengthAdjust="spacing" textLength="149" x="486.5" y="305.2139">exchanges code for token</text><polygon fill="#181818" points="662.5,349.4219,672.5,353.4219,662.5,357.4219,666.5,353.4219" style="stroke:#181818;stroke-width:1.0;"/><line style="stroke:#181818;stroke-width:1.0;" x1="468.5" x2="668.5" y1="353.4219" y2="353.4219"/><text fill="#000000" font-family="sans-serif" font-size="13" font-weight="bold" lengthAdjust="spacing" textLength="7" x="475.5" y="348.5654">8</text><text fill="#000000" font-family="sans-serif" font-size="13" lengthAdjust="spacing" textLength="157" x="486.5" y="348.5654">post(token_endpoint, code)</text><polygon fill="#181818" points="836.5,379.7734,846.5,383.7734,836.5,387.7734,840.5,383.7734" style="stroke:#181818;stroke-width:1.0;"/><line style="stroke:#181818;stroke-width:1.0;" x1="684.5" x2="842.5" y1="383.7734" y2="383.7734"/><text fill="#000000" font-family="sans-serif" font-size="13" font-weight="bold" lengthAdjust="spacing" textLength="7" x="691.5" y="378.917">9</text><text fill="#000000" font-family="sans-serif" font-size="13" lengthAdjust="spacing" textLength="132" x="702.5" y="378.917">requests access token</text><polygon fill="#181818" points="695.5,410.125,685.5,414.125,695.5,418.125,691.5,414.125" style="stroke:#181818;stroke-width:1.0;"/><line style="stroke:#181818;stroke-width:1.0;stroke-dasharray:2.0,2.0;" x1="689.5" x2="852.5" y1="414.125" y2="414.125"/><text fill="#000000" font-family="sans-serif" font-size="13" font-weight="bold" lengthAdjust="spacing" textLength="14" x="701.5" y="409.2686">10</text><text fill="#000000" font-family="sans-serif" font-size="13" lengthAdjust="spacing" textLength="122" x="719.5" y="409.2686">returns access token</text><polygon fill="#181818" points="479.5,440.4766,469.5,444.4766,479.5,448.4766,475.5,444.4766" style="stroke:#181818;stroke-width:1.0;"/><line style="stroke:#181818;stroke-width:1.0;stroke-dasharray:2.0,2.0;" x1="473.5" x2="678.5" y1="444.4766" y2="444.4766"/><text fill="#000000" font-family="sans-serif" font-size="13" font-weight="bold" lengthAdjust="spacing" textLength="14" x="485.5" y="439.6201">11</text><text fill="#000000" font-family="sans-serif" font-size="13" lengthAdjust="spacing" textLength="105" x="503.5" y="439.6201">returns token data</text><polygon fill="#181818" points="662.5,470.8281,672.5,474.8281,662.5,478.8281,666.5,474.8281" style="stroke:#181818;stroke-width:1.0;"/><line style="stroke:#181818;stroke-width:1.0;" x1="468.5" x2="668.5" y1="474.8281" y2="474.8281"/><text fill="#000000" font-family="sans-serif" font-size="13" font-weight="bold" lengthAdjust="spacing" textLength="14" x="475.5" y="469.9717">12</text><text fill="#000000" font-family="sans-serif" font-size="13" lengthAdjust="spacing" textLength="107" x="493.5" y="469.9717">get(user_endpoint)</text><polygon fill="#181818" points="836.5,501.1797,846.5,505.1797,836.5,509.1797,840.5,505.1797" style="stroke:#181818;stroke-width:1.0;"/><line style="stroke:#181818;stroke-width:1.0;" x1="684.5" x2="842.5" y1="505.1797" y2="505.1797"/><text fill="#000000" font-family="sans-serif" font-size="13" font-weight="bold" lengthAdjust="spacing" textLength="14" x="691.5" y="500.3232">13</text><text fill="#000000" font-family="sans-serif" font-size="13" lengthAdjust="spacing" textLength="117" x="709.5" y="500.3232">requests user profile</text><polygon fill="#181818" points="695.5,531.5313,685.5,535.5313,695.5,539.5313,691.5,535.5313" style="stroke:#181818;stroke-width:1.0;"/><line style="stroke:#181818;stroke-width:1.0;stroke-dasharray:2.0,2.0;" x1="689.5" x2="852.5" y1="535.5313" y2="535.5313"/><text fill="#000000" font-family="sans-serif" font-size="13" font-weight="bold" lengthAdjust="spacing" textLength="14" x="701.5" y="530.6748">14</text><text fill="#000000" font-family="sans-serif" font-size="13" lengthAdjust="spacing" textLength="107" x="719.5" y="530.6748">returns user profile</text><polygon fill="#181818" points="479.5,561.8828,469.5,565.8828,479.5,569.8828,475.5,565.8828" style="stroke:#181818;stroke-width:1.0;"/><line style="stroke:#181818;stroke-width:1.0;stroke-dasharray:2.0,2.0;" x1="473.5" x2="678.5" y1="565.8828" y2="565.8828"/><text fill="#000000" font-family="sans-serif" font-size="13" font-weight="bold" lengthAdjust="spacing" textLength="14" x="485.5" y="561.0264">15</text><text fill="#000000" font-family="sans-serif" font-size="13" lengthAdjust="spacing" textLength="98" x="503.5" y="561.0264">returns user data</text><polygon fill="#181818" points="936,592.2344,946,596.2344,936,600.2344,940,596.2344" style="stroke:#181818;stroke-width:1.0;"/><line style="stroke:#181818;stroke-width:1.0;" x1="468.5" x2="942" y1="596.2344" y2="596.2344"/><text fill="#000000" font-family="sans-serif" font-size="13" font-weight="bold" lengthAdjust="spacing" textLength="14" x="475.5" y="591.3779">16</text><text fill="#000000" font-family="sans-serif" font-size="13" lengthAdjust="spacing" textLength="104" x="493.5" y="591.3779">save session data</text><polygon fill="#181818" points="479.5,622.5859,469.5,626.5859,479.5,630.5859,475.5,626.5859" style="stroke:#181818;stroke-width:1.0;"/><line style="stroke:#181818;stroke-width:1.0;stroke-dasharray:2.0,2.0;" x1="473.5" x2="952" y1="626.5859" y2="626.5859"/><text fill="#000000" font-family="sans-serif" font-size="13" font-weight="bold" lengthAdjust="spacing" textLength="14" x="485.5" y="621.7295">17</text><text fill="#000000" font-family="sans-serif" font-size="13" lengthAdjust="spacing" textLength="22" x="503.5" y="621.7295">void</text><line style="stroke:#181818;stroke-width:1.0;" x1="468.5" x2="510.5" y1="656.9375" y2="656.9375"/><line style="stroke:#181818;stroke-width:1.0;" x1="510.5" x2="510.5" y1="656.9375" y2="669.9375"/><line style="stroke:#181818;stroke-width:1.0;" x1="469.5" x2="510.5" y1="669.9375" y2="669.9375"/><polygon fill="#181818" points="479.5,665.9375,469.5,669.9375,479.5,673.9375,475.5,669.9375" style="stroke:#181818;stroke-width:1.0;"/><text fill="#000000" font-family="sans-serif" font-size="13" font-weight="bold" lengthAdjust="spacing" textLength="14" x="475.5" y="652.0811">18</text><text fill="#000000" font-family="sans-serif" font-size="13" lengthAdjust="spacing" textLength="117" x="493.5" y="652.0811">dispatch("SIGN_IN")</text><polygon fill="#181818" points="263.5,696.2891,253.5,700.2891,263.5,704.2891,259.5,700.2891" style="stroke:#181818;stroke-width:1.0;"/><line style="stroke:#181818;stroke-width:1.0;stroke-dasharray:2.0,2.0;" x1="257.5" x2="462.5" y1="700.2891" y2="700.2891"/><text fill="#000000" font-family="sans-serif" font-size="13" font-weight="bold" lengthAdjust="spacing" textLength="14" x="269.5" y="695.4326">19</text><text fill="#000000" font-family="sans-serif" font-size="13" lengthAdjust="spacing" textLength="164" x="287.5" y="695.4326">updates authentication state</text><polygon fill="#181818" points="38.5,726.6406,28.5,730.6406,38.5,734.6406,34.5,730.6406" style="stroke:#181818;stroke-width:1.0;"/><line style="stroke:#181818;stroke-width:1.0;stroke-dasharray:2.0,2.0;" x1="32.5" x2="251.5" y1="730.6406" y2="730.6406"/><text fill="#000000" font-family="sans-serif" font-size="13" font-weight="bold" lengthAdjust="spacing" textLength="14" x="44.5" y="725.7842">20</text><text fill="#000000" font-family="sans-serif" font-size="13" lengthAdjust="spacing" textLength="179" x="62.5" y="725.7842">displays user profile (logged in)</text><!--SRC=[bLJDJkCm4BxdAKOvfHAy08UL40SK2I6axfwHQm-fHR2DFIaiJy_OJj8uv50kZPFEDzzFPY86icPuEw2lAY79UgZ_1VGrY03nK3dXIKljX26ezqYaJHTWBpsYoLLjMNCxqF79svDMOvixQmW_gQpwQvNLWUvwZOPoMJfkLi7jKvjg-BeM90UFUzQDgI2TaXDz4eJPGlo1wp-i56x0UGm1wWVRQGCVceumajHm68Z3M83RYY4C71qmke-mPbSfN5RDvybgDI4AiFFspL40mGcnLIq5QMiWi22-dZ5HQfHy0nwLzYWPCyG7PC56C7pWmOaEbp9cwiajPyKTc0Tz07vTAbAAdkcDIXAirr_8jywT3SI08_2w47wMSH3oDQSsTSWUf5M5cjZdmbJmKnw5wLX9R08lDlfyHLEMf-686Tf0JVh_6OroLXkwIi3TWYzFqeYPe_3uFc28-KiPPo2pR5kVw3pIuCqAil8vyQmYoy2402L852yhAznqs24ryMtF_dxXB4q9ZzcBxl52PmNaDyuIy09ZQIKP5yG9frdFk1cLjpONbcGdgzMo_xZVcuEaT722vB6fz-tzutFxME_AdOfH3OwfyUSE4Z_TNgTskP2HenV_ozYWuSz2XmgqMNyPlW40]--></g></svg>