<?xml version="1.0" encoding="us-ascii" standalone="no"?><svg xmlns="http://www.w3.org/2000/svg" xmlns:xlink="http://www.w3.org/1999/xlink" contentStyleType="text/css" height="466px" preserveAspectRatio="none" style="width:633px;height:466px;background:#FFFFFF;" version="1.1" viewBox="0 0 633 466" width="633px" zoomAndPan="magnify"><defs/><g><rect fill="#FFFFFF" height="282.8125" style="stroke:#181818;stroke-width:1.0;" width="10" x="17.5" y="92.6094"/><rect fill="#FFFFFF" height="30.3516" style="stroke:#181818;stroke-width:1.0;" width="10" x="329.5" y="114.9609"/><rect fill="#FFFFFF" height="160.4063" style="stroke:#181818;stroke-width:1.0;" width="10" x="329.5" y="206.0156"/><rect fill="#FFFFFF" height="30.3516" style="stroke:#181818;stroke-width:1.0;" width="10" x="588.5" y="175.6641"/><line style="stroke:#181818;stroke-width:0.5;stroke-dasharray:5.0,5.0;" x1="22" x2="22" y1="82.6094" y2="384.4219"/><line style="stroke:#181818;stroke-width:0.5;stroke-dasharray:5.0,5.0;" x1="334.5" x2="334.5" y1="82.6094" y2="384.4219"/><line style="stroke:#181818;stroke-width:0.5;stroke-dasharray:5.0,5.0;" x1="593.5" x2="593.5" y1="82.6094" y2="384.4219"/><text fill="#000000" font-family="sans-serif" font-size="14" lengthAdjust="spacing" textLength="29" x="5" y="79.5332">User</text><ellipse cx="22.5" cy="13.5" fill="#E2E2F0" rx="8" ry="8" style="stroke:#181818;stroke-width:0.5;"/><path d="M22.5,21.5 L22.5,48.5 M9.5,29.5 L35.5,29.5 M22.5,48.5 L9.5,63.5 M22.5,48.5 L35.5,63.5 " fill="none" style="stroke:#181818;stroke-width:0.5;"/><text fill="#000000" font-family="sans-serif" font-size="14" lengthAdjust="spacing" textLength="29" x="5" y="397.9551">User</text><ellipse cx="22.5" cy="409.5313" fill="#E2E2F0" rx="8" ry="8" style="stroke:#181818;stroke-width:0.5;"/><path d="M22.5,417.5313 L22.5,444.5313 M9.5,425.5313 L35.5,425.5313 M22.5,444.5313 L9.5,459.5313 M22.5,444.5313 L35.5,459.5313 " fill="none" style="stroke:#181818;stroke-width:0.5;"/><rect fill="#E2E2F0" height="31.6094" rx="2.5" ry="2.5" style="stroke:#181818;stroke-width:0.5;" width="60" x="304.5" y="50"/><text fill="#000000" font-family="sans-serif" font-size="14" lengthAdjust="spacing" textLength="46" x="311.5" y="71.5332">System</text><rect fill="#E2E2F0" height="31.6094" rx="2.5" ry="2.5" style="stroke:#181818;stroke-width:0.5;" width="60" x="304.5" y="383.4219"/><text fill="#000000" font-family="sans-serif" font-size="14" lengthAdjust="spacing" textLength="46" x="311.5" y="404.9551">System</text><text fill="#000000" font-family="sans-serif" font-size="14" lengthAdjust="spacing" textLength="72" x="554.5" y="79.5332">Todoist API</text><ellipse cx="593.5" cy="13.5" fill="#E2E2F0" rx="8" ry="8" style="stroke:#181818;stroke-width:0.5;"/><path d="M593.5,21.5 L593.5,48.5 M580.5,29.5 L606.5,29.5 M593.5,48.5 L580.5,63.5 M593.5,48.5 L606.5,63.5 " fill="none" style="stroke:#181818;stroke-width:0.5;"/><text fill="#000000" font-family="sans-serif" font-size="14" lengthAdjust="spacing" textLength="72" x="554.5" y="397.9551">Todoist API</text><ellipse cx="593.5" cy="409.5313" fill="#E2E2F0" rx="8" ry="8" style="stroke:#181818;stroke-width:0.5;"/><path d="M593.5,417.5313 L593.5,444.5313 M580.5,425.5313 L606.5,425.5313 M593.5,444.5313 L580.5,459.5313 M593.5,444.5313 L606.5,459.5313 " fill="none" style="stroke:#181818;stroke-width:0.5;"/><rect fill="#FFFFFF" height="282.8125" style="stroke:#181818;stroke-width:1.0;" width="10" x="17.5" y="92.6094"/><rect fill="#FFFFFF" height="30.3516" style="stroke:#181818;stroke-width:1.0;" width="10" x="329.5" y="114.9609"/><rect fill="#FFFFFF" height="160.4063" style="stroke:#181818;stroke-width:1.0;" width="10" x="329.5" y="206.0156"/><rect fill="#FFFFFF" height="30.3516" style="stroke:#181818;stroke-width:1.0;" width="10" x="588.5" y="175.6641"/><polygon fill="#181818" points="317.5,110.9609,327.5,114.9609,317.5,118.9609,321.5,114.9609" style="stroke:#181818;stroke-width:1.0;"/><line style="stroke:#181818;stroke-width:1.0;" x1="27.5" x2="323.5" y1="114.9609" y2="114.9609"/><text fill="#000000" font-family="sans-serif" font-size="13" font-weight="bold" lengthAdjust="spacing" textLength="7" x="34.5" y="110.1045">1</text><text fill="#000000" font-family="sans-serif" font-size="13" lengthAdjust="spacing" textLength="151" x="45.5" y="110.1045">asks to log in with Todoist</text><polygon fill="#181818" points="38.5,141.3125,28.5,145.3125,38.5,149.3125,34.5,145.3125" style="stroke:#181818;stroke-width:1.0;"/><line style="stroke:#181818;stroke-width:1.0;stroke-dasharray:2.0,2.0;" x1="32.5" x2="333.5" y1="145.3125" y2="145.3125"/><text fill="#000000" font-family="sans-serif" font-size="13" font-weight="bold" lengthAdjust="spacing" textLength="7" x="44.5" y="140.4561">2</text><text fill="#000000" font-family="sans-serif" font-size="13" lengthAdjust="spacing" textLength="267" x="55.5" y="140.4561">redirects the user to Todoist's OAuth webpage</text><polygon fill="#181818" points="576.5,171.6641,586.5,175.6641,576.5,179.6641,580.5,175.6641" style="stroke:#181818;stroke-width:1.0;"/><line style="stroke:#181818;stroke-width:1.0;" x1="27.5" x2="582.5" y1="175.6641" y2="175.6641"/><text fill="#000000" font-family="sans-serif" font-size="13" font-weight="bold" lengthAdjust="spacing" textLength="7" x="34.5" y="170.8076">3</text><text fill="#000000" font-family="sans-serif" font-size="13" lengthAdjust="spacing" textLength="210" x="45.5" y="170.8076">enter credentials and authorizes app</text><polygon fill="#181818" points="350.5,202.0156,340.5,206.0156,350.5,210.0156,346.5,206.0156" style="stroke:#181818;stroke-width:1.0;"/><line style="stroke:#181818;stroke-width:1.0;stroke-dasharray:2.0,2.0;" x1="344.5" x2="592.5" y1="206.0156" y2="206.0156"/><text fill="#000000" font-family="sans-serif" font-size="13" font-weight="bold" lengthAdjust="spacing" textLength="7" x="356.5" y="201.1592">4</text><text fill="#000000" font-family="sans-serif" font-size="13" lengthAdjust="spacing" textLength="219" x="367.5" y="201.1592">redirects back with authorization code</text><line style="stroke:#181818;stroke-width:1.0;" x1="339.5" x2="381.5" y1="236.3672" y2="236.3672"/><line style="stroke:#181818;stroke-width:1.0;" x1="381.5" x2="381.5" y1="236.3672" y2="249.3672"/><line style="stroke:#181818;stroke-width:1.0;" x1="340.5" x2="381.5" y1="249.3672" y2="249.3672"/><polygon fill="#181818" points="350.5,245.3672,340.5,249.3672,350.5,253.3672,346.5,249.3672" style="stroke:#181818;stroke-width:1.0;"/><text fill="#000000" font-family="sans-serif" font-size="13" font-weight="bold" lengthAdjust="spacing" textLength="7" x="346.5" y="231.5107">5</text><text fill="#000000" font-family="sans-serif" font-size="13" lengthAdjust="spacing" textLength="142" x="357.5" y="231.5107">exchange code for token</text><line style="stroke:#181818;stroke-width:1.0;" x1="339.5" x2="381.5" y1="279.7188" y2="279.7188"/><line style="stroke:#181818;stroke-width:1.0;" x1="381.5" x2="381.5" y1="279.7188" y2="292.7188"/><line style="stroke:#181818;stroke-width:1.0;" x1="340.5" x2="381.5" y1="292.7188" y2="292.7188"/><polygon fill="#181818" points="350.5,288.7188,340.5,292.7188,350.5,296.7188,346.5,292.7188" style="stroke:#181818;stroke-width:1.0;"/><text fill="#000000" font-family="sans-serif" font-size="13" font-weight="bold" lengthAdjust="spacing" textLength="7" x="346.5" y="274.8623">6</text><text fill="#000000" font-family="sans-serif" font-size="13" lengthAdjust="spacing" textLength="95" x="357.5" y="274.8623">fetch user profile</text><line style="stroke:#181818;stroke-width:1.0;" x1="339.5" x2="381.5" y1="323.0703" y2="323.0703"/><line style="stroke:#181818;stroke-width:1.0;" x1="381.5" x2="381.5" y1="323.0703" y2="336.0703"/><line style="stroke:#181818;stroke-width:1.0;" x1="340.5" x2="381.5" y1="336.0703" y2="336.0703"/><polygon fill="#181818" points="350.5,332.0703,340.5,336.0703,350.5,340.0703,346.5,336.0703" style="stroke:#181818;stroke-width:1.0;"/><text fill="#000000" font-family="sans-serif" font-size="13" font-weight="bold" lengthAdjust="spacing" textLength="7" x="346.5" y="318.2139">7</text><text fill="#000000" font-family="sans-serif" font-size="13" lengthAdjust="spacing" textLength="107" x="357.5" y="318.2139">store session data</text><polygon fill="#181818" points="38.5,362.4219,28.5,366.4219,38.5,370.4219,34.5,366.4219" style="stroke:#181818;stroke-width:1.0;"/><line style="stroke:#181818;stroke-width:1.0;stroke-dasharray:2.0,2.0;" x1="32.5" x2="333.5" y1="366.4219" y2="366.4219"/><text fill="#000000" font-family="sans-serif" font-size="13" font-weight="bold" lengthAdjust="spacing" textLength="7" x="44.5" y="361.5654">8</text><text fill="#000000" font-family="sans-serif" font-size="13" lengthAdjust="spacing" textLength="230" x="55.5" y="361.5654">displays authentication state (logged in)</text><!--SRC=[TP51KiCm34NtEOKc6s3H2tJ1J9UiO0Pw0CLM4azIssCfb79wP2Sb1S8caMFzb_ybd2JuwTHGgYeq4XBKHwPK0pBaeegOn1aNqGlKhnSMEfNBkRngte8DZWKEBq_bLj-5vzvHQ0Rb1-mU5o7ijMrWa01ZwC1vE3lfOU6iqkKtYsYd-iBPGoBh4XbHH4ymvO_AMlHt3C-7INbdQY9sL5dwJVpserOLHrxqQ9IgbSEH0Rq5L4P8xfFq6EFgAiVBkjrjdjLHWsQOyrm1A2vuCC7-i98n_oMz0TE7wT5tLFJGXfnq8B_LsfAOVfv6JA5r8srriUwCW8avkx8ek35WwpYEUE6I8G_5p25OijjxtLf7LXVty7UuNm00]--></g></svg>