<?xml version="1.0" encoding="us-ascii" standalone="no"?><svg xmlns="http://www.w3.org/2000/svg" xmlns:xlink="http://www.w3.org/1999/xlink" contentStyleType="text/css" height="781px" preserveAspectRatio="none" style="width:959px;height:781px;background:#FFFFFF;" version="1.1" viewBox="0 0 959 781" width="959px" zoomAndPan="magnify"><defs/><g><rect fill="#FFFFFF" height="598.0313" style="stroke:#181818;stroke-width:1.0;" width="10" x="17.5" y="92.6094"/><rect fill="#FFFFFF" height="519.9766" style="stroke:#181818;stroke-width:1.0;" width="10" x="193.5" y="114.9609"/><rect fill="#FFFFFF" height="83.0547" style="stroke:#181818;stroke-width:1.0;" width="10" x="422.5" y="161.6641"/><rect fill="#FFFFFF" height="30.3516" style="stroke:#181818;stroke-width:1.0;" width="10" x="422.5" y="604.5859"/><rect fill="#FFFFFF" height="30.3516" style="stroke:#181818;stroke-width:1.0;" width="10" x="571.5" y="244.7188"/><rect fill="#FFFFFF" height="30.3516" style="stroke:#181818;stroke-width:1.0;" width="10" x="571.5" y="305.4219"/><rect fill="#FFFFFF" height="73.7031" style="stroke:#181818;stroke-width:1.0;" width="10" x="571.5" y="530.8828"/><rect fill="#FFFFFF" height="195.1094" style="stroke:#181818;stroke-width:1.0;" width="10" x="691.5" y="335.7734"/><rect fill="#FFFFFF" height="30.3516" style="stroke:#181818;stroke-width:1.0;" width="10" x="910.5" y="366.125"/><rect fill="#FFFFFF" height="30.3516" style="stroke:#181818;stroke-width:1.0;" width="10" x="910.5" y="426.8281"/><line style="stroke:#181818;stroke-width:0.5;stroke-dasharray:5.0,5.0;" x1="22" x2="22" y1="82.6094" y2="699.6406"/><line style="stroke:#181818;stroke-width:0.5;stroke-dasharray:5.0,5.0;" x1="198" x2="198" y1="82.6094" y2="699.6406"/><line style="stroke:#181818;stroke-width:0.5;stroke-dasharray:5.0,5.0;" x1="427.5" x2="427.5" y1="82.6094" y2="699.6406"/><line style="stroke:#181818;stroke-width:0.5;stroke-dasharray:5.0,5.0;" x1="576.5" x2="576.5" y1="82.6094" y2="699.6406"/><line style="stroke:#181818;stroke-width:0.5;stroke-dasharray:5.0,5.0;" x1="696" x2="696" y1="82.6094" y2="699.6406"/><line style="stroke:#181818;stroke-width:0.5;stroke-dasharray:5.0,5.0;" x1="915" x2="915" y1="82.6094" y2="699.6406"/><text fill="#000000" font-family="sans-serif" font-size="14" lengthAdjust="spacing" textLength="29" x="5" y="79.5332">User</text><ellipse cx="22.5" cy="13.5" fill="#E2E2F0" rx="8" ry="8" style="stroke:#181818;stroke-width:0.5;"/><path d="M22.5,21.5 L22.5,48.5 M9.5,29.5 L35.5,29.5 M22.5,48.5 L9.5,63.5 M22.5,48.5 L35.5,63.5 " fill="none" style="stroke:#181818;stroke-width:0.5;"/><text fill="#000000" font-family="sans-serif" font-size="14" lengthAdjust="spacing" textLength="29" x="5" y="713.1738">User</text><ellipse cx="22.5" cy="724.75" fill="#E2E2F0" rx="8" ry="8" style="stroke:#181818;stroke-width:0.5;"/><path d="M22.5,732.75 L22.5,759.75 M9.5,740.75 L35.5,740.75 M22.5,759.75 L9.5,774.75 M22.5,759.75 L35.5,774.75 " fill="none" style="stroke:#181818;stroke-width:0.5;"/><rect fill="#E2E2F0" height="31.6094" rx="2.5" ry="2.5" style="stroke:#181818;stroke-width:0.5;" width="69" x="164" y="50"/><text fill="#000000" font-family="sans-serif" font-size="14" lengthAdjust="spacing" textLength="55" x="171" y="71.5332">NoteLink</text><rect fill="#E2E2F0" height="31.6094" rx="2.5" ry="2.5" style="stroke:#181818;stroke-width:0.5;" width="69" x="164" y="698.6406"/><text fill="#000000" font-family="sans-serif" font-size="14" lengthAdjust="spacing" textLength="55" x="171" y="720.1738">NoteLink</text><rect fill="#E2E2F0" height="31.6094" rx="2.5" ry="2.5" style="stroke:#181818;stroke-width:0.5;" width="96" x="379.5" y="50"/><text fill="#000000" font-family="sans-serif" font-size="14" lengthAdjust="spacing" textLength="82" x="386.5" y="71.5332">AlertProvider</text><rect fill="#E2E2F0" height="31.6094" rx="2.5" ry="2.5" style="stroke:#181818;stroke-width:0.5;" width="96" x="379.5" y="698.6406"/><text fill="#000000" font-family="sans-serif" font-size="14" lengthAdjust="spacing" textLength="82" x="386.5" y="720.1738">AlertProvider</text><rect fill="#E2E2F0" height="31.6094" rx="2.5" ry="2.5" style="stroke:#181818;stroke-width:0.5;" width="80" x="536.5" y="50"/><text fill="#000000" font-family="sans-serif" font-size="14" lengthAdjust="spacing" textLength="66" x="543.5" y="71.5332">AlertPortal</text><rect fill="#E2E2F0" height="31.6094" rx="2.5" ry="2.5" style="stroke:#181818;stroke-width:0.5;" width="80" x="536.5" y="698.6406"/><text fill="#000000" font-family="sans-serif" font-size="14" lengthAdjust="spacing" textLength="66" x="543.5" y="720.1738">AlertPortal</text><rect fill="#E2E2F0" height="31.6094" rx="2.5" ry="2.5" style="stroke:#181818;stroke-width:0.5;" width="103" x="645" y="50"/><text fill="#000000" font-family="sans-serif" font-size="14" lengthAdjust="spacing" textLength="89" x="652" y="71.5332">NotesProvider</text><rect fill="#E2E2F0" height="31.6094" rx="2.5" ry="2.5" style="stroke:#181818;stroke-width:0.5;" width="103" x="645" y="698.6406"/><text fill="#000000" font-family="sans-serif" font-size="14" lengthAdjust="spacing" textLength="89" x="652" y="720.1738">NotesProvider</text><rect fill="#E2E2F0" height="31.6094" rx="2.5" ry="2.5" style="stroke:#181818;stroke-width:0.5;" width="75" x="878" y="50"/><text fill="#000000" font-family="sans-serif" font-size="14" lengthAdjust="spacing" textLength="61" x="885" y="71.5332">Database</text><rect fill="#E2E2F0" height="31.6094" rx="2.5" ry="2.5" style="stroke:#181818;stroke-width:0.5;" width="75" x="878" y="698.6406"/><text fill="#000000" font-family="sans-serif" font-size="14" lengthAdjust="spacing" textLength="61" x="885" y="720.1738">Database</text><rect fill="#FFFFFF" height="598.0313" style="stroke:#181818;stroke-width:1.0;" width="10" x="17.5" y="92.6094"/><rect fill="#FFFFFF" height="519.9766" style="stroke:#181818;stroke-width:1.0;" width="10" x="193.5" y="114.9609"/><rect fill="#FFFFFF" height="83.0547" style="stroke:#181818;stroke-width:1.0;" width="10" x="422.5" y="161.6641"/><rect fill="#FFFFFF" height="30.3516" style="stroke:#181818;stroke-width:1.0;" width="10" x="422.5" y="604.5859"/><rect fill="#FFFFFF" height="30.3516" style="stroke:#181818;stroke-width:1.0;" width="10" x="571.5" y="244.7188"/><rect fill="#FFFFFF" height="30.3516" style="stroke:#181818;stroke-width:1.0;" width="10" x="571.5" y="305.4219"/><rect fill="#FFFFFF" height="73.7031" style="stroke:#181818;stroke-width:1.0;" width="10" x="571.5" y="530.8828"/><rect fill="#FFFFFF" height="195.1094" style="stroke:#181818;stroke-width:1.0;" width="10" x="691.5" y="335.7734"/><rect fill="#FFFFFF" height="30.3516" style="stroke:#181818;stroke-width:1.0;" width="10" x="910.5" y="366.125"/><rect fill="#FFFFFF" height="30.3516" style="stroke:#181818;stroke-width:1.0;" width="10" x="910.5" y="426.8281"/><polygon fill="#181818" points="181.5,110.9609,191.5,114.9609,181.5,118.9609,185.5,114.9609" style="stroke:#181818;stroke-width:1.0;"/><line style="stroke:#181818;stroke-width:1.0;" x1="27.5" x2="187.5" y1="114.9609" y2="114.9609"/><text fill="#000000" font-family="sans-serif" font-size="13" font-weight="bold" lengthAdjust="spacing" textLength="7" x="34.5" y="110.1045">1</text><text fill="#000000" font-family="sans-serif" font-size="13" lengthAdjust="spacing" textLength="114" x="45.5" y="110.1045">long press to delete</text><polygon fill="#181818" points="410.5,157.6641,420.5,161.6641,410.5,165.6641,414.5,161.6641" style="stroke:#181818;stroke-width:1.0;"/><line style="stroke:#181818;stroke-width:1.0;" x1="203.5" x2="416.5" y1="161.6641" y2="161.6641"/><text fill="#000000" font-family="sans-serif" font-size="13" font-weight="bold" lengthAdjust="spacing" textLength="7" x="210.5" y="148.6318">2</text><text fill="#000000" font-family="sans-serif" font-size="13" lengthAdjust="spacing" textLength="158" x="221.5" y="140.4561">showAlert("Confirm delete",</text><text fill="#000000" font-family="sans-serif" font-size="13" lengthAdjust="spacing" textLength="189" x="221.5" y="156.8076">buttons=[{onPress: deleteNote}])</text><path d="M437,174.6641 L437,216.6641 L628,216.6641 L628,184.6641 L618,174.6641 L437,174.6641 " fill="#FEFFDD" style="stroke:#181818;stroke-width:0.5;"/><path d="M618,174.6641 L618,184.6641 L628,184.6641 L618,174.6641 " fill="#FEFFDD" style="stroke:#181818;stroke-width:0.5;"/><text fill="#000000" font-family="sans-serif" font-size="13" lengthAdjust="spacing" textLength="170" x="443" y="193.1592">showAlert sets visible to true,</text><text fill="#000000" font-family="sans-serif" font-size="13" lengthAdjust="spacing" textLength="169" x="443" y="209.5107">which renders the alert dialog</text><polygon fill="#181818" points="559.5,240.7188,569.5,244.7188,559.5,248.7188,563.5,244.7188" style="stroke:#181818;stroke-width:1.0;"/><line style="stroke:#181818;stroke-width:1.0;" x1="427.5" x2="565.5" y1="244.7188" y2="244.7188"/><text fill="#000000" font-family="sans-serif" font-size="13" font-weight="bold" lengthAdjust="spacing" textLength="7" x="434.5" y="239.8623">3</text><text fill="#000000" font-family="sans-serif" font-size="13" lengthAdjust="spacing" textLength="109" x="445.5" y="239.8623">render(visible=true)</text><polygon fill="#181818" points="38.5,271.0703,28.5,275.0703,38.5,279.0703,34.5,275.0703" style="stroke:#181818;stroke-width:1.0;"/><line style="stroke:#181818;stroke-width:1.0;stroke-dasharray:2.0,2.0;" x1="32.5" x2="575.5" y1="275.0703" y2="275.0703"/><text fill="#000000" font-family="sans-serif" font-size="13" font-weight="bold" lengthAdjust="spacing" textLength="7" x="44.5" y="270.2139">4</text><text fill="#000000" font-family="sans-serif" font-size="13" lengthAdjust="spacing" textLength="123" x="55.5" y="270.2139">display dialog overlay</text><polygon fill="#181818" points="559.5,301.4219,569.5,305.4219,559.5,309.4219,563.5,305.4219" style="stroke:#181818;stroke-width:1.0;"/><line style="stroke:#181818;stroke-width:1.0;" x1="27.5" x2="565.5" y1="305.4219" y2="305.4219"/><text fill="#000000" font-family="sans-serif" font-size="13" font-weight="bold" lengthAdjust="spacing" textLength="7" x="34.5" y="300.5654">5</text><text fill="#000000" font-family="sans-serif" font-size="13" lengthAdjust="spacing" textLength="123" x="45.5" y="300.5654">press "Delete" button</text><polygon fill="#181818" points="679.5,331.7734,689.5,335.7734,679.5,339.7734,683.5,335.7734" style="stroke:#181818;stroke-width:1.0;"/><line style="stroke:#181818;stroke-width:1.0;" x1="576.5" x2="685.5" y1="335.7734" y2="335.7734"/><text fill="#000000" font-family="sans-serif" font-size="13" font-weight="bold" lengthAdjust="spacing" textLength="7" x="583.5" y="330.917">6</text><text fill="#000000" font-family="sans-serif" font-size="13" lengthAdjust="spacing" textLength="80" x="594.5" y="330.917">deleteNote(id)</text><polygon fill="#181818" points="898.5,362.125,908.5,366.125,898.5,370.125,902.5,366.125" style="stroke:#181818;stroke-width:1.0;"/><line style="stroke:#181818;stroke-width:1.0;" x1="701.5" x2="904.5" y1="366.125" y2="366.125"/><text fill="#000000" font-family="sans-serif" font-size="13" font-weight="bold" lengthAdjust="spacing" textLength="7" x="708.5" y="361.2686">7</text><text fill="#000000" font-family="sans-serif" font-size="13" lengthAdjust="spacing" textLength="133" x="719.5" y="361.2686">addPendingDeletion(id)</text><polygon fill="#181818" points="712.5,392.4766,702.5,396.4766,712.5,400.4766,708.5,396.4766" style="stroke:#181818;stroke-width:1.0;"/><line style="stroke:#181818;stroke-width:1.0;stroke-dasharray:2.0,2.0;" x1="706.5" x2="914.5" y1="396.4766" y2="396.4766"/><text fill="#000000" font-family="sans-serif" font-size="13" font-weight="bold" lengthAdjust="spacing" textLength="7" x="718.5" y="391.6201">8</text><text fill="#000000" font-family="sans-serif" font-size="13" lengthAdjust="spacing" textLength="22" x="729.5" y="391.6201">void</text><polygon fill="#181818" points="898.5,422.8281,908.5,426.8281,898.5,430.8281,902.5,426.8281" style="stroke:#181818;stroke-width:1.0;"/><line style="stroke:#181818;stroke-width:1.0;" x1="701.5" x2="904.5" y1="426.8281" y2="426.8281"/><text fill="#000000" font-family="sans-serif" font-size="13" font-weight="bold" lengthAdjust="spacing" textLength="7" x="708.5" y="421.9717">9</text><text fill="#000000" font-family="sans-serif" font-size="13" lengthAdjust="spacing" textLength="80" x="719.5" y="421.9717">deleteNote(id)</text><polygon fill="#181818" points="712.5,453.1797,702.5,457.1797,712.5,461.1797,708.5,457.1797" style="stroke:#181818;stroke-width:1.0;"/><line style="stroke:#181818;stroke-width:1.0;stroke-dasharray:2.0,2.0;" x1="706.5" x2="914.5" y1="457.1797" y2="457.1797"/><text fill="#000000" font-family="sans-serif" font-size="13" font-weight="bold" lengthAdjust="spacing" textLength="14" x="718.5" y="452.3232">10</text><text fill="#000000" font-family="sans-serif" font-size="13" lengthAdjust="spacing" textLength="22" x="736.5" y="452.3232">void</text><line style="stroke:#181818;stroke-width:1.0;" x1="701.5" x2="743.5" y1="487.5313" y2="487.5313"/><line style="stroke:#181818;stroke-width:1.0;" x1="743.5" x2="743.5" y1="487.5313" y2="500.5313"/><line style="stroke:#181818;stroke-width:1.0;" x1="702.5" x2="743.5" y1="500.5313" y2="500.5313"/><polygon fill="#181818" points="712.5,496.5313,702.5,500.5313,712.5,504.5313,708.5,500.5313" style="stroke:#181818;stroke-width:1.0;"/><text fill="#000000" font-family="sans-serif" font-size="13" font-weight="bold" lengthAdjust="spacing" textLength="14" x="708.5" y="482.6748">11</text><text fill="#000000" font-family="sans-serif" font-size="13" lengthAdjust="spacing" textLength="177" x="726.5" y="482.6748">dispatch("DELETE_NOTE", id)</text><polygon fill="#181818" points="592.5,526.8828,582.5,530.8828,592.5,534.8828,588.5,530.8828" style="stroke:#181818;stroke-width:1.0;"/><line style="stroke:#181818;stroke-width:1.0;stroke-dasharray:2.0,2.0;" x1="586.5" x2="695.5" y1="530.8828" y2="530.8828"/><text fill="#000000" font-family="sans-serif" font-size="13" font-weight="bold" lengthAdjust="spacing" textLength="14" x="598.5" y="526.0264">12</text><text fill="#000000" font-family="sans-serif" font-size="13" lengthAdjust="spacing" textLength="22" x="616.5" y="526.0264">void</text><line style="stroke:#181818;stroke-width:1.0;" x1="581.5" x2="623.5" y1="561.2344" y2="561.2344"/><line style="stroke:#181818;stroke-width:1.0;" x1="623.5" x2="623.5" y1="561.2344" y2="574.2344"/><line style="stroke:#181818;stroke-width:1.0;" x1="582.5" x2="623.5" y1="574.2344" y2="574.2344"/><polygon fill="#181818" points="592.5,570.2344,582.5,574.2344,592.5,578.2344,588.5,574.2344" style="stroke:#181818;stroke-width:1.0;"/><text fill="#000000" font-family="sans-serif" font-size="13" font-weight="bold" lengthAdjust="spacing" textLength="14" x="588.5" y="556.3779">13</text><text fill="#000000" font-family="sans-serif" font-size="13" lengthAdjust="spacing" textLength="55" x="606.5" y="556.3779">onClose()</text><polygon fill="#181818" points="443.5,600.5859,433.5,604.5859,443.5,608.5859,439.5,604.5859" style="stroke:#181818;stroke-width:1.0;"/><line style="stroke:#181818;stroke-width:1.0;stroke-dasharray:2.0,2.0;" x1="437.5" x2="575.5" y1="604.5859" y2="604.5859"/><text fill="#000000" font-family="sans-serif" font-size="13" font-weight="bold" lengthAdjust="spacing" textLength="14" x="449.5" y="599.7295">14</text><text fill="#000000" font-family="sans-serif" font-size="13" lengthAdjust="spacing" textLength="22" x="467.5" y="599.7295">void</text><polygon fill="#181818" points="209.5,630.9375,199.5,634.9375,209.5,638.9375,205.5,634.9375" style="stroke:#181818;stroke-width:1.0;"/><line style="stroke:#181818;stroke-width:1.0;stroke-dasharray:2.0,2.0;" x1="203.5" x2="426.5" y1="634.9375" y2="634.9375"/><text fill="#000000" font-family="sans-serif" font-size="13" font-weight="bold" lengthAdjust="spacing" textLength="14" x="215.5" y="630.0811">15</text><text fill="#000000" font-family="sans-serif" font-size="13" lengthAdjust="spacing" textLength="22" x="233.5" y="630.0811">void</text><polygon fill="#181818" points="38.5,677.6406,28.5,681.6406,38.5,685.6406,34.5,681.6406" style="stroke:#181818;stroke-width:1.0;"/><line style="stroke:#181818;stroke-width:1.0;stroke-dasharray:2.0,2.0;" x1="32.5" x2="197.5" y1="681.6406" y2="681.6406"/><text fill="#000000" font-family="sans-serif" font-size="13" font-weight="bold" lengthAdjust="spacing" textLength="14" x="44.5" y="668.6084">16</text><text fill="#000000" font-family="sans-serif" font-size="13" lengthAdjust="spacing" textLength="129" x="62.5" y="660.4326">is removed from the UI</text><text fill="#000000" font-family="sans-serif" font-size="13" lengthAdjust="spacing" textLength="121" x="62.5" y="676.7842">as it no longer exists</text><!--SRC=[fLHDRzim3BtxLn0-EK3p1mgqm1hdCA1eSsXFxJ0eCHCJSyH0OjmEm_xxQDcJ5JixxMBeWtnyV7ooEGlRyt6BBilCJjX1_khHvM0yT8liP9pGZax62kHFBFX8zaUuxXQNrryQTB9nt58rG8IJbNnUYsCdfWbH_N9UobzWXPCPLcd4R8t7458-X2weDO8z_Uu3o_j05cwXONk0aqFlGHWgR51mp0WTPI5KK_vorpHVyqVO5lcAxPxSSSZDRzxjzYogeRzx-yLsqq7V3fSTuT_V5YD-LCFg3JWwr0Aylre8F8g7bZnj6-ouYZkZ5lkeQLU3GwkgQ0yrWWdX5Pc63rc4KlwzgWhQHnS3s5s7jCWgdDEA9yD01eIbWWKTjJ7ofyRy7Ce1j-Xqcu8DgTVWup0YituIUTbh2RsICngHnttq0AGQ5rGjhb28-sYSBAOhLFcW8AQgDgeEsKFWG6m3M4nLGsdSyh9oorIbzJhNpP0dzFuFCMrR9s1aLnTvkNvSlwo_Fps_hFCRw8gCAQd8K_0enx_6dUIoNJNiiLYaNaZyEiMUIXzdFnfpV8pJvD4eoM7w9aSVabTN7zL-5UmT7yD3UFtwRlKVG0AMmqFNIFmaBpxx0m00]--></g></svg>