<?xml version="1.0" encoding="us-ascii" standalone="no"?><svg xmlns="http://www.w3.org/2000/svg" xmlns:xlink="http://www.w3.org/1999/xlink" contentStyleType="text/css" height="781px" preserveAspectRatio="none" style="width:964px;height:781px;background:#FFFFFF;" version="1.1" viewBox="0 0 964 781" width="964px" zoomAndPan="magnify"><defs/><g><rect fill="#FFFFFF" height="598.0313" style="stroke:#181818;stroke-width:1.0;" width="10" x="17.5" y="92.6094"/><rect fill="#FFFFFF" height="566.6797" style="stroke:#181818;stroke-width:1.0;" width="10" x="198.5" y="114.9609"/><rect fill="#FFFFFF" height="473.2734" style="stroke:#181818;stroke-width:1.0;" width="10" x="427.5" y="161.6641"/><rect fill="#FFFFFF" height="30.3516" style="stroke:#181818;stroke-width:1.0;" width="10" x="576.5" y="244.7188"/><rect fill="#FFFFFF" height="299.1641" style="stroke:#181818;stroke-width:1.0;" width="10" x="576.5" y="305.4219"/><rect fill="#FFFFFF" height="195.1094" style="stroke:#181818;stroke-width:1.0;" width="10" x="696.5" y="335.7734"/><rect fill="#FFFFFF" height="30.3516" style="stroke:#181818;stroke-width:1.0;" width="10" x="915.5" y="366.125"/><rect fill="#FFFFFF" height="30.3516" style="stroke:#181818;stroke-width:1.0;" width="10" x="915.5" y="426.8281"/><line style="stroke:#181818;stroke-width:0.5;stroke-dasharray:5.0,5.0;" x1="22" x2="22" y1="82.6094" y2="699.6406"/><line style="stroke:#181818;stroke-width:0.5;stroke-dasharray:5.0,5.0;" x1="203" x2="203" y1="82.6094" y2="699.6406"/><line style="stroke:#181818;stroke-width:0.5;stroke-dasharray:5.0,5.0;" x1="432.5" x2="432.5" y1="82.6094" y2="699.6406"/><line style="stroke:#181818;stroke-width:0.5;stroke-dasharray:5.0,5.0;" x1="581.5" x2="581.5" y1="82.6094" y2="699.6406"/><line style="stroke:#181818;stroke-width:0.5;stroke-dasharray:5.0,5.0;" x1="701" x2="701" y1="82.6094" y2="699.6406"/><line style="stroke:#181818;stroke-width:0.5;stroke-dasharray:5.0,5.0;" x1="920" x2="920" y1="82.6094" y2="699.6406"/><text fill="#000000" font-family="sans-serif" font-size="14" lengthAdjust="spacing" textLength="29" x="5" y="79.5332">User</text><ellipse cx="22.5" cy="13.5" fill="#E2E2F0" rx="8" ry="8" style="stroke:#181818;stroke-width:0.5;"/><path d="M22.5,21.5 L22.5,48.5 M9.5,29.5 L35.5,29.5 M22.5,48.5 L9.5,63.5 M22.5,48.5 L35.5,63.5 " fill="none" style="stroke:#181818;stroke-width:0.5;"/><text fill="#000000" font-family="sans-serif" font-size="14" lengthAdjust="spacing" textLength="29" x="5" y="713.1738">User</text><ellipse cx="22.5" cy="724.75" fill="#E2E2F0" rx="8" ry="8" style="stroke:#181818;stroke-width:0.5;"/><path d="M22.5,732.75 L22.5,759.75 M9.5,740.75 L35.5,740.75 M22.5,759.75 L9.5,774.75 M22.5,759.75 L35.5,774.75 " fill="none" style="stroke:#181818;stroke-width:0.5;"/><rect fill="#E2E2F0" height="31.6094" rx="2.5" ry="2.5" style="stroke:#181818;stroke-width:0.5;" width="69" x="169" y="50"/><text fill="#000000" font-family="sans-serif" font-size="14" lengthAdjust="spacing" textLength="55" x="176" y="71.5332">NoteLink</text><rect fill="#E2E2F0" height="31.6094" rx="2.5" ry="2.5" style="stroke:#181818;stroke-width:0.5;" width="69" x="169" y="698.6406"/><text fill="#000000" font-family="sans-serif" font-size="14" lengthAdjust="spacing" textLength="55" x="176" y="720.1738">NoteLink</text><rect fill="#E2E2F0" height="31.6094" rx="2.5" ry="2.5" style="stroke:#181818;stroke-width:0.5;" width="96" x="384.5" y="50"/><text fill="#000000" font-family="sans-serif" font-size="14" lengthAdjust="spacing" textLength="82" x="391.5" y="71.5332">AlertProvider</text><rect fill="#E2E2F0" height="31.6094" rx="2.5" ry="2.5" style="stroke:#181818;stroke-width:0.5;" width="96" x="384.5" y="698.6406"/><text fill="#000000" font-family="sans-serif" font-size="14" lengthAdjust="spacing" textLength="82" x="391.5" y="720.1738">AlertProvider</text><rect fill="#E2E2F0" height="31.6094" rx="2.5" ry="2.5" style="stroke:#181818;stroke-width:0.5;" width="80" x="541.5" y="50"/><text fill="#000000" font-family="sans-serif" font-size="14" lengthAdjust="spacing" textLength="66" x="548.5" y="71.5332">AlertPortal</text><rect fill="#E2E2F0" height="31.6094" rx="2.5" ry="2.5" style="stroke:#181818;stroke-width:0.5;" width="80" x="541.5" y="698.6406"/><text fill="#000000" font-family="sans-serif" font-size="14" lengthAdjust="spacing" textLength="66" x="548.5" y="720.1738">AlertPortal</text><rect fill="#E2E2F0" height="31.6094" rx="2.5" ry="2.5" style="stroke:#181818;stroke-width:0.5;" width="103" x="650" y="50"/><text fill="#000000" font-family="sans-serif" font-size="14" lengthAdjust="spacing" textLength="89" x="657" y="71.5332">NotesProvider</text><rect fill="#E2E2F0" height="31.6094" rx="2.5" ry="2.5" style="stroke:#181818;stroke-width:0.5;" width="103" x="650" y="698.6406"/><text fill="#000000" font-family="sans-serif" font-size="14" lengthAdjust="spacing" textLength="89" x="657" y="720.1738">NotesProvider</text><rect fill="#E2E2F0" height="31.6094" rx="2.5" ry="2.5" style="stroke:#181818;stroke-width:0.5;" width="75" x="883" y="50"/><text fill="#000000" font-family="sans-serif" font-size="14" lengthAdjust="spacing" textLength="61" x="890" y="71.5332">Database</text><rect fill="#E2E2F0" height="31.6094" rx="2.5" ry="2.5" style="stroke:#181818;stroke-width:0.5;" width="75" x="883" y="698.6406"/><text fill="#000000" font-family="sans-serif" font-size="14" lengthAdjust="spacing" textLength="61" x="890" y="720.1738">Database</text><rect fill="#FFFFFF" height="598.0313" style="stroke:#181818;stroke-width:1.0;" width="10" x="17.5" y="92.6094"/><rect fill="#FFFFFF" height="566.6797" style="stroke:#181818;stroke-width:1.0;" width="10" x="198.5" y="114.9609"/><rect fill="#FFFFFF" height="473.2734" style="stroke:#181818;stroke-width:1.0;" width="10" x="427.5" y="161.6641"/><rect fill="#FFFFFF" height="30.3516" style="stroke:#181818;stroke-width:1.0;" width="10" x="576.5" y="244.7188"/><rect fill="#FFFFFF" height="299.1641" style="stroke:#181818;stroke-width:1.0;" width="10" x="576.5" y="305.4219"/><rect fill="#FFFFFF" height="195.1094" style="stroke:#181818;stroke-width:1.0;" width="10" x="696.5" y="335.7734"/><rect fill="#FFFFFF" height="30.3516" style="stroke:#181818;stroke-width:1.0;" width="10" x="915.5" y="366.125"/><rect fill="#FFFFFF" height="30.3516" style="stroke:#181818;stroke-width:1.0;" width="10" x="915.5" y="426.8281"/><polygon fill="#181818" points="186.5,110.9609,196.5,114.9609,186.5,118.9609,190.5,114.9609" style="stroke:#181818;stroke-width:1.0;"/><line style="stroke:#181818;stroke-width:1.0;" x1="27.5" x2="192.5" y1="114.9609" y2="114.9609"/><text fill="#000000" font-family="sans-serif" font-size="13" font-weight="bold" lengthAdjust="spacing" textLength="7" x="34.5" y="110.1045">1</text><text fill="#000000" font-family="sans-serif" font-size="13" lengthAdjust="spacing" textLength="114" x="45.5" y="110.1045">long press to delete</text><polygon fill="#181818" points="415.5,157.6641,425.5,161.6641,415.5,165.6641,419.5,161.6641" style="stroke:#181818;stroke-width:1.0;"/><line style="stroke:#181818;stroke-width:1.0;" x1="208.5" x2="421.5" y1="161.6641" y2="161.6641"/><text fill="#000000" font-family="sans-serif" font-size="13" font-weight="bold" lengthAdjust="spacing" textLength="7" x="215.5" y="148.6318">2</text><text fill="#000000" font-family="sans-serif" font-size="13" lengthAdjust="spacing" textLength="158" x="226.5" y="140.4561">showAlert("Confirm delete",</text><text fill="#000000" font-family="sans-serif" font-size="13" lengthAdjust="spacing" textLength="189" x="226.5" y="156.8076">buttons=[{onPress: deleteNote}])</text><path d="M442,174.6641 L442,216.6641 L633,216.6641 L633,184.6641 L623,174.6641 L442,174.6641 " fill="#FEFFDD" style="stroke:#181818;stroke-width:0.5;"/><path d="M623,174.6641 L623,184.6641 L633,184.6641 L623,174.6641 " fill="#FEFFDD" style="stroke:#181818;stroke-width:0.5;"/><text fill="#000000" font-family="sans-serif" font-size="13" lengthAdjust="spacing" textLength="170" x="448" y="193.1592">showAlert sets visible to true,</text><text fill="#000000" font-family="sans-serif" font-size="13" lengthAdjust="spacing" textLength="169" x="448" y="209.5107">which renders the alert dialog</text><polygon fill="#181818" points="564.5,240.7188,574.5,244.7188,564.5,248.7188,568.5,244.7188" style="stroke:#181818;stroke-width:1.0;"/><line style="stroke:#181818;stroke-width:1.0;" x1="437.5" x2="570.5" y1="244.7188" y2="244.7188"/><text fill="#000000" font-family="sans-serif" font-size="13" font-weight="bold" lengthAdjust="spacing" textLength="7" x="444.5" y="239.8623">3</text><text fill="#000000" font-family="sans-serif" font-size="13" lengthAdjust="spacing" textLength="109" x="455.5" y="239.8623">render(visible=true)</text><polygon fill="#181818" points="38.5,271.0703,28.5,275.0703,38.5,279.0703,34.5,275.0703" style="stroke:#181818;stroke-width:1.0;"/><line style="stroke:#181818;stroke-width:1.0;stroke-dasharray:2.0,2.0;" x1="32.5" x2="580.5" y1="275.0703" y2="275.0703"/><text fill="#000000" font-family="sans-serif" font-size="13" font-weight="bold" lengthAdjust="spacing" textLength="7" x="44.5" y="270.2139">4</text><text fill="#000000" font-family="sans-serif" font-size="13" lengthAdjust="spacing" textLength="123" x="55.5" y="270.2139">display dialog overlay</text><polygon fill="#181818" points="564.5,301.4219,574.5,305.4219,564.5,309.4219,568.5,305.4219" style="stroke:#181818;stroke-width:1.0;"/><line style="stroke:#181818;stroke-width:1.0;" x1="27.5" x2="570.5" y1="305.4219" y2="305.4219"/><text fill="#000000" font-family="sans-serif" font-size="13" font-weight="bold" lengthAdjust="spacing" textLength="7" x="34.5" y="300.5654">5</text><text fill="#000000" font-family="sans-serif" font-size="13" lengthAdjust="spacing" textLength="123" x="45.5" y="300.5654">press "Delete" button</text><polygon fill="#181818" points="684.5,331.7734,694.5,335.7734,684.5,339.7734,688.5,335.7734" style="stroke:#181818;stroke-width:1.0;"/><line style="stroke:#181818;stroke-width:1.0;" x1="586.5" x2="690.5" y1="335.7734" y2="335.7734"/><text fill="#000000" font-family="sans-serif" font-size="13" font-weight="bold" lengthAdjust="spacing" textLength="7" x="593.5" y="330.917">6</text><text fill="#000000" font-family="sans-serif" font-size="13" lengthAdjust="spacing" textLength="80" x="604.5" y="330.917">deleteNote(id)</text><polygon fill="#181818" points="903.5,362.125,913.5,366.125,903.5,370.125,907.5,366.125" style="stroke:#181818;stroke-width:1.0;"/><line style="stroke:#181818;stroke-width:1.0;" x1="706.5" x2="909.5" y1="366.125" y2="366.125"/><text fill="#000000" font-family="sans-serif" font-size="13" font-weight="bold" lengthAdjust="spacing" textLength="7" x="713.5" y="361.2686">7</text><text fill="#000000" font-family="sans-serif" font-size="13" lengthAdjust="spacing" textLength="133" x="724.5" y="361.2686">addPendingDeletion(id)</text><polygon fill="#181818" points="717.5,392.4766,707.5,396.4766,717.5,400.4766,713.5,396.4766" style="stroke:#181818;stroke-width:1.0;"/><line style="stroke:#181818;stroke-width:1.0;stroke-dasharray:2.0,2.0;" x1="711.5" x2="919.5" y1="396.4766" y2="396.4766"/><text fill="#000000" font-family="sans-serif" font-size="13" font-weight="bold" lengthAdjust="spacing" textLength="7" x="723.5" y="391.6201">8</text><text fill="#000000" font-family="sans-serif" font-size="13" lengthAdjust="spacing" textLength="22" x="734.5" y="391.6201">void</text><polygon fill="#181818" points="903.5,422.8281,913.5,426.8281,903.5,430.8281,907.5,426.8281" style="stroke:#181818;stroke-width:1.0;"/><line style="stroke:#181818;stroke-width:1.0;" x1="706.5" x2="909.5" y1="426.8281" y2="426.8281"/><text fill="#000000" font-family="sans-serif" font-size="13" font-weight="bold" lengthAdjust="spacing" textLength="7" x="713.5" y="421.9717">9</text><text fill="#000000" font-family="sans-serif" font-size="13" lengthAdjust="spacing" textLength="80" x="724.5" y="421.9717">deleteNote(id)</text><polygon fill="#181818" points="717.5,453.1797,707.5,457.1797,717.5,461.1797,713.5,457.1797" style="stroke:#181818;stroke-width:1.0;"/><line style="stroke:#181818;stroke-width:1.0;stroke-dasharray:2.0,2.0;" x1="711.5" x2="919.5" y1="457.1797" y2="457.1797"/><text fill="#000000" font-family="sans-serif" font-size="13" font-weight="bold" lengthAdjust="spacing" textLength="14" x="723.5" y="452.3232">10</text><text fill="#000000" font-family="sans-serif" font-size="13" lengthAdjust="spacing" textLength="22" x="741.5" y="452.3232">void</text><line style="stroke:#181818;stroke-width:1.0;" x1="706.5" x2="748.5" y1="487.5313" y2="487.5313"/><line style="stroke:#181818;stroke-width:1.0;" x1="748.5" x2="748.5" y1="487.5313" y2="500.5313"/><line style="stroke:#181818;stroke-width:1.0;" x1="707.5" x2="748.5" y1="500.5313" y2="500.5313"/><polygon fill="#181818" points="717.5,496.5313,707.5,500.5313,717.5,504.5313,713.5,500.5313" style="stroke:#181818;stroke-width:1.0;"/><text fill="#000000" font-family="sans-serif" font-size="13" font-weight="bold" lengthAdjust="spacing" textLength="14" x="713.5" y="482.6748">11</text><text fill="#000000" font-family="sans-serif" font-size="13" lengthAdjust="spacing" textLength="177" x="731.5" y="482.6748">dispatch("DELETE_NOTE", id)</text><polygon fill="#181818" points="597.5,526.8828,587.5,530.8828,597.5,534.8828,593.5,530.8828" style="stroke:#181818;stroke-width:1.0;"/><line style="stroke:#181818;stroke-width:1.0;stroke-dasharray:2.0,2.0;" x1="591.5" x2="700.5" y1="530.8828" y2="530.8828"/><text fill="#000000" font-family="sans-serif" font-size="13" font-weight="bold" lengthAdjust="spacing" textLength="14" x="603.5" y="526.0264">12</text><text fill="#000000" font-family="sans-serif" font-size="13" lengthAdjust="spacing" textLength="22" x="621.5" y="526.0264">void</text><line style="stroke:#181818;stroke-width:1.0;" x1="586.5" x2="628.5" y1="561.2344" y2="561.2344"/><line style="stroke:#181818;stroke-width:1.0;" x1="628.5" x2="628.5" y1="561.2344" y2="574.2344"/><line style="stroke:#181818;stroke-width:1.0;" x1="587.5" x2="628.5" y1="574.2344" y2="574.2344"/><polygon fill="#181818" points="597.5,570.2344,587.5,574.2344,597.5,578.2344,593.5,574.2344" style="stroke:#181818;stroke-width:1.0;"/><text fill="#000000" font-family="sans-serif" font-size="13" font-weight="bold" lengthAdjust="spacing" textLength="14" x="593.5" y="556.3779">13</text><text fill="#000000" font-family="sans-serif" font-size="13" lengthAdjust="spacing" textLength="55" x="611.5" y="556.3779">onClose()</text><polygon fill="#181818" points="448.5,600.5859,438.5,604.5859,448.5,608.5859,444.5,604.5859" style="stroke:#181818;stroke-width:1.0;"/><line style="stroke:#181818;stroke-width:1.0;stroke-dasharray:2.0,2.0;" x1="442.5" x2="580.5" y1="604.5859" y2="604.5859"/><text fill="#000000" font-family="sans-serif" font-size="13" font-weight="bold" lengthAdjust="spacing" textLength="14" x="454.5" y="599.7295">14</text><text fill="#000000" font-family="sans-serif" font-size="13" lengthAdjust="spacing" textLength="22" x="472.5" y="599.7295">void</text><polygon fill="#181818" points="219.5,630.9375,209.5,634.9375,219.5,638.9375,215.5,634.9375" style="stroke:#181818;stroke-width:1.0;"/><line style="stroke:#181818;stroke-width:1.0;stroke-dasharray:2.0,2.0;" x1="213.5" x2="431.5" y1="634.9375" y2="634.9375"/><text fill="#000000" font-family="sans-serif" font-size="13" font-weight="bold" lengthAdjust="spacing" textLength="14" x="225.5" y="630.0811">15</text><text fill="#000000" font-family="sans-serif" font-size="13" lengthAdjust="spacing" textLength="22" x="243.5" y="630.0811">void</text><polygon fill="#181818" points="38.5,677.6406,28.5,681.6406,38.5,685.6406,34.5,681.6406" style="stroke:#181818;stroke-width:1.0;"/><line style="stroke:#181818;stroke-width:1.0;stroke-dasharray:2.0,2.0;" x1="32.5" x2="202.5" y1="681.6406" y2="681.6406"/><text fill="#000000" font-family="sans-serif" font-size="13" font-weight="bold" lengthAdjust="spacing" textLength="14" x="44.5" y="668.6084">16</text><text fill="#000000" font-family="sans-serif" font-size="13" lengthAdjust="spacing" textLength="129" x="62.5" y="660.4326">is removed from the UI</text><text fill="#000000" font-family="sans-serif" font-size="13" lengthAdjust="spacing" textLength="121" x="62.5" y="676.7842">as it no longer exists</text><!--SRC=[dLF1JkD03BtdAwoSWaH_00cafUa12R4zm6bPhQOTjx4s7LSpRW2X_VTr9c4oRU729PgCttkstzZc8EmEknNweZ1hOG_bKq1VWWdG7ugzyK9hsXidK3wmu3svlp7S7ux3FrhqilJSaHqbuirSNZ_3iHVJHjHmF4yLZhJYpPbMRSIiJC08gMzZ5zGPmQ7y_WEpcrWiN47BRWjxZo60C5XiKN1Yn8wA25NAH-rA2ms_nD-gdBFRaD-DtFBosQqEeXw6wr_lx9QzzDKOx0l-z_jYqazkE8s0fsqZm9jF4q502T1He5MBVQtY3wZ9NXfQD-3HgIlQGuDW8joIQNbR92cjVt1LHGTqDOfTzqfPKQFv8tgcnEYPDa5XtvgtKHguGw-_XSLJQZ8vPHmSBkl18nWSEakPSjwajuNSkufiLcTw_YA1bLZVAiLOkzGUoMrZHc9tJDMnKDpiE4_7PFDc-javK_wgc6yfvasgjqRMJLNMY_l5u-BFmy_7HNa9VPA9abjwAfxic4nCM7RpbWDM5_chPbDsgZM-npGyqyASGjC8V-p9D2yKTD9sEYOMDfvtSJYVxfwTxYK9E8xBfqXyfI0X5urxzny0]--></g></svg>