<?xml version="1.0" encoding="us-ascii" standalone="no"?><svg xmlns="http://www.w3.org/2000/svg" xmlns:xlink="http://www.w3.org/1999/xlink" contentStyleType="text/css" height="683px" preserveAspectRatio="none" style="width:1006px;height:683px;background:#FFFFFF;" version="1.1" viewBox="0 0 1006 683" width="1006px" zoomAndPan="magnify"><defs/><g><rect fill="#FFFFFF" height="499.9766" style="stroke:#181818;stroke-width:1.0;" width="10" x="17.5" y="92.6094"/><rect fill="#FFFFFF" height="452.2734" style="stroke:#181818;stroke-width:1.0;" width="10" x="200.5" y="131.3125"/><rect fill="#FFFFFF" height="30.3516" style="stroke:#181818;stroke-width:1.0;" width="10" x="456.5" y="178.0156"/><rect fill="#FFFFFF" height="281.8125" style="stroke:#181818;stroke-width:1.0;" width="10" x="456.5" y="255.0703"/><rect fill="#FFFFFF" height="221.1094" style="stroke:#181818;stroke-width:1.0;" width="10" x="613.5" y="285.4219"/><rect fill="#FFFFFF" height="30.3516" style="stroke:#181818;stroke-width:1.0;" width="10" x="957.5" y="445.8281"/><line style="stroke:#181818;stroke-width:0.5;stroke-dasharray:5.0,5.0;" x1="22" x2="22" y1="82.6094" y2="601.5859"/><line style="stroke:#181818;stroke-width:0.5;stroke-dasharray:5.0,5.0;" x1="205.5" x2="205.5" y1="82.6094" y2="601.5859"/><line style="stroke:#181818;stroke-width:0.5;stroke-dasharray:5.0,5.0;" x1="461.5" x2="461.5" y1="82.6094" y2="601.5859"/><line style="stroke:#181818;stroke-width:0.5;stroke-dasharray:5.0,5.0;" x1="618" x2="618" y1="82.6094" y2="601.5859"/><line style="stroke:#181818;stroke-width:0.5;stroke-dasharray:5.0,5.0;" x1="962" x2="962" y1="82.6094" y2="601.5859"/><text fill="#000000" font-family="sans-serif" font-size="14" lengthAdjust="spacing" textLength="29" x="5" y="79.5332">User</text><ellipse cx="22.5" cy="13.5" fill="#E2E2F0" rx="8" ry="8" style="stroke:#181818;stroke-width:0.5;"/><path d="M22.5,21.5 L22.5,48.5 M9.5,29.5 L35.5,29.5 M22.5,48.5 L9.5,63.5 M22.5,48.5 L35.5,63.5 " fill="none" style="stroke:#181818;stroke-width:0.5;"/><text fill="#000000" font-family="sans-serif" font-size="14" lengthAdjust="spacing" textLength="29" x="5" y="615.1191">User</text><ellipse cx="22.5" cy="626.6953" fill="#E2E2F0" rx="8" ry="8" style="stroke:#181818;stroke-width:0.5;"/><path d="M22.5,634.6953 L22.5,661.6953 M9.5,642.6953 L35.5,642.6953 M22.5,661.6953 L9.5,676.6953 M22.5,661.6953 L35.5,676.6953 " fill="none" style="stroke:#181818;stroke-width:0.5;"/><rect fill="#E2E2F0" height="31.6094" rx="2.5" ry="2.5" style="stroke:#181818;stroke-width:0.5;" width="146" x="132.5" y="50"/><text fill="#000000" font-family="sans-serif" font-size="14" lengthAdjust="spacing" textLength="132" x="139.5" y="71.5332">NoteLink Component</text><rect fill="#E2E2F0" height="31.6094" rx="2.5" ry="2.5" style="stroke:#181818;stroke-width:0.5;" width="146" x="132.5" y="600.5859"/><text fill="#000000" font-family="sans-serif" font-size="14" lengthAdjust="spacing" textLength="132" x="139.5" y="622.1191">NoteLink Component</text><rect fill="#E2E2F0" height="31.6094" rx="2.5" ry="2.5" style="stroke:#181818;stroke-width:0.5;" width="92" x="415.5" y="50"/><text fill="#000000" font-family="sans-serif" font-size="14" lengthAdjust="spacing" textLength="78" x="422.5" y="71.5332">Note Screen</text><rect fill="#E2E2F0" height="31.6094" rx="2.5" ry="2.5" style="stroke:#181818;stroke-width:0.5;" width="92" x="415.5" y="600.5859"/><text fill="#000000" font-family="sans-serif" font-size="14" lengthAdjust="spacing" textLength="78" x="422.5" y="622.1191">Note Screen</text><rect fill="#E2E2F0" height="31.6094" rx="2.5" ry="2.5" style="stroke:#181818;stroke-width:0.5;" width="103" x="567" y="50"/><text fill="#000000" font-family="sans-serif" font-size="14" lengthAdjust="spacing" textLength="89" x="574" y="71.5332">NotesProvider</text><rect fill="#E2E2F0" height="31.6094" rx="2.5" ry="2.5" style="stroke:#181818;stroke-width:0.5;" width="103" x="567" y="600.5859"/><text fill="#000000" font-family="sans-serif" font-size="14" lengthAdjust="spacing" textLength="89" x="574" y="622.1191">NotesProvider</text><rect fill="#E2E2F0" height="31.6094" rx="2.5" ry="2.5" style="stroke:#181818;stroke-width:0.5;" width="75" x="925" y="50"/><text fill="#000000" font-family="sans-serif" font-size="14" lengthAdjust="spacing" textLength="61" x="932" y="71.5332">Database</text><rect fill="#E2E2F0" height="31.6094" rx="2.5" ry="2.5" style="stroke:#181818;stroke-width:0.5;" width="75" x="925" y="600.5859"/><text fill="#000000" font-family="sans-serif" font-size="14" lengthAdjust="spacing" textLength="61" x="932" y="622.1191">Database</text><rect fill="#FFFFFF" height="499.9766" style="stroke:#181818;stroke-width:1.0;" width="10" x="17.5" y="92.6094"/><rect fill="#FFFFFF" height="452.2734" style="stroke:#181818;stroke-width:1.0;" width="10" x="200.5" y="131.3125"/><rect fill="#FFFFFF" height="30.3516" style="stroke:#181818;stroke-width:1.0;" width="10" x="456.5" y="178.0156"/><rect fill="#FFFFFF" height="281.8125" style="stroke:#181818;stroke-width:1.0;" width="10" x="456.5" y="255.0703"/><rect fill="#FFFFFF" height="221.1094" style="stroke:#181818;stroke-width:1.0;" width="10" x="613.5" y="285.4219"/><rect fill="#FFFFFF" height="30.3516" style="stroke:#181818;stroke-width:1.0;" width="10" x="957.5" y="445.8281"/><polygon fill="#181818" points="188.5,127.3125,198.5,131.3125,188.5,135.3125,192.5,131.3125" style="stroke:#181818;stroke-width:1.0;"/><line style="stroke:#181818;stroke-width:1.0;" x1="27.5" x2="194.5" y1="131.3125" y2="131.3125"/><text fill="#000000" font-family="sans-serif" font-size="13" font-weight="bold" lengthAdjust="spacing" textLength="7" x="34.5" y="118.2803">1</text><text fill="#000000" font-family="sans-serif" font-size="13" lengthAdjust="spacing" textLength="131" x="45.5" y="110.1045">trigger CTA to navigate</text><text fill="#000000" font-family="sans-serif" font-size="13" lengthAdjust="spacing" textLength="83" x="45.5" y="126.4561">to note screen</text><polygon fill="#181818" points="444.5,174.0156,454.5,178.0156,444.5,182.0156,448.5,178.0156" style="stroke:#181818;stroke-width:1.0;"/><line style="stroke:#181818;stroke-width:1.0;" x1="210.5" x2="450.5" y1="178.0156" y2="178.0156"/><text fill="#000000" font-family="sans-serif" font-size="13" font-weight="bold" lengthAdjust="spacing" textLength="7" x="217.5" y="164.9834">2</text><text fill="#000000" font-family="sans-serif" font-size="13" lengthAdjust="spacing" textLength="212" x="228.5" y="156.8076">router.navigate({pathname:'/note/[id]',</text><text fill="#000000" font-family="sans-serif" font-size="13" lengthAdjust="spacing" textLength="120" x="324.5" y="173.1592">params:{id:note.id }})</text><polygon fill="#181818" points="38.5,204.3672,28.5,208.3672,38.5,212.3672,34.5,208.3672" style="stroke:#181818;stroke-width:1.0;"/><line style="stroke:#181818;stroke-width:1.0;stroke-dasharray:2.0,2.0;" x1="32.5" x2="460.5" y1="208.3672" y2="208.3672"/><text fill="#000000" font-family="sans-serif" font-size="13" font-weight="bold" lengthAdjust="spacing" textLength="7" x="44.5" y="203.5107">3</text><text fill="#000000" font-family="sans-serif" font-size="13" lengthAdjust="spacing" textLength="108" x="55.5" y="203.5107">render note screen</text><polygon fill="#181818" points="444.5,251.0703,454.5,255.0703,444.5,259.0703,448.5,255.0703" style="stroke:#181818;stroke-width:1.0;"/><line style="stroke:#181818;stroke-width:1.0;" x1="27.5" x2="450.5" y1="255.0703" y2="255.0703"/><text fill="#000000" font-family="sans-serif" font-size="13" font-weight="bold" lengthAdjust="spacing" textLength="7" x="34.5" y="242.0381">4</text><text fill="#000000" font-family="sans-serif" font-size="13" lengthAdjust="spacing" textLength="122" x="45.5" y="233.8623">update note data and</text><text fill="#000000" font-family="sans-serif" font-size="13" lengthAdjust="spacing" textLength="139" x="45.5" y="250.2139">trigger CTA to save note</text><polygon fill="#181818" points="601.5,281.4219,611.5,285.4219,601.5,289.4219,605.5,285.4219" style="stroke:#181818;stroke-width:1.0;"/><line style="stroke:#181818;stroke-width:1.0;" x1="466.5" x2="607.5" y1="285.4219" y2="285.4219"/><text fill="#000000" font-family="sans-serif" font-size="13" font-weight="bold" lengthAdjust="spacing" textLength="7" x="473.5" y="280.5654">5</text><text fill="#000000" font-family="sans-serif" font-size="13" lengthAdjust="spacing" textLength="117" x="484.5" y="280.5654">updateNote(id, data)</text><line style="stroke:#181818;stroke-width:1.0;" x1="623.5" x2="665.5" y1="315.7734" y2="315.7734"/><line style="stroke:#181818;stroke-width:1.0;" x1="665.5" x2="665.5" y1="315.7734" y2="328.7734"/><line style="stroke:#181818;stroke-width:1.0;" x1="624.5" x2="665.5" y1="328.7734" y2="328.7734"/><polygon fill="#181818" points="634.5,324.7734,624.5,328.7734,634.5,332.7734,630.5,328.7734" style="stroke:#181818;stroke-width:1.0;"/><text fill="#000000" font-family="sans-serif" font-size="13" font-weight="bold" lengthAdjust="spacing" textLength="7" x="630.5" y="310.917">6</text><text fill="#000000" font-family="sans-serif" font-size="13" lengthAdjust="spacing" textLength="135" x="641.5" y="310.917">Find existing note by id</text><line style="stroke:#181818;stroke-width:1.0;" x1="623.5" x2="665.5" y1="359.125" y2="359.125"/><line style="stroke:#181818;stroke-width:1.0;" x1="665.5" x2="665.5" y1="359.125" y2="372.125"/><line style="stroke:#181818;stroke-width:1.0;" x1="624.5" x2="665.5" y1="372.125" y2="372.125"/><polygon fill="#181818" points="634.5,368.125,624.5,372.125,634.5,376.125,630.5,372.125" style="stroke:#181818;stroke-width:1.0;"/><text fill="#000000" font-family="sans-serif" font-size="13" font-weight="bold" lengthAdjust="spacing" textLength="7" x="630.5" y="354.2686">7</text><text fill="#000000" font-family="sans-serif" font-size="13" lengthAdjust="spacing" textLength="229" x="641.5" y="354.2686">updatedNote = { ...currentNote, ...data }</text><line style="stroke:#181818;stroke-width:1.0;" x1="623.5" x2="665.5" y1="402.4766" y2="402.4766"/><line style="stroke:#181818;stroke-width:1.0;" x1="665.5" x2="665.5" y1="402.4766" y2="415.4766"/><line style="stroke:#181818;stroke-width:1.0;" x1="624.5" x2="665.5" y1="415.4766" y2="415.4766"/><polygon fill="#181818" points="634.5,411.4766,624.5,415.4766,634.5,419.4766,630.5,415.4766" style="stroke:#181818;stroke-width:1.0;"/><text fill="#000000" font-family="sans-serif" font-size="13" font-weight="bold" lengthAdjust="spacing" textLength="7" x="630.5" y="397.6201">8</text><text fill="#000000" font-family="sans-serif" font-size="13" lengthAdjust="spacing" textLength="309" x="641.5" y="397.6201">dispatch("UPDATE_NOTE", { id, note: updatedNote })</text><polygon fill="#181818" points="945.5,441.8281,955.5,445.8281,945.5,449.8281,949.5,445.8281" style="stroke:#181818;stroke-width:1.0;"/><line style="stroke:#181818;stroke-width:1.0;" x1="623.5" x2="951.5" y1="445.8281" y2="445.8281"/><text fill="#000000" font-family="sans-serif" font-size="13" font-weight="bold" lengthAdjust="spacing" textLength="7" x="630.5" y="440.9717">9</text><text fill="#000000" font-family="sans-serif" font-size="13" lengthAdjust="spacing" textLength="244" x="641.5" y="440.9717">saveNote(updatedNote, markAsDirty=true)</text><polygon fill="#181818" points="634.5,472.1797,624.5,476.1797,634.5,480.1797,630.5,476.1797" style="stroke:#181818;stroke-width:1.0;"/><line style="stroke:#181818;stroke-width:1.0;stroke-dasharray:2.0,2.0;" x1="628.5" x2="961.5" y1="476.1797" y2="476.1797"/><text fill="#000000" font-family="sans-serif" font-size="13" font-weight="bold" lengthAdjust="spacing" textLength="14" x="640.5" y="471.3232">10</text><text fill="#000000" font-family="sans-serif" font-size="13" lengthAdjust="spacing" textLength="22" x="658.5" y="471.3232">void</text><polygon fill="#181818" points="477.5,502.5313,467.5,506.5313,477.5,510.5313,473.5,506.5313" style="stroke:#181818;stroke-width:1.0;"/><line style="stroke:#181818;stroke-width:1.0;stroke-dasharray:2.0,2.0;" x1="471.5" x2="617.5" y1="506.5313" y2="506.5313"/><text fill="#000000" font-family="sans-serif" font-size="13" font-weight="bold" lengthAdjust="spacing" textLength="14" x="483.5" y="501.6748">11</text><text fill="#000000" font-family="sans-serif" font-size="13" lengthAdjust="spacing" textLength="22" x="501.5" y="501.6748">void</text><polygon fill="#181818" points="221.5,532.8828,211.5,536.8828,221.5,540.8828,217.5,536.8828" style="stroke:#181818;stroke-width:1.0;"/><line style="stroke:#181818;stroke-width:1.0;" x1="215.5" x2="460.5" y1="536.8828" y2="536.8828"/><text fill="#000000" font-family="sans-serif" font-size="13" font-weight="bold" lengthAdjust="spacing" textLength="14" x="227.5" y="532.0264">12</text><text fill="#000000" font-family="sans-serif" font-size="13" lengthAdjust="spacing" textLength="73" x="245.5" y="532.0264">router.back()</text><polygon fill="#181818" points="38.5,579.5859,28.5,583.5859,38.5,587.5859,34.5,583.5859" style="stroke:#181818;stroke-width:1.0;"/><line style="stroke:#181818;stroke-width:1.0;stroke-dasharray:2.0,2.0;" x1="32.5" x2="204.5" y1="583.5859" y2="583.5859"/><text fill="#000000" font-family="sans-serif" font-size="13" font-weight="bold" lengthAdjust="spacing" textLength="14" x="44.5" y="570.5537">13</text><text fill="#000000" font-family="sans-serif" font-size="13" lengthAdjust="spacing" textLength="130" x="62.5" y="562.3779">render previous screen</text><text fill="#000000" font-family="sans-serif" font-size="13" lengthAdjust="spacing" textLength="131" x="62.5" y="578.7295">with updated note data</text><!--SRC=[TL9TQzj047pNhrZq4WTivTsGWcCbO4ZJGEsdkeIrxh0Nepjnjr8JZFzxzqwI8yKj0d4VixCpUuCrMrENE-sI10ks3jADrou5z10MIOMEgQ0A3KFwOba_apd2qfQLDTfm17v7CjT0-5auhKrBjRg-zw_EDgIwPajhMB_p69OZumwzZeZy8Kga1eKxQWi_c7sB_M4Ex6Y_bvFbUW5imM13Uy5kJTW4GJuA-YI9kcEna6nMGk5ipTfbVUdaL24V39PwVdCNAEv-aVfzCzsQBOTFn6BfvoTIyt2RaOBp-NQWSfK8xIom1wd2huqO7gbHUWY_U8fowag5ymYN5G8Q9NR6FZqsBIGP4wq2JJVM2rSO_8JKDD8DbFRZJ_g2KUqJ6GNwdJoJsRToTXz0wj_ejfEA6RY74sHPLjHEh7CucePzD7F-JpT5NiPU72RfvZLVh1_VNdwi7zEfC0NXeVkuXqnym9C_24MOIRGwm4sXH7TS-9mSVzopg_N0luHB2cSZ7OqLXuFd4SobJ_z2Np7z7DlfTy7iKhN3uZYv_VBWRVok4b8vtP2jVPUIhVb3VEXTVmPYI1RJ_1S0]--></g></svg>