<?xml version="1.0" encoding="us-ascii" standalone="no"?><svg xmlns="http://www.w3.org/2000/svg" xmlns:xlink="http://www.w3.org/1999/xlink" contentStyleType="text/css" height="697px" preserveAspectRatio="none" style="width:1006px;height:697px;background:#FFFFFF;" version="1.1" viewBox="0 0 1006 697" width="1006px" zoomAndPan="magnify"><defs/><g><rect fill="#FFFFFF" height="513.9766" style="stroke:#181818;stroke-width:1.0;" width="10" x="17.5" y="92.6094"/><rect fill="#FFFFFF" height="46.7031" style="stroke:#181818;stroke-width:1.0;" width="10" x="200.5" y="131.3125"/><rect fill="#FFFFFF" height="46.7031" style="stroke:#181818;stroke-width:1.0;" width="10" x="200.5" y="550.8828"/><rect fill="#FFFFFF" height="30.3516" style="stroke:#181818;stroke-width:1.0;" width="10" x="456.5" y="178.0156"/><rect fill="#FFFFFF" height="281.8125" style="stroke:#181818;stroke-width:1.0;" width="10" x="456.5" y="269.0703"/><rect fill="#FFFFFF" height="221.1094" style="stroke:#181818;stroke-width:1.0;" width="10" x="613.5" y="299.4219"/><rect fill="#FFFFFF" height="30.3516" style="stroke:#181818;stroke-width:1.0;" width="10" x="957.5" y="459.8281"/><line style="stroke:#181818;stroke-width:0.5;stroke-dasharray:5.0,5.0;" x1="22" x2="22" y1="82.6094" y2="615.5859"/><line style="stroke:#181818;stroke-width:0.5;stroke-dasharray:5.0,5.0;" x1="205.5" x2="205.5" y1="82.6094" y2="615.5859"/><line style="stroke:#181818;stroke-width:0.5;stroke-dasharray:5.0,5.0;" x1="461.5" x2="461.5" y1="82.6094" y2="615.5859"/><line style="stroke:#181818;stroke-width:0.5;stroke-dasharray:5.0,5.0;" x1="618" x2="618" y1="82.6094" y2="615.5859"/><line style="stroke:#181818;stroke-width:0.5;stroke-dasharray:5.0,5.0;" x1="962" x2="962" y1="82.6094" y2="615.5859"/><text fill="#000000" font-family="sans-serif" font-size="14" lengthAdjust="spacing" textLength="29" x="5" y="79.5332">User</text><ellipse cx="22.5" cy="13.5" fill="#E2E2F0" rx="8" ry="8" style="stroke:#181818;stroke-width:0.5;"/><path d="M22.5,21.5 L22.5,48.5 M9.5,29.5 L35.5,29.5 M22.5,48.5 L9.5,63.5 M22.5,48.5 L35.5,63.5 " fill="none" style="stroke:#181818;stroke-width:0.5;"/><text fill="#000000" font-family="sans-serif" font-size="14" lengthAdjust="spacing" textLength="29" x="5" y="629.1191">User</text><ellipse cx="22.5" cy="640.6953" fill="#E2E2F0" rx="8" ry="8" style="stroke:#181818;stroke-width:0.5;"/><path d="M22.5,648.6953 L22.5,675.6953 M9.5,656.6953 L35.5,656.6953 M22.5,675.6953 L9.5,690.6953 M22.5,675.6953 L35.5,690.6953 " fill="none" style="stroke:#181818;stroke-width:0.5;"/><rect fill="#E2E2F0" height="31.6094" rx="2.5" ry="2.5" style="stroke:#181818;stroke-width:0.5;" width="146" x="132.5" y="50"/><text fill="#000000" font-family="sans-serif" font-size="14" lengthAdjust="spacing" textLength="132" x="139.5" y="71.5332">NoteLink Component</text><rect fill="#E2E2F0" height="31.6094" rx="2.5" ry="2.5" style="stroke:#181818;stroke-width:0.5;" width="146" x="132.5" y="614.5859"/><text fill="#000000" font-family="sans-serif" font-size="14" lengthAdjust="spacing" textLength="132" x="139.5" y="636.1191">NoteLink Component</text><rect fill="#E2E2F0" height="31.6094" rx="2.5" ry="2.5" style="stroke:#181818;stroke-width:0.5;" width="92" x="415.5" y="50"/><text fill="#000000" font-family="sans-serif" font-size="14" lengthAdjust="spacing" textLength="78" x="422.5" y="71.5332">Note Screen</text><rect fill="#E2E2F0" height="31.6094" rx="2.5" ry="2.5" style="stroke:#181818;stroke-width:0.5;" width="92" x="415.5" y="614.5859"/><text fill="#000000" font-family="sans-serif" font-size="14" lengthAdjust="spacing" textLength="78" x="422.5" y="636.1191">Note Screen</text><rect fill="#E2E2F0" height="31.6094" rx="2.5" ry="2.5" style="stroke:#181818;stroke-width:0.5;" width="103" x="567" y="50"/><text fill="#000000" font-family="sans-serif" font-size="14" lengthAdjust="spacing" textLength="89" x="574" y="71.5332">NotesProvider</text><rect fill="#E2E2F0" height="31.6094" rx="2.5" ry="2.5" style="stroke:#181818;stroke-width:0.5;" width="103" x="567" y="614.5859"/><text fill="#000000" font-family="sans-serif" font-size="14" lengthAdjust="spacing" textLength="89" x="574" y="636.1191">NotesProvider</text><rect fill="#E2E2F0" height="31.6094" rx="2.5" ry="2.5" style="stroke:#181818;stroke-width:0.5;" width="75" x="925" y="50"/><text fill="#000000" font-family="sans-serif" font-size="14" lengthAdjust="spacing" textLength="61" x="932" y="71.5332">Database</text><rect fill="#E2E2F0" height="31.6094" rx="2.5" ry="2.5" style="stroke:#181818;stroke-width:0.5;" width="75" x="925" y="614.5859"/><text fill="#000000" font-family="sans-serif" font-size="14" lengthAdjust="spacing" textLength="61" x="932" y="636.1191">Database</text><rect fill="#FFFFFF" height="513.9766" style="stroke:#181818;stroke-width:1.0;" width="10" x="17.5" y="92.6094"/><rect fill="#FFFFFF" height="46.7031" style="stroke:#181818;stroke-width:1.0;" width="10" x="200.5" y="131.3125"/><rect fill="#FFFFFF" height="46.7031" style="stroke:#181818;stroke-width:1.0;" width="10" x="200.5" y="550.8828"/><rect fill="#FFFFFF" height="30.3516" style="stroke:#181818;stroke-width:1.0;" width="10" x="456.5" y="178.0156"/><rect fill="#FFFFFF" height="281.8125" style="stroke:#181818;stroke-width:1.0;" width="10" x="456.5" y="269.0703"/><rect fill="#FFFFFF" height="221.1094" style="stroke:#181818;stroke-width:1.0;" width="10" x="613.5" y="299.4219"/><rect fill="#FFFFFF" height="30.3516" style="stroke:#181818;stroke-width:1.0;" width="10" x="957.5" y="459.8281"/><polygon fill="#181818" points="188.5,127.3125,198.5,131.3125,188.5,135.3125,192.5,131.3125" style="stroke:#181818;stroke-width:1.0;"/><line style="stroke:#181818;stroke-width:1.0;" x1="27.5" x2="194.5" y1="131.3125" y2="131.3125"/><text fill="#000000" font-family="sans-serif" font-size="13" font-weight="bold" lengthAdjust="spacing" textLength="7" x="34.5" y="118.2803">1</text><text fill="#000000" font-family="sans-serif" font-size="13" lengthAdjust="spacing" textLength="131" x="45.5" y="110.1045">trigger CTA to navigate</text><text fill="#000000" font-family="sans-serif" font-size="13" lengthAdjust="spacing" textLength="83" x="45.5" y="126.4561">to note screen</text><polygon fill="#181818" points="444.5,174.0156,454.5,178.0156,444.5,182.0156,448.5,178.0156" style="stroke:#181818;stroke-width:1.0;"/><line style="stroke:#181818;stroke-width:1.0;" x1="205.5" x2="450.5" y1="178.0156" y2="178.0156"/><text fill="#000000" font-family="sans-serif" font-size="13" font-weight="bold" lengthAdjust="spacing" textLength="7" x="212.5" y="164.9834">2</text><text fill="#000000" font-family="sans-serif" font-size="13" lengthAdjust="spacing" textLength="212" x="223.5" y="156.8076">router.navigate({pathname:'/note/[id]',</text><text fill="#000000" font-family="sans-serif" font-size="13" lengthAdjust="spacing" textLength="120" x="319.5" y="173.1592">params:{id:note.id }})</text><polygon fill="#181818" points="38.5,204.3672,28.5,208.3672,38.5,212.3672,34.5,208.3672" style="stroke:#181818;stroke-width:1.0;"/><line style="stroke:#181818;stroke-width:1.0;stroke-dasharray:2.0,2.0;" x1="32.5" x2="460.5" y1="208.3672" y2="208.3672"/><text fill="#000000" font-family="sans-serif" font-size="13" font-weight="bold" lengthAdjust="spacing" textLength="7" x="44.5" y="203.5107">3</text><text fill="#000000" font-family="sans-serif" font-size="13" lengthAdjust="spacing" textLength="108" x="55.5" y="203.5107">render note screen</text><polygon fill="#181818" points="449.5,234.7188,459.5,238.7188,449.5,242.7188,453.5,238.7188" style="stroke:#181818;stroke-width:1.0;"/><line style="stroke:#181818;stroke-width:1.0;" x1="27.5" x2="455.5" y1="238.7188" y2="238.7188"/><text fill="#000000" font-family="sans-serif" font-size="13" font-weight="bold" lengthAdjust="spacing" textLength="7" x="34.5" y="233.8623">4</text><text fill="#000000" font-family="sans-serif" font-size="13" lengthAdjust="spacing" textLength="97" x="45.5" y="233.8623">update note data</text><polygon fill="#181818" points="444.5,265.0703,454.5,269.0703,444.5,273.0703,448.5,269.0703" style="stroke:#181818;stroke-width:1.0;"/><line style="stroke:#181818;stroke-width:1.0;" x1="27.5" x2="450.5" y1="269.0703" y2="269.0703"/><text fill="#000000" font-family="sans-serif" font-size="13" font-weight="bold" lengthAdjust="spacing" textLength="7" x="34.5" y="264.2139">5</text><text fill="#000000" font-family="sans-serif" font-size="13" lengthAdjust="spacing" textLength="139" x="45.5" y="264.2139">trigger CTA to save note</text><polygon fill="#181818" points="601.5,295.4219,611.5,299.4219,601.5,303.4219,605.5,299.4219" style="stroke:#181818;stroke-width:1.0;"/><line style="stroke:#181818;stroke-width:1.0;" x1="466.5" x2="607.5" y1="299.4219" y2="299.4219"/><text fill="#000000" font-family="sans-serif" font-size="13" font-weight="bold" lengthAdjust="spacing" textLength="7" x="473.5" y="294.5654">6</text><text fill="#000000" font-family="sans-serif" font-size="13" lengthAdjust="spacing" textLength="117" x="484.5" y="294.5654">updateNote(id, data)</text><line style="stroke:#181818;stroke-width:1.0;" x1="623.5" x2="665.5" y1="329.7734" y2="329.7734"/><line style="stroke:#181818;stroke-width:1.0;" x1="665.5" x2="665.5" y1="329.7734" y2="342.7734"/><line style="stroke:#181818;stroke-width:1.0;" x1="624.5" x2="665.5" y1="342.7734" y2="342.7734"/><polygon fill="#181818" points="634.5,338.7734,624.5,342.7734,634.5,346.7734,630.5,342.7734" style="stroke:#181818;stroke-width:1.0;"/><text fill="#000000" font-family="sans-serif" font-size="13" font-weight="bold" lengthAdjust="spacing" textLength="7" x="630.5" y="324.917">7</text><text fill="#000000" font-family="sans-serif" font-size="13" lengthAdjust="spacing" textLength="135" x="641.5" y="324.917">Find existing note by id</text><line style="stroke:#181818;stroke-width:1.0;" x1="623.5" x2="665.5" y1="373.125" y2="373.125"/><line style="stroke:#181818;stroke-width:1.0;" x1="665.5" x2="665.5" y1="373.125" y2="386.125"/><line style="stroke:#181818;stroke-width:1.0;" x1="624.5" x2="665.5" y1="386.125" y2="386.125"/><polygon fill="#181818" points="634.5,382.125,624.5,386.125,634.5,390.125,630.5,386.125" style="stroke:#181818;stroke-width:1.0;"/><text fill="#000000" font-family="sans-serif" font-size="13" font-weight="bold" lengthAdjust="spacing" textLength="7" x="630.5" y="368.2686">8</text><text fill="#000000" font-family="sans-serif" font-size="13" lengthAdjust="spacing" textLength="229" x="641.5" y="368.2686">updatedNote = { ...currentNote, ...data }</text><line style="stroke:#181818;stroke-width:1.0;" x1="623.5" x2="665.5" y1="416.4766" y2="416.4766"/><line style="stroke:#181818;stroke-width:1.0;" x1="665.5" x2="665.5" y1="416.4766" y2="429.4766"/><line style="stroke:#181818;stroke-width:1.0;" x1="624.5" x2="665.5" y1="429.4766" y2="429.4766"/><polygon fill="#181818" points="634.5,425.4766,624.5,429.4766,634.5,433.4766,630.5,429.4766" style="stroke:#181818;stroke-width:1.0;"/><text fill="#000000" font-family="sans-serif" font-size="13" font-weight="bold" lengthAdjust="spacing" textLength="7" x="630.5" y="411.6201">9</text><text fill="#000000" font-family="sans-serif" font-size="13" lengthAdjust="spacing" textLength="309" x="641.5" y="411.6201">dispatch("UPDATE_NOTE", { id, note: updatedNote })</text><polygon fill="#181818" points="945.5,455.8281,955.5,459.8281,945.5,463.8281,949.5,459.8281" style="stroke:#181818;stroke-width:1.0;"/><line style="stroke:#181818;stroke-width:1.0;" x1="623.5" x2="951.5" y1="459.8281" y2="459.8281"/><text fill="#000000" font-family="sans-serif" font-size="13" font-weight="bold" lengthAdjust="spacing" textLength="14" x="630.5" y="454.9717">10</text><text fill="#000000" font-family="sans-serif" font-size="13" lengthAdjust="spacing" textLength="244" x="648.5" y="454.9717">saveNote(updatedNote, markAsDirty=true)</text><polygon fill="#181818" points="634.5,486.1797,624.5,490.1797,634.5,494.1797,630.5,490.1797" style="stroke:#181818;stroke-width:1.0;"/><line style="stroke:#181818;stroke-width:1.0;stroke-dasharray:2.0,2.0;" x1="628.5" x2="961.5" y1="490.1797" y2="490.1797"/><text fill="#000000" font-family="sans-serif" font-size="13" font-weight="bold" lengthAdjust="spacing" textLength="14" x="640.5" y="485.3232">11</text><text fill="#000000" font-family="sans-serif" font-size="13" lengthAdjust="spacing" textLength="22" x="658.5" y="485.3232">void</text><polygon fill="#181818" points="477.5,516.5313,467.5,520.5313,477.5,524.5313,473.5,520.5313" style="stroke:#181818;stroke-width:1.0;"/><line style="stroke:#181818;stroke-width:1.0;stroke-dasharray:2.0,2.0;" x1="471.5" x2="617.5" y1="520.5313" y2="520.5313"/><text fill="#000000" font-family="sans-serif" font-size="13" font-weight="bold" lengthAdjust="spacing" textLength="14" x="483.5" y="515.6748">12</text><text fill="#000000" font-family="sans-serif" font-size="13" lengthAdjust="spacing" textLength="22" x="501.5" y="515.6748">void</text><polygon fill="#181818" points="221.5,546.8828,211.5,550.8828,221.5,554.8828,217.5,550.8828" style="stroke:#181818;stroke-width:1.0;"/><line style="stroke:#181818;stroke-width:1.0;" x1="215.5" x2="460.5" y1="550.8828" y2="550.8828"/><text fill="#000000" font-family="sans-serif" font-size="13" font-weight="bold" lengthAdjust="spacing" textLength="14" x="227.5" y="546.0264">13</text><text fill="#000000" font-family="sans-serif" font-size="13" lengthAdjust="spacing" textLength="73" x="245.5" y="546.0264">router.back()</text><polygon fill="#181818" points="38.5,593.5859,28.5,597.5859,38.5,601.5859,34.5,597.5859" style="stroke:#181818;stroke-width:1.0;"/><line style="stroke:#181818;stroke-width:1.0;stroke-dasharray:2.0,2.0;" x1="32.5" x2="204.5" y1="597.5859" y2="597.5859"/><text fill="#000000" font-family="sans-serif" font-size="13" font-weight="bold" lengthAdjust="spacing" textLength="14" x="44.5" y="584.5537">14</text><text fill="#000000" font-family="sans-serif" font-size="13" lengthAdjust="spacing" textLength="130" x="62.5" y="576.3779">render previous screen</text><text fill="#000000" font-family="sans-serif" font-size="13" lengthAdjust="spacing" textLength="131" x="62.5" y="592.7295">with updated note data</text><!--SRC=[TLBHQkCm47ptLmY_D077VG_q88rR2BHfu9Adot4ebaYMOCb8QrzBoB_VhcmdTjB3O6nfTcPsTsI5rbJ5JhieaZbQ9-ADrouMqWl-Y4hf478efK4HBotgDp17CRT5QOqs683l4imzKFpCdTQceLhSt_kLipMeLcnk3UfF7C8oYN8dlGw8x3bOX5eIT_36Bp7v4VJ5LA23_PvEvkkPG2kCh65FsAtX7pRaWw4hIV0TYebaio0APolKBkrAHwTIui78GayV7fdYyHUetm_9rcoH7p8h2pyzWPhoRGfAdC_ZIEcXnDNr8YAP2QknTTBJXWOmSDSh9lYbns2lAXMV1pXzoU7jJVzUrWqq6X8kkA0TzuMJ5p82bGJQyRMYMqlK5GngNy4eeJ_18vXzOslt9K1zZswKLCZ6apY9D4tpoj48a8yI_cTrSVwFcW9FwyWFetYpocRhbp_BZ_LBd10J6sVreGPjeiUJFHC5poIqsiCbef3kEFCPEFnwGbVfNlyKEYgS37pKbZhihOam5vrk5xUORexDzDl0jcdRoVmu6jyi_hkGtkMcTBe6M_asErlp5_3GpQ0Nazj0_WC0]--></g></svg>