<?xml version="1.0" encoding="us-ascii" standalone="no"?><svg xmlns="http://www.w3.org/2000/svg" xmlns:xlink="http://www.w3.org/1999/xlink" contentStyleType="text/css" height="1596px" preserveAspectRatio="none" style="width:871px;height:1596px;background:#FFFFFF;" version="1.1" viewBox="0 0 871 1596" width="871px" zoomAndPan="magnify"><defs/><g><rect fill="#FFFFFF" height="1403.3047" style="stroke:#181818;stroke-width:1.0;" width="10" x="17.5" y="92.6094"/><rect fill="#FFFFFF" height="1380.9531" style="stroke:#181818;stroke-width:1.0;" width="10" x="289.5" y="114.9609"/><rect fill="#FFFFFF" height="30.3516" style="stroke:#181818;stroke-width:1.0;" width="10" x="530.5" y="188.6641"/><rect fill="#FFFFFF" height="30.3516" style="stroke:#181818;stroke-width:1.0;" width="10" x="530.5" y="396.125"/><rect fill="#FFFFFF" height="30.3516" style="stroke:#181818;stroke-width:1.0;" width="10" x="530.5" y="463.8281"/><rect fill="#FFFFFF" height="30.3516" style="stroke:#181818;stroke-width:1.0;" width="10" x="530.5" y="739.9922"/><rect fill="#FFFFFF" height="30.3516" style="stroke:#181818;stroke-width:1.0;" width="10" x="530.5" y="800.6953"/><rect fill="#FFFFFF" height="30.3516" style="stroke:#181818;stroke-width:1.0;" width="10" x="530.5" y="998.6406"/><rect fill="#FFFFFF" height="30.3516" style="stroke:#181818;stroke-width:1.0;" width="10" x="530.5" y="1194.75"/><rect fill="#FFFFFF" height="30.3516" style="stroke:#181818;stroke-width:1.0;" width="10" x="530.5" y="1280.8047"/><rect fill="#FFFFFF" height="30.3516" style="stroke:#181818;stroke-width:1.0;" width="10" x="530.5" y="1348.5078"/><rect fill="#FFFFFF" height="91.0547" style="stroke:#181818;stroke-width:1.0;" width="10" x="632" y="274.7188"/><rect fill="#FFFFFF" height="91.0547" style="stroke:#181818;stroke-width:1.0;" width="10" x="632" y="618.5859"/><rect fill="#FFFFFF" height="91.0547" style="stroke:#181818;stroke-width:1.0;" width="10" x="632" y="877.2344"/><rect fill="#FFFFFF" height="91.0547" style="stroke:#181818;stroke-width:1.0;" width="10" x="632" y="1073.3438"/><rect fill="#FFFFFF" height="30.3516" style="stroke:#181818;stroke-width:1.0;" width="10" x="797" y="305.0703"/><rect fill="#FFFFFF" height="30.3516" style="stroke:#181818;stroke-width:1.0;" width="10" x="797" y="648.9375"/><rect fill="#FFFFFF" height="30.3516" style="stroke:#181818;stroke-width:1.0;" width="10" x="797" y="907.5859"/><rect fill="#FFFFFF" height="30.3516" style="stroke:#181818;stroke-width:1.0;" width="10" x="797" y="1103.6953"/><rect fill="none" height="200.4609" style="stroke:#000000;stroke-width:1.5;" width="622" x="233" y="234.0156"/><rect fill="none" height="491.4609" style="stroke:#000000;stroke-width:1.5;" width="642" x="223" y="552.5313"/><rect fill="none" height="459.1094" style="stroke:#000000;stroke-width:1.5;" width="622" x="233" y="577.8828"/><rect fill="none" height="79.0547" style="stroke:#000000;stroke-width:1.5;" width="350" x="233" y="1240.1016"/><line style="stroke:#181818;stroke-width:0.5;stroke-dasharray:5.0,5.0;" x1="22" x2="22" y1="82.6094" y2="1513.9141"/><line style="stroke:#181818;stroke-width:0.5;stroke-dasharray:5.0,5.0;" x1="294" x2="294" y1="82.6094" y2="1513.9141"/><line style="stroke:#181818;stroke-width:0.5;stroke-dasharray:5.0,5.0;" x1="535" x2="535" y1="82.6094" y2="1513.9141"/><line style="stroke:#181818;stroke-width:0.5;stroke-dasharray:5.0,5.0;" x1="637" x2="637" y1="82.6094" y2="1513.9141"/><line style="stroke:#181818;stroke-width:0.5;stroke-dasharray:5.0,5.0;" x1="802" x2="802" y1="82.6094" y2="1513.9141"/><text fill="#000000" font-family="sans-serif" font-size="14" lengthAdjust="spacing" textLength="29" x="5" y="79.5332">User</text><ellipse cx="22.5" cy="13.5" fill="#E2E2F0" rx="8" ry="8" style="stroke:#181818;stroke-width:0.5;"/><path d="M22.5,21.5 L22.5,48.5 M9.5,29.5 L35.5,29.5 M22.5,48.5 L9.5,63.5 M22.5,48.5 L35.5,63.5 " fill="none" style="stroke:#181818;stroke-width:0.5;"/><text fill="#000000" font-family="sans-serif" font-size="14" lengthAdjust="spacing" textLength="29" x="5" y="1527.4473">User</text><ellipse cx="22.5" cy="1539.0234" fill="#E2E2F0" rx="8" ry="8" style="stroke:#181818;stroke-width:0.5;"/><path d="M22.5,1547.0234 L22.5,1574.0234 M9.5,1555.0234 L35.5,1555.0234 M22.5,1574.0234 L9.5,1589.0234 M22.5,1574.0234 L35.5,1589.0234 " fill="none" style="stroke:#181818;stroke-width:0.5;"/><rect fill="#E2E2F0" height="31.6094" rx="2.5" ry="2.5" style="stroke:#181818;stroke-width:0.5;" width="103" x="243" y="50"/><text fill="#000000" font-family="sans-serif" font-size="14" lengthAdjust="spacing" textLength="89" x="250" y="71.5332">NotesProvider</text><rect fill="#E2E2F0" height="31.6094" rx="2.5" ry="2.5" style="stroke:#181818;stroke-width:0.5;" width="103" x="243" y="1512.9141"/><text fill="#000000" font-family="sans-serif" font-size="14" lengthAdjust="spacing" textLength="89" x="250" y="1534.4473">NotesProvider</text><rect fill="#E2E2F0" height="31.6094" rx="2.5" ry="2.5" style="stroke:#181818;stroke-width:0.5;" width="75" x="498" y="50"/><text fill="#000000" font-family="sans-serif" font-size="14" lengthAdjust="spacing" textLength="61" x="505" y="71.5332">Database</text><rect fill="#E2E2F0" height="31.6094" rx="2.5" ry="2.5" style="stroke:#181818;stroke-width:0.5;" width="75" x="498" y="1512.9141"/><text fill="#000000" font-family="sans-serif" font-size="14" lengthAdjust="spacing" textLength="61" x="505" y="1534.4473">Database</text><rect fill="#E2E2F0" height="31.6094" rx="2.5" ry="2.5" style="stroke:#181818;stroke-width:0.5;" width="108" x="583" y="50"/><text fill="#000000" font-family="sans-serif" font-size="14" lengthAdjust="spacing" textLength="94" x="590" y="71.5332">TodoistService</text><rect fill="#E2E2F0" height="31.6094" rx="2.5" ry="2.5" style="stroke:#181818;stroke-width:0.5;" width="108" x="583" y="1512.9141"/><text fill="#000000" font-family="sans-serif" font-size="14" lengthAdjust="spacing" textLength="94" x="590" y="1534.4473">TodoistService</text><rect fill="#E2E2F0" height="31.6094" rx="2.5" ry="2.5" style="stroke:#181818;stroke-width:0.5;" width="86" x="759" y="50"/><text fill="#000000" font-family="sans-serif" font-size="14" lengthAdjust="spacing" textLength="72" x="766" y="71.5332">Todoist API</text><rect fill="#E2E2F0" height="31.6094" rx="2.5" ry="2.5" style="stroke:#181818;stroke-width:0.5;" width="86" x="759" y="1512.9141"/><text fill="#000000" font-family="sans-serif" font-size="14" lengthAdjust="spacing" textLength="72" x="766" y="1534.4473">Todoist API</text><rect fill="#FFFFFF" height="1403.3047" style="stroke:#181818;stroke-width:1.0;" width="10" x="17.5" y="92.6094"/><rect fill="#FFFFFF" height="1380.9531" style="stroke:#181818;stroke-width:1.0;" width="10" x="289.5" y="114.9609"/><rect fill="#FFFFFF" height="30.3516" style="stroke:#181818;stroke-width:1.0;" width="10" x="530.5" y="188.6641"/><rect fill="#FFFFFF" height="30.3516" style="stroke:#181818;stroke-width:1.0;" width="10" x="530.5" y="396.125"/><rect fill="#FFFFFF" height="30.3516" style="stroke:#181818;stroke-width:1.0;" width="10" x="530.5" y="463.8281"/><rect fill="#FFFFFF" height="30.3516" style="stroke:#181818;stroke-width:1.0;" width="10" x="530.5" y="739.9922"/><rect fill="#FFFFFF" height="30.3516" style="stroke:#181818;stroke-width:1.0;" width="10" x="530.5" y="800.6953"/><rect fill="#FFFFFF" height="30.3516" style="stroke:#181818;stroke-width:1.0;" width="10" x="530.5" y="998.6406"/><rect fill="#FFFFFF" height="30.3516" style="stroke:#181818;stroke-width:1.0;" width="10" x="530.5" y="1194.75"/><rect fill="#FFFFFF" height="30.3516" style="stroke:#181818;stroke-width:1.0;" width="10" x="530.5" y="1280.8047"/><rect fill="#FFFFFF" height="30.3516" style="stroke:#181818;stroke-width:1.0;" width="10" x="530.5" y="1348.5078"/><rect fill="#FFFFFF" height="91.0547" style="stroke:#181818;stroke-width:1.0;" width="10" x="632" y="274.7188"/><rect fill="#FFFFFF" height="91.0547" style="stroke:#181818;stroke-width:1.0;" width="10" x="632" y="618.5859"/><rect fill="#FFFFFF" height="91.0547" style="stroke:#181818;stroke-width:1.0;" width="10" x="632" y="877.2344"/><rect fill="#FFFFFF" height="91.0547" style="stroke:#181818;stroke-width:1.0;" width="10" x="632" y="1073.3438"/><rect fill="#FFFFFF" height="30.3516" style="stroke:#181818;stroke-width:1.0;" width="10" x="797" y="305.0703"/><rect fill="#FFFFFF" height="30.3516" style="stroke:#181818;stroke-width:1.0;" width="10" x="797" y="648.9375"/><rect fill="#FFFFFF" height="30.3516" style="stroke:#181818;stroke-width:1.0;" width="10" x="797" y="907.5859"/><rect fill="#FFFFFF" height="30.3516" style="stroke:#181818;stroke-width:1.0;" width="10" x="797" y="1103.6953"/><polygon fill="#181818" points="277.5,110.9609,287.5,114.9609,277.5,118.9609,281.5,114.9609" style="stroke:#181818;stroke-width:1.0;"/><line style="stroke:#181818;stroke-width:1.0;" x1="27.5" x2="283.5" y1="114.9609" y2="114.9609"/><text fill="#000000" font-family="sans-serif" font-size="13" font-weight="bold" lengthAdjust="spacing" textLength="7" x="34.5" y="110.1045">1</text><text fill="#000000" font-family="sans-serif" font-size="13" lengthAdjust="spacing" textLength="197" x="45.5" y="110.1045">automatic or manual sync request</text><line style="stroke:#181818;stroke-width:1.0;" x1="299.5" x2="341.5" y1="145.3125" y2="145.3125"/><line style="stroke:#181818;stroke-width:1.0;" x1="341.5" x2="341.5" y1="145.3125" y2="158.3125"/><line style="stroke:#181818;stroke-width:1.0;" x1="300.5" x2="341.5" y1="158.3125" y2="158.3125"/><polygon fill="#181818" points="310.5,154.3125,300.5,158.3125,310.5,162.3125,306.5,158.3125" style="stroke:#181818;stroke-width:1.0;"/><text fill="#000000" font-family="sans-serif" font-size="13" font-weight="bold" lengthAdjust="spacing" textLength="7" x="306.5" y="140.4561">2</text><text fill="#000000" font-family="sans-serif" font-size="13" lengthAdjust="spacing" textLength="186" x="317.5" y="140.4561">dispatch("SET_LOADING", true)</text><polygon fill="#181818" points="518.5,184.6641,528.5,188.6641,518.5,192.6641,522.5,188.6641" style="stroke:#181818;stroke-width:1.0;"/><line style="stroke:#181818;stroke-width:1.0;" x1="299.5" x2="524.5" y1="188.6641" y2="188.6641"/><text fill="#000000" font-family="sans-serif" font-size="13" font-weight="bold" lengthAdjust="spacing" textLength="7" x="306.5" y="183.8076">3</text><text fill="#000000" font-family="sans-serif" font-size="13" lengthAdjust="spacing" textLength="127" x="317.5" y="183.8076">getPendingDeletions()</text><polygon fill="#181818" points="310.5,215.0156,300.5,219.0156,310.5,223.0156,306.5,219.0156" style="stroke:#181818;stroke-width:1.0;"/><line style="stroke:#181818;stroke-width:1.0;stroke-dasharray:2.0,2.0;" x1="304.5" x2="534.5" y1="219.0156" y2="219.0156"/><text fill="#000000" font-family="sans-serif" font-size="13" font-weight="bold" lengthAdjust="spacing" textLength="7" x="316.5" y="214.1592">4</text><text fill="#000000" font-family="sans-serif" font-size="13" lengthAdjust="spacing" textLength="62" x="327.5" y="214.1592">[id1, id2...]</text><path d="M233,234.0156 L306,234.0156 L306,242.3672 L296,252.3672 L233,252.3672 L233,234.0156 " fill="#EEEEEE" style="stroke:#000000;stroke-width:1.5;"/><rect fill="none" height="200.4609" style="stroke:#000000;stroke-width:1.5;" width="622" x="233" y="234.0156"/><text fill="#000000" font-family="sans-serif" font-size="13" font-weight="bold" lengthAdjust="spacing" textLength="28" x="248" y="248.5107">loop</text><text fill="#000000" font-family="sans-serif" font-size="11" font-weight="bold" lengthAdjust="spacing" textLength="149" x="321" y="247.4346">[for each pending deletion]</text><polygon fill="#181818" points="620,270.7188,630,274.7188,620,278.7188,624,274.7188" style="stroke:#181818;stroke-width:1.0;"/><line style="stroke:#181818;stroke-width:1.0;" x1="299.5" x2="626" y1="274.7188" y2="274.7188"/><text fill="#000000" font-family="sans-serif" font-size="13" font-weight="bold" lengthAdjust="spacing" textLength="7" x="306.5" y="269.8623">5</text><text fill="#000000" font-family="sans-serif" font-size="13" lengthAdjust="spacing" textLength="80" x="317.5" y="269.8623">deleteNote(id)</text><polygon fill="#181818" points="785,301.0703,795,305.0703,785,309.0703,789,305.0703" style="stroke:#181818;stroke-width:1.0;"/><line style="stroke:#181818;stroke-width:1.0;" x1="642" x2="791" y1="305.0703" y2="305.0703"/><text fill="#000000" font-family="sans-serif" font-size="13" font-weight="bold" lengthAdjust="spacing" textLength="7" x="649" y="300.2139">6</text><text fill="#000000" font-family="sans-serif" font-size="13" lengthAdjust="spacing" textLength="108" x="660" y="300.2139">DELETE /tasks/:id</text><polygon fill="#181818" points="653,331.4219,643,335.4219,653,339.4219,649,335.4219" style="stroke:#181818;stroke-width:1.0;"/><line style="stroke:#181818;stroke-width:1.0;stroke-dasharray:2.0,2.0;" x1="647" x2="801" y1="335.4219" y2="335.4219"/><text fill="#000000" font-family="sans-serif" font-size="13" font-weight="bold" lengthAdjust="spacing" textLength="7" x="659" y="330.5654">7</text><text fill="#000000" font-family="sans-serif" font-size="13" lengthAdjust="spacing" textLength="90" x="670" y="330.5654">204 No Content</text><polygon fill="#181818" points="310.5,361.7734,300.5,365.7734,310.5,369.7734,306.5,365.7734" style="stroke:#181818;stroke-width:1.0;"/><line style="stroke:#181818;stroke-width:1.0;stroke-dasharray:2.0,2.0;" x1="304.5" x2="636" y1="365.7734" y2="365.7734"/><text fill="#000000" font-family="sans-serif" font-size="13" font-weight="bold" lengthAdjust="spacing" textLength="7" x="316.5" y="360.917">8</text><text fill="#000000" font-family="sans-serif" font-size="13" lengthAdjust="spacing" textLength="49" x="327.5" y="360.917">success</text><polygon fill="#181818" points="518.5,392.125,528.5,396.125,518.5,400.125,522.5,396.125" style="stroke:#181818;stroke-width:1.0;"/><line style="stroke:#181818;stroke-width:1.0;" x1="299.5" x2="524.5" y1="396.125" y2="396.125"/><text fill="#000000" font-family="sans-serif" font-size="13" font-weight="bold" lengthAdjust="spacing" textLength="7" x="306.5" y="391.2686">9</text><text fill="#000000" font-family="sans-serif" font-size="13" lengthAdjust="spacing" textLength="153" x="317.5" y="391.2686">removePendingDeletion(id)</text><polygon fill="#181818" points="310.5,422.4766,300.5,426.4766,310.5,430.4766,306.5,426.4766" style="stroke:#181818;stroke-width:1.0;"/><line style="stroke:#181818;stroke-width:1.0;stroke-dasharray:2.0,2.0;" x1="304.5" x2="534.5" y1="426.4766" y2="426.4766"/><text fill="#000000" font-family="sans-serif" font-size="13" font-weight="bold" lengthAdjust="spacing" textLength="14" x="316.5" y="421.6201">10</text><text fill="#000000" font-family="sans-serif" font-size="13" lengthAdjust="spacing" textLength="22" x="334.5" y="421.6201">void</text><polygon fill="#181818" points="518.5,459.8281,528.5,463.8281,518.5,467.8281,522.5,463.8281" style="stroke:#181818;stroke-width:1.0;"/><line style="stroke:#181818;stroke-width:1.0;" x1="299.5" x2="524.5" y1="463.8281" y2="463.8281"/><text fill="#000000" font-family="sans-serif" font-size="13" font-weight="bold" lengthAdjust="spacing" textLength="14" x="306.5" y="458.9717">11</text><text fill="#000000" font-family="sans-serif" font-size="13" lengthAdjust="spacing" textLength="60" x="324.5" y="458.9717">getNotes()</text><polygon fill="#181818" points="310.5,490.1797,300.5,494.1797,310.5,498.1797,306.5,494.1797" style="stroke:#181818;stroke-width:1.0;"/><line style="stroke:#181818;stroke-width:1.0;stroke-dasharray:2.0,2.0;" x1="304.5" x2="534.5" y1="494.1797" y2="494.1797"/><text fill="#000000" font-family="sans-serif" font-size="13" font-weight="bold" lengthAdjust="spacing" textLength="14" x="316.5" y="489.3232">12</text><text fill="#000000" font-family="sans-serif" font-size="13" lengthAdjust="spacing" textLength="75" x="334.5" y="489.3232">notes: Note[]</text><line style="stroke:#181818;stroke-width:1.0;" x1="299.5" x2="341.5" y1="524.5313" y2="524.5313"/><line style="stroke:#181818;stroke-width:1.0;" x1="341.5" x2="341.5" y1="524.5313" y2="537.5313"/><line style="stroke:#181818;stroke-width:1.0;" x1="300.5" x2="341.5" y1="537.5313" y2="537.5313"/><polygon fill="#181818" points="310.5,533.5313,300.5,537.5313,310.5,541.5313,306.5,537.5313" style="stroke:#181818;stroke-width:1.0;"/><text fill="#000000" font-family="sans-serif" font-size="13" font-weight="bold" lengthAdjust="spacing" textLength="14" x="306.5" y="519.6748">13</text><text fill="#000000" font-family="sans-serif" font-size="13" lengthAdjust="spacing" textLength="199" x="324.5" y="519.6748">filter notes where isSynced = false</text><path d="M223,552.5313 L296,552.5313 L296,560.8828 L286,570.8828 L223,570.8828 L223,552.5313 " fill="#EEEEEE" style="stroke:#000000;stroke-width:1.5;"/><rect fill="none" height="491.4609" style="stroke:#000000;stroke-width:1.5;" width="642" x="223" y="552.5313"/><text fill="#000000" font-family="sans-serif" font-size="13" font-weight="bold" lengthAdjust="spacing" textLength="28" x="238" y="567.0264">loop</text><text fill="#000000" font-family="sans-serif" font-size="11" font-weight="bold" lengthAdjust="spacing" textLength="109" x="311" y="565.9502">[for each dirty note]</text><path d="M233,577.8828 L294,577.8828 L294,586.2344 L284,596.2344 L233,596.2344 L233,577.8828 " fill="#EEEEEE" style="stroke:#000000;stroke-width:1.5;"/><rect fill="none" height="459.1094" style="stroke:#000000;stroke-width:1.5;" width="622" x="233" y="577.8828"/><text fill="#000000" font-family="sans-serif" font-size="13" font-weight="bold" lengthAdjust="spacing" textLength="16" x="248" y="592.3779">alt</text><text fill="#000000" font-family="sans-serif" font-size="11" font-weight="bold" lengthAdjust="spacing" textLength="169" x="309" y="591.3018">[is new note (userId == 'local')]</text><polygon fill="#181818" points="620,614.5859,630,618.5859,620,622.5859,624,618.5859" style="stroke:#181818;stroke-width:1.0;"/><line style="stroke:#181818;stroke-width:1.0;" x1="299.5" x2="626" y1="618.5859" y2="618.5859"/><text fill="#000000" font-family="sans-serif" font-size="13" font-weight="bold" lengthAdjust="spacing" textLength="14" x="306.5" y="613.7295">14</text><text fill="#000000" font-family="sans-serif" font-size="13" lengthAdjust="spacing" textLength="96" x="324.5" y="613.7295">createNote(note)</text><polygon fill="#181818" points="785,644.9375,795,648.9375,785,652.9375,789,648.9375" style="stroke:#181818;stroke-width:1.0;"/><line style="stroke:#181818;stroke-width:1.0;" x1="642" x2="791" y1="648.9375" y2="648.9375"/><text fill="#000000" font-family="sans-serif" font-size="13" font-weight="bold" lengthAdjust="spacing" textLength="14" x="649" y="644.0811">15</text><text fill="#000000" font-family="sans-serif" font-size="13" lengthAdjust="spacing" textLength="75" x="667" y="644.0811">POST /tasks</text><polygon fill="#181818" points="653,675.2891,643,679.2891,653,683.2891,649,679.2891" style="stroke:#181818;stroke-width:1.0;"/><line style="stroke:#181818;stroke-width:1.0;stroke-dasharray:2.0,2.0;" x1="647" x2="801" y1="679.2891" y2="679.2891"/><text fill="#000000" font-family="sans-serif" font-size="13" font-weight="bold" lengthAdjust="spacing" textLength="14" x="659" y="674.4326">16</text><text fill="#000000" font-family="sans-serif" font-size="13" lengthAdjust="spacing" textLength="107" x="677" y="674.4326">remote note JSON</text><polygon fill="#181818" points="310.5,705.6406,300.5,709.6406,310.5,713.6406,306.5,709.6406" style="stroke:#181818;stroke-width:1.0;"/><line style="stroke:#181818;stroke-width:1.0;stroke-dasharray:2.0,2.0;" x1="304.5" x2="636" y1="709.6406" y2="709.6406"/><text fill="#000000" font-family="sans-serif" font-size="13" font-weight="bold" lengthAdjust="spacing" textLength="14" x="316.5" y="704.7842">17</text><text fill="#000000" font-family="sans-serif" font-size="13" lengthAdjust="spacing" textLength="67" x="334.5" y="704.7842">remoteNote</text><polygon fill="#181818" points="518.5,735.9922,528.5,739.9922,518.5,743.9922,522.5,739.9922" style="stroke:#181818;stroke-width:1.0;"/><line style="stroke:#181818;stroke-width:1.0;" x1="299.5" x2="524.5" y1="739.9922" y2="739.9922"/><text fill="#000000" font-family="sans-serif" font-size="13" font-weight="bold" lengthAdjust="spacing" textLength="14" x="306.5" y="735.1357">18</text><text fill="#000000" font-family="sans-serif" font-size="13" lengthAdjust="spacing" textLength="107" x="324.5" y="735.1357">deleteNote(localId)</text><polygon fill="#181818" points="310.5,766.3438,300.5,770.3438,310.5,774.3438,306.5,770.3438" style="stroke:#181818;stroke-width:1.0;"/><line style="stroke:#181818;stroke-width:1.0;stroke-dasharray:2.0,2.0;" x1="304.5" x2="534.5" y1="770.3438" y2="770.3438"/><text fill="#000000" font-family="sans-serif" font-size="13" font-weight="bold" lengthAdjust="spacing" textLength="14" x="316.5" y="765.4873">19</text><text fill="#000000" font-family="sans-serif" font-size="13" lengthAdjust="spacing" textLength="22" x="334.5" y="765.4873">void</text><polygon fill="#181818" points="518.5,796.6953,528.5,800.6953,518.5,804.6953,522.5,800.6953" style="stroke:#181818;stroke-width:1.0;"/><line style="stroke:#181818;stroke-width:1.0;" x1="299.5" x2="524.5" y1="800.6953" y2="800.6953"/><text fill="#000000" font-family="sans-serif" font-size="13" font-weight="bold" lengthAdjust="spacing" textLength="14" x="306.5" y="795.8389">20</text><text fill="#000000" font-family="sans-serif" font-size="13" lengthAdjust="spacing" textLength="128" x="324.5" y="795.8389">saveNote(remoteNote)</text><polygon fill="#181818" points="310.5,827.0469,300.5,831.0469,310.5,835.0469,306.5,831.0469" style="stroke:#181818;stroke-width:1.0;"/><line style="stroke:#181818;stroke-width:1.0;stroke-dasharray:2.0,2.0;" x1="304.5" x2="534.5" y1="831.0469" y2="831.0469"/><text fill="#000000" font-family="sans-serif" font-size="13" font-weight="bold" lengthAdjust="spacing" textLength="14" x="316.5" y="826.1904">21</text><text fill="#000000" font-family="sans-serif" font-size="13" lengthAdjust="spacing" textLength="22" x="334.5" y="826.1904">void</text><line style="stroke:#000000;stroke-width:1.0;stroke-dasharray:2.0,2.0;" x1="233" x2="855" y1="840.0469" y2="840.0469"/><text fill="#000000" font-family="sans-serif" font-size="11" font-weight="bold" lengthAdjust="spacing" textLength="187" x="238" y="851.4658">[is not new note (userId != 'local')]</text><polygon fill="#181818" points="620,873.2344,630,877.2344,620,881.2344,624,877.2344" style="stroke:#181818;stroke-width:1.0;"/><line style="stroke:#181818;stroke-width:1.0;" x1="299.5" x2="626" y1="877.2344" y2="877.2344"/><text fill="#000000" font-family="sans-serif" font-size="13" font-weight="bold" lengthAdjust="spacing" textLength="14" x="306.5" y="872.3779">22</text><text fill="#000000" font-family="sans-serif" font-size="13" lengthAdjust="spacing" textLength="117" x="324.5" y="872.3779">updateNote(id, note)</text><polygon fill="#181818" points="785,903.5859,795,907.5859,785,911.5859,789,907.5859" style="stroke:#181818;stroke-width:1.0;"/><line style="stroke:#181818;stroke-width:1.0;" x1="642" x2="791" y1="907.5859" y2="907.5859"/><text fill="#000000" font-family="sans-serif" font-size="13" font-weight="bold" lengthAdjust="spacing" textLength="14" x="649" y="902.7295">23</text><text fill="#000000" font-family="sans-serif" font-size="13" lengthAdjust="spacing" textLength="93" x="667" y="902.7295">POST /tasks/:id</text><polygon fill="#181818" points="653,933.9375,643,937.9375,653,941.9375,649,937.9375" style="stroke:#181818;stroke-width:1.0;"/><line style="stroke:#181818;stroke-width:1.0;stroke-dasharray:2.0,2.0;" x1="647" x2="801" y1="937.9375" y2="937.9375"/><text fill="#000000" font-family="sans-serif" font-size="13" font-weight="bold" lengthAdjust="spacing" textLength="14" x="659" y="933.0811">24</text><text fill="#000000" font-family="sans-serif" font-size="13" lengthAdjust="spacing" textLength="113" x="677" y="933.0811">updated note JSON</text><polygon fill="#181818" points="310.5,964.2891,300.5,968.2891,310.5,972.2891,306.5,968.2891" style="stroke:#181818;stroke-width:1.0;"/><line style="stroke:#181818;stroke-width:1.0;stroke-dasharray:2.0,2.0;" x1="304.5" x2="636" y1="968.2891" y2="968.2891"/><text fill="#000000" font-family="sans-serif" font-size="13" font-weight="bold" lengthAdjust="spacing" textLength="14" x="316.5" y="963.4326">25</text><text fill="#000000" font-family="sans-serif" font-size="13" lengthAdjust="spacing" textLength="67" x="334.5" y="963.4326">remoteNote</text><polygon fill="#181818" points="518.5,994.6406,528.5,998.6406,518.5,1002.6406,522.5,998.6406" style="stroke:#181818;stroke-width:1.0;"/><line style="stroke:#181818;stroke-width:1.0;" x1="299.5" x2="524.5" y1="998.6406" y2="998.6406"/><text fill="#000000" font-family="sans-serif" font-size="13" font-weight="bold" lengthAdjust="spacing" textLength="14" x="306.5" y="993.7842">26</text><text fill="#000000" font-family="sans-serif" font-size="13" lengthAdjust="spacing" textLength="128" x="324.5" y="993.7842">saveNote(remoteNote)</text><polygon fill="#181818" points="310.5,1024.9922,300.5,1028.9922,310.5,1032.9922,306.5,1028.9922" style="stroke:#181818;stroke-width:1.0;"/><line style="stroke:#181818;stroke-width:1.0;stroke-dasharray:2.0,2.0;" x1="304.5" x2="534.5" y1="1028.9922" y2="1028.9922"/><text fill="#000000" font-family="sans-serif" font-size="13" font-weight="bold" lengthAdjust="spacing" textLength="14" x="316.5" y="1024.1357">27</text><text fill="#000000" font-family="sans-serif" font-size="13" lengthAdjust="spacing" textLength="22" x="334.5" y="1024.1357">void</text><polygon fill="#181818" points="620,1069.3438,630,1073.3438,620,1077.3438,624,1073.3438" style="stroke:#181818;stroke-width:1.0;"/><line style="stroke:#181818;stroke-width:1.0;" x1="299.5" x2="626" y1="1073.3438" y2="1073.3438"/><text fill="#000000" font-family="sans-serif" font-size="13" font-weight="bold" lengthAdjust="spacing" textLength="14" x="306.5" y="1068.4873">28</text><text fill="#000000" font-family="sans-serif" font-size="13" lengthAdjust="spacing" textLength="70" x="324.5" y="1068.4873">fetchNotes()</text><polygon fill="#181818" points="785,1099.6953,795,1103.6953,785,1107.6953,789,1103.6953" style="stroke:#181818;stroke-width:1.0;"/><line style="stroke:#181818;stroke-width:1.0;" x1="642" x2="791" y1="1103.6953" y2="1103.6953"/><text fill="#000000" font-family="sans-serif" font-size="13" font-weight="bold" lengthAdjust="spacing" textLength="14" x="649" y="1098.8389">29</text><text fill="#000000" font-family="sans-serif" font-size="13" lengthAdjust="spacing" textLength="66" x="667" y="1098.8389">GET /tasks</text><polygon fill="#181818" points="653,1130.0469,643,1134.0469,653,1138.0469,649,1134.0469" style="stroke:#181818;stroke-width:1.0;"/><line style="stroke:#181818;stroke-width:1.0;stroke-dasharray:2.0,2.0;" x1="647" x2="801" y1="1134.0469" y2="1134.0469"/><text fill="#000000" font-family="sans-serif" font-size="13" font-weight="bold" lengthAdjust="spacing" textLength="14" x="659" y="1129.1904">30</text><text fill="#000000" font-family="sans-serif" font-size="13" lengthAdjust="spacing" textLength="70" x="677" y="1129.1904">notes JSON</text><polygon fill="#181818" points="310.5,1160.3984,300.5,1164.3984,310.5,1168.3984,306.5,1164.3984" style="stroke:#181818;stroke-width:1.0;"/><line style="stroke:#181818;stroke-width:1.0;stroke-dasharray:2.0,2.0;" x1="304.5" x2="636" y1="1164.3984" y2="1164.3984"/><text fill="#000000" font-family="sans-serif" font-size="13" font-weight="bold" lengthAdjust="spacing" textLength="14" x="316.5" y="1159.542">31</text><text fill="#000000" font-family="sans-serif" font-size="13" lengthAdjust="spacing" textLength="75" x="334.5" y="1159.542">notes: Note[]</text><polygon fill="#181818" points="518.5,1190.75,528.5,1194.75,518.5,1198.75,522.5,1194.75" style="stroke:#181818;stroke-width:1.0;"/><line style="stroke:#181818;stroke-width:1.0;" x1="299.5" x2="524.5" y1="1194.75" y2="1194.75"/><text fill="#000000" font-family="sans-serif" font-size="13" font-weight="bold" lengthAdjust="spacing" textLength="14" x="306.5" y="1189.8936">32</text><text fill="#000000" font-family="sans-serif" font-size="13" lengthAdjust="spacing" textLength="70" x="324.5" y="1189.8936">clearNotes()</text><polygon fill="#181818" points="310.5,1221.1016,300.5,1225.1016,310.5,1229.1016,306.5,1225.1016" style="stroke:#181818;stroke-width:1.0;"/><line style="stroke:#181818;stroke-width:1.0;stroke-dasharray:2.0,2.0;" x1="304.5" x2="534.5" y1="1225.1016" y2="1225.1016"/><text fill="#000000" font-family="sans-serif" font-size="13" font-weight="bold" lengthAdjust="spacing" textLength="14" x="316.5" y="1220.2451">33</text><text fill="#000000" font-family="sans-serif" font-size="13" lengthAdjust="spacing" textLength="22" x="334.5" y="1220.2451">void</text><path d="M233,1240.1016 L306,1240.1016 L306,1248.4531 L296,1258.4531 L233,1258.4531 L233,1240.1016 " fill="#EEEEEE" style="stroke:#000000;stroke-width:1.5;"/><rect fill="none" height="79.0547" style="stroke:#000000;stroke-width:1.5;" width="350" x="233" y="1240.1016"/><text fill="#000000" font-family="sans-serif" font-size="13" font-weight="bold" lengthAdjust="spacing" textLength="28" x="248" y="1254.5967">loop</text><text fill="#000000" font-family="sans-serif" font-size="11" font-weight="bold" lengthAdjust="spacing" textLength="126" x="321" y="1253.5205">[for each fetched note]</text><polygon fill="#181818" points="518.5,1276.8047,528.5,1280.8047,518.5,1284.8047,522.5,1280.8047" style="stroke:#181818;stroke-width:1.0;"/><line style="stroke:#181818;stroke-width:1.0;" x1="299.5" x2="524.5" y1="1280.8047" y2="1280.8047"/><text fill="#000000" font-family="sans-serif" font-size="13" font-weight="bold" lengthAdjust="spacing" textLength="14" x="306.5" y="1275.9482">34</text><text fill="#000000" font-family="sans-serif" font-size="13" lengthAdjust="spacing" textLength="86" x="324.5" y="1275.9482">saveNote(note)</text><polygon fill="#181818" points="310.5,1307.1563,300.5,1311.1563,310.5,1315.1563,306.5,1311.1563" style="stroke:#181818;stroke-width:1.0;"/><line style="stroke:#181818;stroke-width:1.0;stroke-dasharray:2.0,2.0;" x1="304.5" x2="534.5" y1="1311.1563" y2="1311.1563"/><text fill="#000000" font-family="sans-serif" font-size="13" font-weight="bold" lengthAdjust="spacing" textLength="14" x="316.5" y="1306.2998">35</text><text fill="#000000" font-family="sans-serif" font-size="13" lengthAdjust="spacing" textLength="22" x="334.5" y="1306.2998">void</text><polygon fill="#181818" points="518.5,1344.5078,528.5,1348.5078,518.5,1352.5078,522.5,1348.5078" style="stroke:#181818;stroke-width:1.0;"/><line style="stroke:#181818;stroke-width:1.0;" x1="299.5" x2="524.5" y1="1348.5078" y2="1348.5078"/><text fill="#000000" font-family="sans-serif" font-size="13" font-weight="bold" lengthAdjust="spacing" textLength="14" x="306.5" y="1343.6514">36</text><text fill="#000000" font-family="sans-serif" font-size="13" lengthAdjust="spacing" textLength="60" x="324.5" y="1343.6514">getNotes()</text><polygon fill="#181818" points="310.5,1374.8594,300.5,1378.8594,310.5,1382.8594,306.5,1378.8594" style="stroke:#181818;stroke-width:1.0;"/><line style="stroke:#181818;stroke-width:1.0;stroke-dasharray:2.0,2.0;" x1="304.5" x2="534.5" y1="1378.8594" y2="1378.8594"/><text fill="#000000" font-family="sans-serif" font-size="13" font-weight="bold" lengthAdjust="spacing" textLength="14" x="316.5" y="1374.0029">37</text><text fill="#000000" font-family="sans-serif" font-size="13" lengthAdjust="spacing" textLength="73" x="334.5" y="1374.0029">final note list</text><line style="stroke:#181818;stroke-width:1.0;" x1="299.5" x2="341.5" y1="1409.2109" y2="1409.2109"/><line style="stroke:#181818;stroke-width:1.0;" x1="341.5" x2="341.5" y1="1409.2109" y2="1422.2109"/><line style="stroke:#181818;stroke-width:1.0;" x1="300.5" x2="341.5" y1="1422.2109" y2="1422.2109"/><polygon fill="#181818" points="310.5,1418.2109,300.5,1422.2109,310.5,1426.2109,306.5,1422.2109" style="stroke:#181818;stroke-width:1.0;"/><text fill="#000000" font-family="sans-serif" font-size="13" font-weight="bold" lengthAdjust="spacing" textLength="14" x="306.5" y="1404.3545">38</text><text fill="#000000" font-family="sans-serif" font-size="13" lengthAdjust="spacing" textLength="143" x="324.5" y="1404.3545">dispatch("SET_NOTES")</text><line style="stroke:#181818;stroke-width:1.0;" x1="299.5" x2="341.5" y1="1452.5625" y2="1452.5625"/><line style="stroke:#181818;stroke-width:1.0;" x1="341.5" x2="341.5" y1="1452.5625" y2="1465.5625"/><line style="stroke:#181818;stroke-width:1.0;" x1="300.5" x2="341.5" y1="1465.5625" y2="1465.5625"/><polygon fill="#181818" points="310.5,1461.5625,300.5,1465.5625,310.5,1469.5625,306.5,1465.5625" style="stroke:#181818;stroke-width:1.0;"/><text fill="#000000" font-family="sans-serif" font-size="13" font-weight="bold" lengthAdjust="spacing" textLength="14" x="306.5" y="1447.7061">39</text><text fill="#000000" font-family="sans-serif" font-size="13" lengthAdjust="spacing" textLength="191" x="324.5" y="1447.7061">dispatch("SET_LOADING", false)</text><polygon fill="#181818" points="33.5,1491.9141,23.5,1495.9141,33.5,1499.9141,29.5,1495.9141" style="stroke:#181818;stroke-width:1.0;"/><line style="stroke:#181818;stroke-width:1.0;stroke-dasharray:2.0,2.0;" x1="27.5" x2="293.5" y1="1495.9141" y2="1495.9141"/><text fill="#000000" font-family="sans-serif" font-size="13" font-weight="bold" lengthAdjust="spacing" textLength="14" x="39.5" y="1491.0576">40</text><text fill="#000000" font-family="sans-serif" font-size="13" lengthAdjust="spacing" textLength="220" x="57.5" y="1491.0576">updates user interface with latest data</text><!--SRC=[nLPDRnen4BtlhvZk9I01QQEUa58fwQA8AW8aw2cgAcSz6wmkQsfxIVFlE_P-Vq29b2eSOF6-6S-yUHuFIurCqjqZAizZeP4A_EyQbGzCWttmzamP4OezImpu2sbGhvGy29vZlih4u1_JX0NCi4UcqI62s-RBZUHIQBD6TH1X1icVUt5mivex4Fsw4CM16SnYirym_b840LDWbCwEaHEWJ7OiILaC-YK9GU7l5BMf71I1UuLnmmyNUizCk1tuwzdcv_to9fWlxlmH69NYi64Jt1By2SqA4owIfm1ZD48cUZ2izY8A23PkxF0W-ASH27urcKn-U1phO2-MSWyHfK3BMzXdhe7dlZsWJos4d3uRjaMWhT90yA73bNuBakrYOK76H2iP1hFxsMO6buRfN_foAdZJrd9l5onutDZnwkDdMCWiciGuK2sNmgxShq61JiCGjMuR5O6sqtHCAzp90xR8xYPB9Dh_7TOFCa-jIJYvwosgq_k_AfbOq1Gizg5ToLvnHI8s95nd1yzRL0X2hqcboE4Q8XPhR4k02sLUd4MMPsp8119yTcimIEaapCdw6YvY6RBu8kFZg512XImNYdLGeNlbqYkPrNAzoGNJjIuAtoyQMqG2kT2_hPUB4jeZdUFooRmi2avEgQXFIRMpuYYRynuMSXsTrb9NJyVsrEoGxLZ5_hQR8cd7AKEQhZe-dAkETCzPsKP6y0OAALlAArIIHS7VMIR_lsJKUzhzfo8XGhg5EcseYBf3-TsiF9CDYhhiPjt7qTgYiv_6erskPB3DN1WZKsTrKCVGoIlGqP1hmJjPfagixt8PH2AXaSD9DgRffPtL6SF6OhcPhVtXw-OITsdK1nEoSjDHSOmqs2O0WbwhY55rduNPGcpV6200gqTQp4Qr9UliBm00]--></g></svg>