<?xml version="1.0" encoding="us-ascii" standalone="no"?><svg xmlns="http://www.w3.org/2000/svg" xmlns:xlink="http://www.w3.org/1999/xlink" contentStyleType="text/css" height="622px" preserveAspectRatio="none" style="width:561px;height:622px;background:#FFFFFF;" version="1.1" viewBox="0 0 561 622" width="561px" zoomAndPan="magnify"><defs/><g><rect fill="#FFFFFF" height="438.5703" style="stroke:#181818;stroke-width:1.0;" width="10" x="17.5" y="92.6094"/><rect fill="#FFFFFF" height="407.2188" style="stroke:#181818;stroke-width:1.0;" width="10" x="285.5" y="114.9609"/><rect fill="#FFFFFF" height="30.3516" style="stroke:#181818;stroke-width:1.0;" width="10" x="501.5" y="214.0156"/><rect fill="#FFFFFF" height="30.3516" style="stroke:#181818;stroke-width:1.0;" width="10" x="501.5" y="307.0703"/><rect fill="#FFFFFF" height="30.3516" style="stroke:#181818;stroke-width:1.0;" width="10" x="501.5" y="418.125"/><rect fill="none" height="79.0547" style="stroke:#000000;stroke-width:1.5;" width="305" x="250.5" y="173.3125"/><rect fill="none" height="122.4063" style="stroke:#000000;stroke-width:1.5;" width="305" x="250.5" y="266.3672"/><line style="stroke:#181818;stroke-width:0.5;stroke-dasharray:5.0,5.0;" x1="22" x2="22" y1="82.6094" y2="540.1797"/><line style="stroke:#181818;stroke-width:0.5;stroke-dasharray:5.0,5.0;" x1="290.5" x2="290.5" y1="82.6094" y2="540.1797"/><line style="stroke:#181818;stroke-width:0.5;stroke-dasharray:5.0,5.0;" x1="506.5" x2="506.5" y1="82.6094" y2="540.1797"/><text fill="#000000" font-family="sans-serif" font-size="14" lengthAdjust="spacing" textLength="29" x="5" y="79.5332">User</text><ellipse cx="22.5" cy="13.5" fill="#E2E2F0" rx="8" ry="8" style="stroke:#181818;stroke-width:0.5;"/><path d="M22.5,21.5 L22.5,48.5 M9.5,29.5 L35.5,29.5 M22.5,48.5 L9.5,63.5 M22.5,48.5 L35.5,63.5 " fill="none" style="stroke:#181818;stroke-width:0.5;"/><text fill="#000000" font-family="sans-serif" font-size="14" lengthAdjust="spacing" textLength="29" x="5" y="553.7129">User</text><ellipse cx="22.5" cy="565.2891" fill="#E2E2F0" rx="8" ry="8" style="stroke:#181818;stroke-width:0.5;"/><path d="M22.5,573.2891 L22.5,600.2891 M9.5,581.2891 L35.5,581.2891 M22.5,600.2891 L9.5,615.2891 M22.5,600.2891 L35.5,615.2891 " fill="none" style="stroke:#181818;stroke-width:0.5;"/><rect fill="#E2E2F0" height="31.6094" rx="2.5" ry="2.5" style="stroke:#181818;stroke-width:0.5;" width="60" x="260.5" y="50"/><text fill="#000000" font-family="sans-serif" font-size="14" lengthAdjust="spacing" textLength="46" x="267.5" y="71.5332">System</text><rect fill="#E2E2F0" height="31.6094" rx="2.5" ry="2.5" style="stroke:#181818;stroke-width:0.5;" width="60" x="260.5" y="539.1797"/><text fill="#000000" font-family="sans-serif" font-size="14" lengthAdjust="spacing" textLength="46" x="267.5" y="560.7129">System</text><text fill="#000000" font-family="sans-serif" font-size="14" lengthAdjust="spacing" textLength="72" x="467.5" y="79.5332">Todoist API</text><ellipse cx="506.5" cy="13.5" fill="#E2E2F0" rx="8" ry="8" style="stroke:#181818;stroke-width:0.5;"/><path d="M506.5,21.5 L506.5,48.5 M493.5,29.5 L519.5,29.5 M506.5,48.5 L493.5,63.5 M506.5,48.5 L519.5,63.5 " fill="none" style="stroke:#181818;stroke-width:0.5;"/><text fill="#000000" font-family="sans-serif" font-size="14" lengthAdjust="spacing" textLength="72" x="467.5" y="553.7129">Todoist API</text><ellipse cx="506.5" cy="565.2891" fill="#E2E2F0" rx="8" ry="8" style="stroke:#181818;stroke-width:0.5;"/><path d="M506.5,573.2891 L506.5,600.2891 M493.5,581.2891 L519.5,581.2891 M506.5,600.2891 L493.5,615.2891 M506.5,600.2891 L519.5,615.2891 " fill="none" style="stroke:#181818;stroke-width:0.5;"/><rect fill="#FFFFFF" height="438.5703" style="stroke:#181818;stroke-width:1.0;" width="10" x="17.5" y="92.6094"/><rect fill="#FFFFFF" height="407.2188" style="stroke:#181818;stroke-width:1.0;" width="10" x="285.5" y="114.9609"/><rect fill="#FFFFFF" height="30.3516" style="stroke:#181818;stroke-width:1.0;" width="10" x="501.5" y="214.0156"/><rect fill="#FFFFFF" height="30.3516" style="stroke:#181818;stroke-width:1.0;" width="10" x="501.5" y="307.0703"/><rect fill="#FFFFFF" height="30.3516" style="stroke:#181818;stroke-width:1.0;" width="10" x="501.5" y="418.125"/><polygon fill="#181818" points="273.5,110.9609,283.5,114.9609,273.5,118.9609,277.5,114.9609" style="stroke:#181818;stroke-width:1.0;"/><line style="stroke:#181818;stroke-width:1.0;" x1="27.5" x2="279.5" y1="114.9609" y2="114.9609"/><text fill="#000000" font-family="sans-serif" font-size="13" font-weight="bold" lengthAdjust="spacing" textLength="7" x="34.5" y="110.1045">1</text><text fill="#000000" font-family="sans-serif" font-size="13" lengthAdjust="spacing" textLength="228" x="45.5" y="110.1045">requests sync (or system auto-triggers)</text><line style="stroke:#181818;stroke-width:1.0;" x1="295.5" x2="337.5" y1="145.3125" y2="145.3125"/><line style="stroke:#181818;stroke-width:1.0;" x1="337.5" x2="337.5" y1="145.3125" y2="158.3125"/><line style="stroke:#181818;stroke-width:1.0;" x1="296.5" x2="337.5" y1="158.3125" y2="158.3125"/><polygon fill="#181818" points="306.5,154.3125,296.5,158.3125,306.5,162.3125,302.5,158.3125" style="stroke:#181818;stroke-width:1.0;"/><text fill="#000000" font-family="sans-serif" font-size="13" font-weight="bold" lengthAdjust="spacing" textLength="7" x="302.5" y="140.4561">2</text><text fill="#000000" font-family="sans-serif" font-size="13" lengthAdjust="spacing" textLength="181" x="313.5" y="140.4561">retrieves pending local changes</text><path d="M250.5,173.3125 L323.5,173.3125 L323.5,181.6641 L313.5,191.6641 L250.5,191.6641 L250.5,173.3125 " fill="#EEEEEE" style="stroke:#000000;stroke-width:1.5;"/><rect fill="none" height="79.0547" style="stroke:#000000;stroke-width:1.5;" width="305" x="250.5" y="173.3125"/><text fill="#000000" font-family="sans-serif" font-size="13" font-weight="bold" lengthAdjust="spacing" textLength="28" x="265.5" y="187.8076">loop</text><text fill="#000000" font-family="sans-serif" font-size="11" font-weight="bold" lengthAdjust="spacing" textLength="149" x="338.5" y="186.7314">[for each pending deletion]</text><polygon fill="#181818" points="489.5,210.0156,499.5,214.0156,489.5,218.0156,493.5,214.0156" style="stroke:#181818;stroke-width:1.0;"/><line style="stroke:#181818;stroke-width:1.0;" x1="295.5" x2="495.5" y1="214.0156" y2="214.0156"/><text fill="#000000" font-family="sans-serif" font-size="13" font-weight="bold" lengthAdjust="spacing" textLength="7" x="302.5" y="209.1592">3</text><text fill="#000000" font-family="sans-serif" font-size="13" lengthAdjust="spacing" textLength="99" x="313.5" y="209.1592">requests deletion</text><polygon fill="#181818" points="306.5,240.3672,296.5,244.3672,306.5,248.3672,302.5,244.3672" style="stroke:#181818;stroke-width:1.0;"/><line style="stroke:#181818;stroke-width:1.0;stroke-dasharray:2.0,2.0;" x1="300.5" x2="505.5" y1="244.3672" y2="244.3672"/><text fill="#000000" font-family="sans-serif" font-size="13" font-weight="bold" lengthAdjust="spacing" textLength="7" x="312.5" y="239.5107">4</text><text fill="#000000" font-family="sans-serif" font-size="13" lengthAdjust="spacing" textLength="98" x="323.5" y="239.5107">confirms deletion</text><path d="M250.5,266.3672 L323.5,266.3672 L323.5,274.7188 L313.5,284.7188 L250.5,284.7188 L250.5,266.3672 " fill="#EEEEEE" style="stroke:#000000;stroke-width:1.5;"/><rect fill="none" height="122.4063" style="stroke:#000000;stroke-width:1.5;" width="305" x="250.5" y="266.3672"/><text fill="#000000" font-family="sans-serif" font-size="13" font-weight="bold" lengthAdjust="spacing" textLength="28" x="265.5" y="280.8623">loop</text><text fill="#000000" font-family="sans-serif" font-size="11" font-weight="bold" lengthAdjust="spacing" textLength="175" x="338.5" y="279.7861">[for each new or modified note]</text><polygon fill="#181818" points="489.5,303.0703,499.5,307.0703,489.5,311.0703,493.5,307.0703" style="stroke:#181818;stroke-width:1.0;"/><line style="stroke:#181818;stroke-width:1.0;" x1="295.5" x2="495.5" y1="307.0703" y2="307.0703"/><text fill="#000000" font-family="sans-serif" font-size="13" font-weight="bold" lengthAdjust="spacing" textLength="7" x="302.5" y="302.2139">5</text><text fill="#000000" font-family="sans-serif" font-size="13" lengthAdjust="spacing" textLength="100" x="313.5" y="302.2139">pushes note data</text><polygon fill="#181818" points="306.5,333.4219,296.5,337.4219,306.5,341.4219,302.5,337.4219" style="stroke:#181818;stroke-width:1.0;"/><line style="stroke:#181818;stroke-width:1.0;stroke-dasharray:2.0,2.0;" x1="300.5" x2="505.5" y1="337.4219" y2="337.4219"/><text fill="#000000" font-family="sans-serif" font-size="13" font-weight="bold" lengthAdjust="spacing" textLength="7" x="312.5" y="332.5654">6</text><text fill="#000000" font-family="sans-serif" font-size="13" lengthAdjust="spacing" textLength="154" x="323.5" y="332.5654">returns synced note object</text><line style="stroke:#181818;stroke-width:1.0;" x1="295.5" x2="337.5" y1="367.7734" y2="367.7734"/><line style="stroke:#181818;stroke-width:1.0;" x1="337.5" x2="337.5" y1="367.7734" y2="380.7734"/><line style="stroke:#181818;stroke-width:1.0;" x1="296.5" x2="337.5" y1="380.7734" y2="380.7734"/><polygon fill="#181818" points="306.5,376.7734,296.5,380.7734,306.5,384.7734,302.5,380.7734" style="stroke:#181818;stroke-width:1.0;"/><text fill="#000000" font-family="sans-serif" font-size="13" font-weight="bold" lengthAdjust="spacing" textLength="7" x="302.5" y="362.917">7</text><text fill="#000000" font-family="sans-serif" font-size="13" lengthAdjust="spacing" textLength="117" x="313.5" y="362.917">updates local record</text><polygon fill="#181818" points="489.5,414.125,499.5,418.125,489.5,422.125,493.5,418.125" style="stroke:#181818;stroke-width:1.0;"/><line style="stroke:#181818;stroke-width:1.0;" x1="295.5" x2="495.5" y1="418.125" y2="418.125"/><text fill="#000000" font-family="sans-serif" font-size="13" font-weight="bold" lengthAdjust="spacing" textLength="7" x="302.5" y="413.2686">8</text><text fill="#000000" font-family="sans-serif" font-size="13" lengthAdjust="spacing" textLength="103" x="313.5" y="413.2686">requests all notes</text><polygon fill="#181818" points="306.5,444.4766,296.5,448.4766,306.5,452.4766,302.5,448.4766" style="stroke:#181818;stroke-width:1.0;"/><line style="stroke:#181818;stroke-width:1.0;stroke-dasharray:2.0,2.0;" x1="300.5" x2="505.5" y1="448.4766" y2="448.4766"/><text fill="#000000" font-family="sans-serif" font-size="13" font-weight="bold" lengthAdjust="spacing" textLength="7" x="312.5" y="443.6201">9</text><text fill="#000000" font-family="sans-serif" font-size="13" lengthAdjust="spacing" textLength="126" x="323.5" y="443.6201">returns latest note list</text><line style="stroke:#181818;stroke-width:1.0;" x1="295.5" x2="337.5" y1="478.8281" y2="478.8281"/><line style="stroke:#181818;stroke-width:1.0;" x1="337.5" x2="337.5" y1="478.8281" y2="491.8281"/><line style="stroke:#181818;stroke-width:1.0;" x1="296.5" x2="337.5" y1="491.8281" y2="491.8281"/><polygon fill="#181818" points="306.5,487.8281,296.5,491.8281,306.5,495.8281,302.5,491.8281" style="stroke:#181818;stroke-width:1.0;"/><text fill="#000000" font-family="sans-serif" font-size="13" font-weight="bold" lengthAdjust="spacing" textLength="14" x="302.5" y="473.9717">10</text><text fill="#000000" font-family="sans-serif" font-size="13" lengthAdjust="spacing" textLength="134" x="320.5" y="473.9717">updates local database</text><polygon fill="#181818" points="38.5,518.1797,28.5,522.1797,38.5,526.1797,34.5,522.1797" style="stroke:#181818;stroke-width:1.0;"/><line style="stroke:#181818;stroke-width:1.0;stroke-dasharray:2.0,2.0;" x1="32.5" x2="289.5" y1="522.1797" y2="522.1797"/><text fill="#000000" font-family="sans-serif" font-size="13" font-weight="bold" lengthAdjust="spacing" textLength="14" x="44.5" y="517.3232">11</text><text fill="#000000" font-family="sans-serif" font-size="13" lengthAdjust="spacing" textLength="127" x="62.5" y="517.3232">displays updated data</text><!--SRC=[ZPB1JiCm38RlUGfh9pZi1NP0uiWD2NW0D_6we3G9iJkqjyTfIhTEcw27rghz__yNApXAYkFGKJ46hQG2cm-ciW5ag8N9MCHRdp4ARDvEB3HCpLR-QjwJIvu5dbzVfgv-9pz_HA5cL5-mVPg5i8D2NoEnCF0fMdXG6sujLAQj5D_tLFZnR3D7cjbXxQNpT2I6JD7vs4D85WFO0yQUs8IKCkmrWj0UbXb7WSIdQ42Viwl2N-AjfXQOUiBwemvlBr5iYdjVXYkTevLI0SmLLAHlq7f8pkyzEOX9w2PO7lcW1wrzS2ZuJovTqLXYs_Pi3wdx92kt0DV1YycODL73stOBsLHSEypTzM48KnYRLS1Tlb03fF45lLFcYipyYLMNqY7JCgcZq-tRWVES0vvuLhYsm8k49la1]--></g></svg>