<?xml version="1.0" encoding="us-ascii" standalone="no"?><svg xmlns="http://www.w3.org/2000/svg" xmlns:xlink="http://www.w3.org/1999/xlink" contentStyleType="text/css" height="904px" preserveAspectRatio="none" style="width:853px;height:904px;background:#FFFFFF;" version="1.1" viewBox="0 0 853 904" width="853px" zoomAndPan="magnify"><defs/><g><!--cluster src--><g id="cluster_src"><path d="M8.5,6 L31.5,6 A3.75,3.75 0 0 1 34,8.5 L41,29.6094 L843.5,29.6094 A2.5,2.5 0 0 1 846,32.1094 L846,894.5 A2.5,2.5 0 0 1 843.5,897 L8.5,897 A2.5,2.5 0 0 1 6,894.5 L6,8.5 A2.5,2.5 0 0 1 8.5,6 " fill="none" style="stroke:#000000;stroke-width:1.5;"/><line style="stroke:#000000;stroke-width:1.5;" x1="6" x2="41" y1="29.6094" y2="29.6094"/><text fill="#000000" font-family="sans-serif" font-size="14" font-weight="bold" lengthAdjust="spacing" textLength="22" x="10" y="22.5332">src</text></g><!--cluster App--><g id="cluster_App"><path d="M342.5,58 L369.5,58 A3.75,3.75 0 0 1 372,60.5 L379,81.6094 L681.5,81.6094 A2.5,2.5 0 0 1 684,84.1094 L684,171.5 A2.5,2.5 0 0 1 681.5,174 L342.5,174 A2.5,2.5 0 0 1 340,171.5 L340,60.5 A2.5,2.5 0 0 1 342.5,58 " fill="none" style="stroke:#000000;stroke-width:1.5;"/><line style="stroke:#000000;stroke-width:1.5;" x1="340" x2="379" y1="81.6094" y2="81.6094"/><text fill="#000000" font-family="sans-serif" font-size="14" font-weight="bold" lengthAdjust="spacing" textLength="26" x="344" y="74.5332">app</text></g><!--cluster lib--><g id="cluster_lib"><path d="M32.5,334 L50.5,334 A3.75,3.75 0 0 1 53,336.5 L60,357.6094 L819.5,357.6094 A2.5,2.5 0 0 1 822,360.1094 L822,870.5 A2.5,2.5 0 0 1 819.5,873 L32.5,873 A2.5,2.5 0 0 1 30,870.5 L30,336.5 A2.5,2.5 0 0 1 32.5,334 " fill="none" style="stroke:#000000;stroke-width:1.5;"/><line style="stroke:#000000;stroke-width:1.5;" x1="30" x2="60" y1="357.6094" y2="357.6094"/><text fill="#000000" font-family="sans-serif" font-size="14" font-weight="bold" lengthAdjust="spacing" textLength="17" x="34" y="350.5332">lib</text></g><!--cluster Context--><g id="cluster_Context"><path d="M64.5,386 L118.5,386 A3.75,3.75 0 0 1 121,388.5 L128,409.6094 L319.5,409.6094 A2.5,2.5 0 0 1 322,412.1094 L322,653 A2.5,2.5 0 0 1 319.5,655.5 L64.5,655.5 A2.5,2.5 0 0 1 62,653 L62,388.5 A2.5,2.5 0 0 1 64.5,386 " fill="none" style="stroke:#000000;stroke-width:1.5;"/><line style="stroke:#000000;stroke-width:1.5;" x1="62" x2="128" y1="409.6094" y2="409.6094"/><text fill="#000000" font-family="sans-serif" font-size="14" font-weight="bold" lengthAdjust="spacing" textLength="53" x="66" y="402.5332">context</text></g><!--cluster Services--><g id="cluster_Services"><path d="M364.5,543 L426.5,543 A3.75,3.75 0 0 1 429,545.5 L436,566.6094 L538.5,566.6094 A2.5,2.5 0 0 1 541,569.1094 L541,656.5 A2.5,2.5 0 0 1 538.5,659 L364.5,659 A2.5,2.5 0 0 1 362,656.5 L362,545.5 A2.5,2.5 0 0 1 364.5,543 " fill="none" style="stroke:#000000;stroke-width:1.5;"/><line style="stroke:#000000;stroke-width:1.5;" x1="362" x2="436" y1="566.6094" y2="566.6094"/><text fill="#000000" font-family="sans-serif" font-size="14" font-weight="bold" lengthAdjust="spacing" textLength="61" x="366" y="559.5332">services</text></g><!--cluster Network--><g id="cluster_Network"><path d="M364.5,725 L402.5,725 A3.75,3.75 0 0 1 405,727.5 L412,748.6094 L550.5,748.6094 A2.5,2.5 0 0 1 553,751.1094 L553,838.5 A2.5,2.5 0 0 1 550.5,841 L364.5,841 A2.5,2.5 0 0 1 362,838.5 L362,727.5 A2.5,2.5 0 0 1 364.5,725 " fill="none" style="stroke:#000000;stroke-width:1.5;"/><line style="stroke:#000000;stroke-width:1.5;" x1="362" x2="412" y1="748.6094" y2="748.6094"/><text fill="#000000" font-family="sans-serif" font-size="14" font-weight="bold" lengthAdjust="spacing" textLength="37" x="366" y="741.5332">axios</text></g><!--cluster Database--><g id="cluster_Database"><path d="M583.5,543 L602.5,543 A3.75,3.75 0 0 1 605,545.5 L612,566.6094 L787.5,566.6094 A2.5,2.5 0 0 1 790,569.1094 L790,656.5 A2.5,2.5 0 0 1 787.5,659 L583.5,659 A2.5,2.5 0 0 1 581,656.5 L581,545.5 A2.5,2.5 0 0 1 583.5,543 " fill="none" style="stroke:#000000;stroke-width:1.5;"/><line style="stroke:#000000;stroke-width:1.5;" x1="581" x2="612" y1="566.6094" y2="566.6094"/><text fill="#000000" font-family="sans-serif" font-size="14" font-weight="bold" lengthAdjust="spacing" textLength="18" x="585" y="559.5332">db</text></g><!--entity Layout Wrappers--><g id="elem_Layout Wrappers"><rect fill="#F1F1F1" height="47.6094" rx="2.5" ry="2.5" style="stroke:#181818;stroke-width:0.5;" width="149" x="510.5" y="102"/><rect fill="#F1F1F1" height="10" style="stroke:#181818;stroke-width:0.5;" width="15" x="639.5" y="107"/><rect fill="#F1F1F1" height="2" style="stroke:#181818;stroke-width:0.5;" width="4" x="637.5" y="109"/><rect fill="#F1F1F1" height="2" style="stroke:#181818;stroke-width:0.5;" width="4" x="637.5" y="113"/><text fill="#000000" font-family="sans-serif" font-size="14" lengthAdjust="spacing" textLength="109" x="525.5" y="136.5332">Layout Wrappers</text></g><!--entity Screens--><g id="elem_Screens"><rect fill="#F1F1F1" height="47.6094" rx="2.5" ry="2.5" style="stroke:#181818;stroke-width:0.5;" width="92" x="383" y="102"/><rect fill="#F1F1F1" height="10" style="stroke:#181818;stroke-width:0.5;" width="15" x="455" y="107"/><rect fill="#F1F1F1" height="2" style="stroke:#181818;stroke-width:0.5;" width="4" x="453" y="109"/><rect fill="#F1F1F1" height="2" style="stroke:#181818;stroke-width:0.5;" width="4" x="453" y="113"/><text fill="#000000" font-family="sans-serif" font-size="14" lengthAdjust="spacing" textLength="52" x="398" y="136.5332">Screens</text></g><!--entity Components--><g id="elem_Components"><path d="M183,246 L285,246 A3.75,3.75 0 0 1 287.5,248.5 L294.5,269.6094 L309,269.6094 A2.5,2.5 0 0 1 311.5,272.1094 L311.5,284.1094 A2.5,2.5 0 0 1 309,286.6094 L183,286.6094 A2.5,2.5 0 0 1 180.5,284.1094 L180.5,248.5 A2.5,2.5 0 0 1 183,246 " fill="#F1F1F1" style="stroke:#181818;stroke-width:0.5;"/><line style="stroke:#181818;stroke-width:0.5;" x1="180.5" x2="294.5" y1="269.6094" y2="269.6094"/><text fill="#000000" font-family="sans-serif" font-size="14" font-weight="bold" lengthAdjust="spacing" textLength="89" x="190.5" y="263.5332">Components</text></g><!--entity Auth--><g id="elem_Auth"><path d="M88.5,430 L133.5,430 A3.75,3.75 0 0 1 136,432.5 L143,453.6094 L157.5,453.6094 A2.5,2.5 0 0 1 160,456.1094 L160,468.1094 A2.5,2.5 0 0 1 157.5,470.6094 L88.5,470.6094 A2.5,2.5 0 0 1 86,468.1094 L86,432.5 A2.5,2.5 0 0 1 88.5,430 " fill="#F1F1F1" style="stroke:#181818;stroke-width:0.5;"/><line style="stroke:#181818;stroke-width:0.5;" x1="86" x2="143" y1="453.6094" y2="453.6094"/><text fill="#000000" font-family="sans-serif" font-size="14" font-weight="bold" lengthAdjust="spacing" textLength="32" x="96" y="447.5332">Auth</text></g><!--entity Notes--><g id="elem_Notes"><path d="M198,430 L252,430 A3.75,3.75 0 0 1 254.5,432.5 L261.5,453.6094 L276,453.6094 A2.5,2.5 0 0 1 278.5,456.1094 L278.5,468.1094 A2.5,2.5 0 0 1 276,470.6094 L198,470.6094 A2.5,2.5 0 0 1 195.5,468.1094 L195.5,432.5 A2.5,2.5 0 0 1 198,430 " fill="#F1F1F1" style="stroke:#181818;stroke-width:0.5;"/><line style="stroke:#181818;stroke-width:0.5;" x1="195.5" x2="261.5" y1="453.6094" y2="453.6094"/><text fill="#000000" font-family="sans-serif" font-size="14" font-weight="bold" lengthAdjust="spacing" textLength="41" x="205.5" y="447.5332">Notes</text></g><!--entity Weather--><g id="elem_Weather"><path d="M89,590.5 L161,590.5 A3.75,3.75 0 0 1 163.5,593 L170.5,614.1094 L185,614.1094 A2.5,2.5 0 0 1 187.5,616.6094 L187.5,628.6094 A2.5,2.5 0 0 1 185,631.1094 L89,631.1094 A2.5,2.5 0 0 1 86.5,628.6094 L86.5,593 A2.5,2.5 0 0 1 89,590.5 " fill="#F1F1F1" style="stroke:#181818;stroke-width:0.5;"/><line style="stroke:#181818;stroke-width:0.5;" x1="86.5" x2="170.5" y1="614.1094" y2="614.1094"/><text fill="#000000" font-family="sans-serif" font-size="14" font-weight="bold" lengthAdjust="spacing" textLength="59" x="96.5" y="608.0332">Weather</text></g><!--entity Todoist API--><g id="elem_Todoist API"><rect fill="#F1F1F1" height="47.6094" rx="2.5" ry="2.5" style="stroke:#181818;stroke-width:0.5;" width="112" x="405" y="587"/><rect fill="#F1F1F1" height="10" style="stroke:#181818;stroke-width:0.5;" width="15" x="497" y="592"/><rect fill="#F1F1F1" height="2" style="stroke:#181818;stroke-width:0.5;" width="4" x="495" y="594"/><rect fill="#F1F1F1" height="2" style="stroke:#181818;stroke-width:0.5;" width="4" x="495" y="598"/><text fill="#000000" font-family="sans-serif" font-size="14" lengthAdjust="spacing" textLength="72" x="420" y="621.5332">Todoist API</text></g><!--entity HTTP Clients--><g id="elem_HTTP Clients"><rect fill="#F1F1F1" height="47.6094" rx="2.5" ry="2.5" style="stroke:#181818;stroke-width:0.5;" width="123" x="405.5" y="769"/><rect fill="#F1F1F1" height="10" style="stroke:#181818;stroke-width:0.5;" width="15" x="508.5" y="774"/><rect fill="#F1F1F1" height="2" style="stroke:#181818;stroke-width:0.5;" width="4" x="506.5" y="776"/><rect fill="#F1F1F1" height="2" style="stroke:#181818;stroke-width:0.5;" width="4" x="506.5" y="780"/><text fill="#000000" font-family="sans-serif" font-size="14" lengthAdjust="spacing" textLength="83" x="420.5" y="803.5332">HTTP Clients</text></g><!--entity Local DB Config--><g id="elem_Local DB Config"><rect fill="#F1F1F1" height="47.6094" rx="2.5" ry="2.5" style="stroke:#181818;stroke-width:0.5;" width="142" x="624" y="587"/><rect fill="#F1F1F1" height="10" style="stroke:#181818;stroke-width:0.5;" width="15" x="746" y="592"/><rect fill="#F1F1F1" height="2" style="stroke:#181818;stroke-width:0.5;" width="4" x="744" y="594"/><rect fill="#F1F1F1" height="2" style="stroke:#181818;stroke-width:0.5;" width="4" x="744" y="598"/><text fill="#000000" font-family="sans-serif" font-size="14" lengthAdjust="spacing" textLength="102" x="639" y="621.5332">Local DB Config</text></g><!--link App to Components--><g id="link_App_Components"><path d="M339.8662,138.0479 C339.6953,138.2799 339.5222,138.5149 339.3468,138.753 C338.6454,139.7054 337.9082,140.7063 337.1378,141.7522 C330.975,150.1194 322.6912,161.3662 313.62,173.6825 C295.4775,198.315 277.7429,222.3937 263.9679,241.0987 " fill="none" id="App-to-Components" style="stroke:#181818;stroke-width:1.0;stroke-dasharray:7.0,7.0;"/><polygon fill="#181818" points="260.41,245.93,268.9677,241.055,263.3749,241.9039,262.526,236.3111,260.41,245.93" style="stroke:#181818;stroke-width:1.0;"/><text fill="#000000" font-family="sans-serif" font-size="13" lengthAdjust="spacing" textLength="43" x="294" y="212.4951">imports</text></g><!--link App to Context--><g id="link_App_Context"><path d="M358.7146,174.0978 C358.7574,174.2035 358.8003,174.3091 358.8435,174.4146 C359.016,174.8367 359.1911,175.2579 359.3689,175.678 C360.0803,177.3583 360.8347,179.0208 361.6346,180.6536 C363.2344,183.9192 365.0163,187.0663 367,190 C370.19,194.72 374.53,192.87 377,198 C400.1,246.07 388.82,265.99 377,318 C369.935,349.105 354.5625,381.4475 340.7725,406.2738 C333.8775,418.6869 327.3781,429.2209 322.5106,436.7817 C322.3585,437.018 325.4641,432.2118 325.3152,432.4422 " fill="none" id="App-to-Context" style="stroke:#181818;stroke-width:1.0;stroke-dasharray:7.0,7.0;"/><polygon fill="#181818" points="322.0591,437.4818,330.303,432.0931,324.7725,433.2821,323.5836,427.7516,322.0591,437.4818" style="stroke:#181818;stroke-width:1.0;"/><text fill="#000000" font-family="sans-serif" font-size="13" lengthAdjust="spacing" textLength="93" x="391" y="271.9951">consumes state</text></g><!--link Components to Context--><g id="link_Components_Context"><path d="M267.24,287.23 C277.27,297.76 288.45,311.52 295,326 C300.635,338.45 304.6475,352.2519 307.4947,365.9863 C308.2065,369.4198 308.8454,372.8492 309.4187,376.2522 C309.7054,377.9537 309.9756,379.6486 310.2303,381.3341 C310.3576,382.1769 310.4811,383.0173 310.6008,383.855 C310.6606,384.2739 310.7195,384.6921 310.7775,385.1095 C310.8065,385.3183 310.0215,379.5823 310.05,379.7906 " fill="none" id="Components-to-Context" style="stroke:#181818;stroke-width:1.0;stroke-dasharray:7.0,7.0;"/><polygon fill="#181818" points="310.8637,385.7352,313.6062,376.2759,310.1856,380.7814,305.6801,377.3609,310.8637,385.7352" style="stroke:#181818;stroke-width:1.0;"/></g><!--link Context to Services--><g id="link_Context_Services"><path d="M322.0643,474.3228 C322.1414,474.541 322.2189,474.7604 322.2968,474.981 C322.6085,475.8633 322.9269,476.7642 323.2514,477.6828 C328.4441,492.38 335.2281,511.5812 342.0113,530.78 C348.7944,549.9788 355.5766,569.175 360.7655,583.8622 C361.0898,584.7801 361.4079,585.6805 361.7193,586.5621 C361.7972,586.7825 359.876,581.3444 359.953,581.5625 " fill="none" id="Context-to-Services" style="stroke:#181818;stroke-width:1.0;stroke-dasharray:7.0,7.0;"/><polygon fill="#181818" points="361.9517,587.2198,362.7252,577.4013,360.2861,582.5054,355.1821,580.0663,361.9517,587.2198" style="stroke:#181818;stroke-width:1.0;"/><text fill="#000000" font-family="sans-serif" font-size="13" lengthAdjust="spacing" textLength="71" x="337" y="515.4951">fetches data</text></g><!--link Context to Database--><g id="link_Context_Database"><path d="M322.221,452.4391 C322.4983,452.474 322.7821,452.51 323.0723,452.5471 C323.6526,452.6213 324.2584,452.6999 324.889,452.783 C326.1501,452.9493 327.5102,453.1336 328.9637,453.337 C331.8706,453.7439 335.1512,454.2274 338.7603,454.7961 C353.1969,457.0709 372.8913,460.7094 394.9675,466.2638 C439.12,477.3725 492.8,496.145 533,527 C550.1,540.125 563.7725,560.0075 573.3263,577.0225 C575.7147,581.2762 577.8457,585.3508 579.7085,589.0957 C579.9413,589.5638 580.17,590.0268 580.3944,590.4843 C580.5067,590.7131 580.6178,590.9405 580.728,591.1665 C580.783,591.2795 578.217,585.9948 578.2715,586.1071 " fill="none" id="Context-to-Database" style="stroke:#181818;stroke-width:1.0;stroke-dasharray:7.0,7.0;"/><polygon fill="#181818" points="580.8923,591.5044,580.5593,581.6612,578.7083,587.0066,573.3629,585.1556,580.8923,591.5044" style="stroke:#181818;stroke-width:1.0;"/><text fill="#000000" font-family="sans-serif" font-size="13" lengthAdjust="spacing" textLength="75" x="518" y="515.4951">persists data</text></g><!--link Services to Network--><g id="link_Services_Network"><path d="M370,659.6377 C370,659.9423 370,660.2478 370,660.554 C370,661.1666 370,661.7824 370,662.4014 C370,664.8772 370,667.4029 370,669.9685 C370,680.2312 370,691.1328 370,702.0338 C370,707.4842 370,712.9345 370,718.3047 C370,719.6472 370,720.9847 370,722.316 C370,722.9816 370,723.6457 370,724.3081 C370,724.4737 370,718.6391 370,718.8045 " fill="none" id="Services-to-Network" style="stroke:#181818;stroke-width:1.0;stroke-dasharray:7.0,7.0;"/><polygon fill="#181818" points="370,724.8045,374,715.8045,370,719.8045,366,715.8045,370,724.8045" style="stroke:#181818;stroke-width:1.0;"/><text fill="#000000" font-family="sans-serif" font-size="13" lengthAdjust="spacing" textLength="116" x="371" y="697.4951">uses axios instance</text></g><!--SRC=[ZP9DRi8m48NtFiKe1-00MLHAOT5A224HYGLYuJW3iGYsPKzQgegxryuVJagbPZMPz_nb_2Q6Ymi_8oJEYWI-6VZ733rkJ0BSGMPCBuNdiEPVkY7OMw-ZTSU7iXCMKVMTEvlIe6KjzTLeXOhSY7pghcMHH1yT-q8hmXlrhBQER1Dhrb2LF9Sscj3zeUsHKuNseVQZJKmExOSKdX7csFKliq4EkIwrT0JPzlqOqORgDvNVfEwG6wHFRIzpubkURs5Pov3V_v1bqV9Md7Z17Sw1Qoru3QlNaEL9dkVCE_EN3-jVB5xYrQKWVMt9HMAtYnJyXbnpzMauueICHSSYO-Xt9q9pJ3254vAeV5NwYIUUyGefXD_E1zkRs7Wws8RaKcYSRxMHWbH-62MG_G00]--></g></svg>