<?xml version="1.0" encoding="us-ascii" standalone="no"?><svg xmlns="http://www.w3.org/2000/svg" xmlns:xlink="http://www.w3.org/1999/xlink" contentStyleType="text/css" height="595px" preserveAspectRatio="none" style="width:799px;height:595px;background:#FFFFFF;" version="1.1" viewBox="0 0 799 595" width="799px" zoomAndPan="magnify"><defs/><g><!--cluster Tick it--><g id="cluster_Tick it"><rect fill="none" height="577" rx="2.5" ry="2.5" style="stroke:#181818;stroke-width:1.0;" width="505" x="82" y="7"/><text fill="#000000" font-family="sans-serif" font-size="14" font-weight="bold" lengthAdjust="spacing" textLength="41" x="314" y="23.5332">Tick it</text></g><g id="elem_UC03"><ellipse cx="204.9447" cy="70.9034" fill="#F1F1F1" rx="106.9447" ry="27.9034" style="stroke:#181818;stroke-width:0.5;"/><text fill="#000000" font-family="sans-serif" font-size="14" lengthAdjust="spacing" textLength="107" x="151.4447" y="65.8272">Authenticate with</text><text fill="#000000" font-family="sans-serif" font-size="14" lengthAdjust="spacing" textLength="135" x="137.4447" y="83.4366">biometrics to use app</text></g><g id="elem_UC04"><ellipse cx="204.9074" cy="150.0891" fill="#F1F1F1" rx="60.9074" ry="15.5891" style="stroke:#181818;stroke-width:0.5;"/><text fill="#000000" font-family="sans-serif" font-size="14" lengthAdjust="spacing" textLength="69" x="167.4074" y="154.6057">View Notes</text></g><g id="elem_UC05"><ellipse cx="205.08" cy="216.1227" fill="#F1F1F1" rx="66.08" ry="15.6227" style="stroke:#181818;stroke-width:0.5;"/><text fill="#000000" font-family="sans-serif" font-size="14" lengthAdjust="spacing" textLength="76" x="164.08" y="220.6393">Create Note</text></g><g id="elem_UC06"><ellipse cx="205.0419" cy="282.0159" fill="#F1F1F1" rx="52.0419" ry="15.5159" style="stroke:#181818;stroke-width:0.5;"/><text fill="#000000" font-family="sans-serif" font-size="14" lengthAdjust="spacing" textLength="57" x="173.5419" y="286.5325">Edit Note</text></g><g id="elem_UC07"><ellipse cx="205.102" cy="348.1136" fill="#F1F1F1" rx="64.602" ry="15.6136" style="stroke:#181818;stroke-width:0.5;"/><text fill="#000000" font-family="sans-serif" font-size="14" lengthAdjust="spacing" textLength="74" x="165.102" y="352.6302">Delete Note</text></g><g id="elem_UC01"><ellipse cx="205.2256" cy="415.9451" fill="#F1F1F1" rx="75.2256" ry="17.4451" style="stroke:#181818;stroke-width:0.5;"/><text fill="#000000" font-family="sans-serif" font-size="14" lengthAdjust="spacing" textLength="102" x="151.2256" y="420.4617">Log into Todoist</text></g><g id="elem_UC02"><ellipse cx="204.9598" cy="483.9615" fill="#F1F1F1" rx="45.4598" ry="15.4615" style="stroke:#181818;stroke-width:0.5;"/><text fill="#000000" font-family="sans-serif" font-size="14" lengthAdjust="spacing" textLength="48" x="179.7695" y="488.0394">Log out</text></g><g id="elem_UC08"><ellipse cx="204.8041" cy="550.8608" fill="#F1F1F1" rx="69.8041" ry="16.3608" style="stroke:#181818;stroke-width:0.5;"/><text fill="#000000" font-family="sans-serif" font-size="14" lengthAdjust="spacing" textLength="87" x="158.3041" y="555.3774">View Weather</text></g><g id="elem_UC09"><ellipse cx="512.952" cy="315.0671" fill="#F1F1F1" rx="57.952" ry="15.5671" style="stroke:#181818;stroke-width:0.5;"/><text fill="#000000" font-family="sans-serif" font-size="14" lengthAdjust="spacing" textLength="65" x="477.452" y="319.5837">Sync Data</text></g><!--entity user--><g id="elem_user"><ellipse cx="20.5" cy="291.5" fill="#F1F1F1" rx="8" ry="8" style="stroke:#181818;stroke-width:0.5;"/><path d="M20.5,299.5 L20.5,326.5 M7.5,307.5 L33.5,307.5 M20.5,326.5 L7.5,341.5 M20.5,326.5 L33.5,341.5 " fill="none" style="stroke:#181818;stroke-width:0.5;"/><text fill="#000000" font-family="sans-serif" font-size="14" lengthAdjust="spacing" textLength="29" x="6" y="357.5332">User</text></g><!--entity todoist--><g id="elem_todoist"><ellipse cx="752.5" cy="345.5" fill="#F1F1F1" rx="8" ry="8" style="stroke:#181818;stroke-width:0.5;"/><path d="M752.5,353.5 L752.5,380.5 M739.5,361.5 L765.5,361.5 M752.5,380.5 L739.5,395.5 M752.5,380.5 L765.5,395.5 " fill="none" style="stroke:#181818;stroke-width:0.5;"/><text fill="#000000" font-family="sans-serif" font-size="14" lengthAdjust="spacing" textLength="72" x="716.5" y="411.5332">Todoist API</text></g><!--entity weather--><g id="elem_weather"><ellipse cx="752.5" cy="520.5" fill="#F1F1F1" rx="8" ry="8" style="stroke:#181818;stroke-width:0.5;"/><path d="M752.5,528.5 L752.5,555.5 M739.5,536.5 L765.5,536.5 M752.5,555.5 L739.5,570.5 M752.5,555.5 L765.5,570.5 " fill="none" style="stroke:#181818;stroke-width:0.5;"/><text fill="#000000" font-family="sans-serif" font-size="14" lengthAdjust="spacing" textLength="79" x="713" y="586.5332">Weather API</text></g><!--link user to UC01--><g id="link_user_UC01"><path d="M35.04,342.56 C44.51,355.4 58.25,371.27 74,381 C94.18,393.47 112.9571,400.186 135.3171,405.406 " fill="none" id="user-to-UC01" style="stroke:#181818;stroke-width:1.0;"/><polygon fill="#181818" points="141.16,406.77,133.305,400.8287,136.2909,405.6333,131.4863,408.6192,141.16,406.77" style="stroke:#181818;stroke-width:1.0;"/></g><!--link user to UC02--><g id="link_user_UC02"><path d="M27.71,361.04 C34.32,389.91 47.65,428.06 74,451 C97.53,471.49 126.0864,478.9098 153.6364,481.9598 " fill="none" id="user-to-UC02" style="stroke:#181818;stroke-width:1.0;"/><polygon fill="#181818" points="159.6,482.62,151.0948,477.654,154.6304,482.0698,150.2145,485.6054,159.6,482.62" style="stroke:#181818;stroke-width:1.0;"/></g><!--link user to UC03--><g id="link_user_UC03"><path d="M21.05,282.94 C22.64,237.48 32.1,162.82 74,117 C86.04,103.84 96.5131,96.6781 113.2031,89.9681 " fill="none" id="user-to-UC03" style="stroke:#181818;stroke-width:1.0;"/><polygon fill="#181818" points="118.77,87.73,108.9275,87.3759,114.1309,89.5951,111.9117,94.7985,118.77,87.73" style="stroke:#181818;stroke-width:1.0;"/></g><!--link user to UC04--><g id="link_user_UC04"><path d="M26.33,282.87 C32.25,251.49 45.34,208.61 74,183 C93.36,165.7 114.6012,158.1937 139.0912,154.1237 " fill="none" id="user-to-UC04" style="stroke:#181818;stroke-width:1.0;"/><polygon fill="#181818" points="145.01,153.14,135.476,150.6696,140.0776,153.9597,136.7875,158.5614,145.01,153.14" style="stroke:#181818;stroke-width:1.0;"/></g><!--link user to UC05--><g id="link_user_UC05"><path d="M35.15,294.3 C44.16,278.78 57.36,260.34 74,249 C94.69,234.91 115.0434,227.9913 138.5134,223.3613 " fill="none" id="user-to-UC05" style="stroke:#181818;stroke-width:1.0;"/><polygon fill="#181818" points="144.4,222.2,134.796,220.0175,139.4945,223.1677,136.3443,227.8663,144.4,222.2" style="stroke:#181818;stroke-width:1.0;"/></g><!--link user to UC06--><g id="link_user_UC06"><path d="M35.18,318.38 C43.73,316.16 54.98,313.31 65,311 C97.19,303.58 127.8786,297.167 155.4286,291.607 " fill="none" id="user-to-UC06" style="stroke:#181818;stroke-width:1.0;"/><polygon fill="#181818" points="161.31,290.42,151.6966,288.2795,156.4088,291.4091,153.2792,296.1214,161.31,290.42" style="stroke:#181818;stroke-width:1.0;"/></g><!--link user to UC07--><g id="link_user_UC07"><path d="M35.22,323.95 C59.09,327.36 103.5699,333.6944 143.1199,339.3244 " fill="none" id="user-to-UC07" style="stroke:#181818;stroke-width:1.0;"/><polygon fill="#181818" points="149.06,340.17,140.7135,334.9415,144.1099,339.4653,139.5861,342.8617,149.06,340.17" style="stroke:#181818;stroke-width:1.0;"/></g><!--link user to UC08--><g id="link_user_UC08"><path d="M21.06,361.36 C22.77,405.33 32.45,475.75 74,517 C90.72,533.6 108.5985,541.2033 131.2485,545.7733 " fill="none" id="user-to-UC08" style="stroke:#181818;stroke-width:1.0;"/><polygon fill="#181818" points="137.13,546.96,129.0989,541.259,132.2288,545.9711,127.5167,549.101,137.13,546.96" style="stroke:#181818;stroke-width:1.0;"/></g><!--link UC05 to UC09--><g id="link_UC05_UC09"><path d="M267.7,221.18 C311.42,226.36 370.81,236.5 420,256 C447.69,266.98 471.2553,283.0334 489.0253,296.6334 " fill="none" id="UC05-to-UC09" style="stroke:#181818;stroke-width:1.0;stroke-dasharray:7.0,7.0;"/><polygon fill="#181818" points="493.79,300.28,489.074,291.6336,489.8194,297.2412,484.2119,297.9866,493.79,300.28" style="stroke:#181818;stroke-width:1.0;"/><text fill="#000000" font-family="sans-serif" font-size="13" lengthAdjust="spacing" textLength="55" x="351.5" y="215.4951">&#171;include&#187;</text><text fill="#000000" font-family="sans-serif" font-size="13" lengthAdjust="spacing" textLength="76" x="343" y="231.8467">(when online)</text></g><!--link UC06 to UC09--><g id="link_UC06_UC09"><path d="M254.15,287.19 C309.86,293.2 395.3346,302.4169 453.0346,308.6369 " fill="none" id="UC06-to-UC09" style="stroke:#181818;stroke-width:1.0;stroke-dasharray:7.0,7.0;"/><polygon fill="#181818" points="459,309.28,450.4806,304.3384,454.0288,308.7441,449.6231,312.2924,459,309.28" style="stroke:#181818;stroke-width:1.0;"/><text fill="#000000" font-family="sans-serif" font-size="13" lengthAdjust="spacing" textLength="55" x="351.5" y="278.4951">&#171;include&#187;</text><text fill="#000000" font-family="sans-serif" font-size="13" lengthAdjust="spacing" textLength="76" x="343" y="294.8467">(when online)</text></g><!--link UC07 to UC09--><g id="link_UC07_UC09"><path d="M266.42,352.98 C309.54,355.26 368.73,355.78 420,347 C441.33,343.34 458.7604,337.5716 476.4304,330.4916 " fill="none" id="UC07-to-UC09" style="stroke:#181818;stroke-width:1.0;stroke-dasharray:7.0,7.0;"/><polygon fill="#181818" points="482,328.26,472.1579,327.8944,477.3587,330.1197,475.1334,335.3204,482,328.26" style="stroke:#181818;stroke-width:1.0;"/><text fill="#000000" font-family="sans-serif" font-size="13" lengthAdjust="spacing" textLength="55" x="351.5" y="327.4951">&#171;include&#187;</text><text fill="#000000" font-family="sans-serif" font-size="13" lengthAdjust="spacing" textLength="76" x="343" y="343.8467">(when online)</text></g><!--reverse link UC01 to todoist--><g id="link_UC01_todoist"><path d="M282.744,410.3715 C400.794,401.7215 627.71,385.08 716.23,378.59 " fill="none" id="UC01-backto-todoist" style="stroke:#181818;stroke-width:1.0;"/><polygon fill="#181818" points="276.76,410.81,286.0282,414.1416,281.7466,410.4446,285.4436,406.163,276.76,410.81" style="stroke:#181818;stroke-width:1.0;"/><text fill="#000000" font-family="sans-serif" font-size="13" lengthAdjust="spacing" textLength="111" x="457.5" y="384.4951">Authenticates User</text></g><!--reverse link UC08 to weather--><g id="link_UC08_weather"><path d="M281.09,551 C397.2,551 621.71,551 712.99,551 " fill="none" id="UC08-backto-weather" style="stroke:#181818;stroke-width:1.0;"/><polygon fill="#181818" points="275.09,551,284.09,555,280.09,551,284.09,547,275.09,551" style="stroke:#181818;stroke-width:1.0;"/><text fill="#000000" font-family="sans-serif" font-size="13" lengthAdjust="spacing" textLength="124" x="451" y="547.4951">Fetches Weather Info</text></g><!--reverse link UC09 to todoist--><g id="link_UC09_todoist"><path d="M561.1816,327.1218 C606.7616,338.8218 673.49,355.96 716.4,366.98 " fill="none" id="UC09-backto-todoist" style="stroke:#181818;stroke-width:1.0;"/><polygon fill="#181818" points="555.37,325.63,563.0929,331.7421,560.213,326.8732,565.0819,323.9933,555.37,325.63" style="stroke:#181818;stroke-width:1.0;"/><text fill="#000000" font-family="sans-serif" font-size="13" lengthAdjust="spacing" textLength="75" x="607" y="337.4951">Syncs Notes</text></g><!--SRC=[bP9VIyCm5CNVyoakUzA73lT_ap4Ocy90H9ZJ5rzYUjTUrYMblQKCyRkRTCjOr0VjKq_EBoVfxSbmoy062afIXfWAL4n6Yt97EfU5t4CkrKuckEP3Xk1igPCCXH1IiIcWjIcnQ84ieR8lVl7Pn8PAXldJgl7ugBtzYf9JBCvsVTH2dFDj1AaT4BVWGu1zRBgIfLsVLnRLJ4eoGasSlkbtCdlaWfGxo94Wyxm9tYnkUk7s5y8Q7WrZwO5-22mATCaEySGW9EvYui0VXluIC_oMC0g91vC0QNlNqvmyrlc9cUhiTd_vajCaFJ8EaVL1ArXAbjwVY4yXt8-2A9eTJxnKtK3r0jKFr21Gmq2D0ZMsLN4ReDrkz0HkOJebhR8gnjaCtlHLRNye69sHncl73l_1ZlxADhVem3IAV1ljXiiosG6v1hihEohohRJOFR9ABU1xkz9R8vepmpWtx_BOBl45]--></g></svg>