<?xml version="1.0" encoding="us-ascii" standalone="no"?><svg xmlns="http://www.w3.org/2000/svg" xmlns:xlink="http://www.w3.org/1999/xlink" contentStyleType="text/css" height="724px" preserveAspectRatio="none" style="width:923px;height:724px;background:#FFFFFF;" version="1.1" viewBox="0 0 923 724" width="923px" zoomAndPan="magnify"><defs/><g><rect fill="#FFFFFF" height="540.9766" style="stroke:#181818;stroke-width:1.0;" width="10" x="17.5" y="92.6094"/><rect fill="#FFFFFF" height="30.3516" style="stroke:#181818;stroke-width:1.0;" width="10" x="199.5" y="114.9609"/><rect fill="#FFFFFF" height="46.7031" style="stroke:#181818;stroke-width:1.0;" width="10" x="199.5" y="577.8828"/><rect fill="#FFFFFF" height="30.3516" style="stroke:#181818;stroke-width:1.0;" width="10" x="372.5" y="145.3125"/><rect fill="#FFFFFF" height="341.5156" style="stroke:#181818;stroke-width:1.0;" width="10" x="372.5" y="236.3672"/><rect fill="#FFFFFF" height="280.8125" style="stroke:#181818;stroke-width:1.0;" width="10" x="493.5" y="266.7188"/><rect fill="#FFFFFF" height="73.7031" style="stroke:#181818;stroke-width:1.0;" width="10" x="754.5" y="400.125"/><line style="stroke:#181818;stroke-width:0.5;stroke-dasharray:5.0,5.0;" x1="22" x2="22" y1="82.6094" y2="642.5859"/><line style="stroke:#181818;stroke-width:0.5;stroke-dasharray:5.0,5.0;" x1="204" x2="204" y1="82.6094" y2="642.5859"/><line style="stroke:#181818;stroke-width:0.5;stroke-dasharray:5.0,5.0;" x1="377.5" x2="377.5" y1="82.6094" y2="642.5859"/><line style="stroke:#181818;stroke-width:0.5;stroke-dasharray:5.0,5.0;" x1="498" x2="498" y1="82.6094" y2="642.5859"/><line style="stroke:#181818;stroke-width:0.5;stroke-dasharray:5.0,5.0;" x1="759" x2="759" y1="82.6094" y2="642.5859"/><text fill="#000000" font-family="sans-serif" font-size="14" lengthAdjust="spacing" textLength="29" x="5" y="79.5332">User</text><ellipse cx="22.5" cy="13.5" fill="#E2E2F0" rx="8" ry="8" style="stroke:#181818;stroke-width:0.5;"/><path d="M22.5,21.5 L22.5,48.5 M9.5,29.5 L35.5,29.5 M22.5,48.5 L9.5,63.5 M22.5,48.5 L35.5,63.5 " fill="none" style="stroke:#181818;stroke-width:0.5;"/><text fill="#000000" font-family="sans-serif" font-size="14" lengthAdjust="spacing" textLength="29" x="5" y="656.1191">User</text><ellipse cx="22.5" cy="667.6953" fill="#E2E2F0" rx="8" ry="8" style="stroke:#181818;stroke-width:0.5;"/><path d="M22.5,675.6953 L22.5,702.6953 M9.5,683.6953 L35.5,683.6953 M22.5,702.6953 L9.5,717.6953 M22.5,702.6953 L35.5,717.6953 " fill="none" style="stroke:#181818;stroke-width:0.5;"/><rect fill="#E2E2F0" height="31.6094" rx="2.5" ry="2.5" style="stroke:#181818;stroke-width:0.5;" width="93" x="158" y="50"/><text fill="#000000" font-family="sans-serif" font-size="14" lengthAdjust="spacing" textLength="79" x="165" y="71.5332">Main Screen</text><rect fill="#E2E2F0" height="31.6094" rx="2.5" ry="2.5" style="stroke:#181818;stroke-width:0.5;" width="93" x="158" y="641.5859"/><text fill="#000000" font-family="sans-serif" font-size="14" lengthAdjust="spacing" textLength="79" x="165" y="663.1191">Main Screen</text><rect fill="#E2E2F0" height="31.6094" rx="2.5" ry="2.5" style="stroke:#181818;stroke-width:0.5;" width="118" x="318.5" y="50"/><text fill="#000000" font-family="sans-serif" font-size="14" lengthAdjust="spacing" textLength="104" x="325.5" y="71.5332">NewNote Screen</text><rect fill="#E2E2F0" height="31.6094" rx="2.5" ry="2.5" style="stroke:#181818;stroke-width:0.5;" width="118" x="318.5" y="641.5859"/><text fill="#000000" font-family="sans-serif" font-size="14" lengthAdjust="spacing" textLength="104" x="325.5" y="663.1191">NewNote Screen</text><rect fill="#E2E2F0" height="31.6094" rx="2.5" ry="2.5" style="stroke:#181818;stroke-width:0.5;" width="103" x="447" y="50"/><text fill="#000000" font-family="sans-serif" font-size="14" lengthAdjust="spacing" textLength="89" x="454" y="71.5332">NotesProvider</text><rect fill="#E2E2F0" height="31.6094" rx="2.5" ry="2.5" style="stroke:#181818;stroke-width:0.5;" width="103" x="447" y="641.5859"/><text fill="#000000" font-family="sans-serif" font-size="14" lengthAdjust="spacing" textLength="89" x="454" y="663.1191">NotesProvider</text><rect fill="#E2E2F0" height="31.6094" rx="2.5" ry="2.5" style="stroke:#181818;stroke-width:0.5;" width="75" x="722" y="50"/><text fill="#000000" font-family="sans-serif" font-size="14" lengthAdjust="spacing" textLength="61" x="729" y="71.5332">Database</text><rect fill="#E2E2F0" height="31.6094" rx="2.5" ry="2.5" style="stroke:#181818;stroke-width:0.5;" width="75" x="722" y="641.5859"/><text fill="#000000" font-family="sans-serif" font-size="14" lengthAdjust="spacing" textLength="61" x="729" y="663.1191">Database</text><rect fill="#FFFFFF" height="540.9766" style="stroke:#181818;stroke-width:1.0;" width="10" x="17.5" y="92.6094"/><rect fill="#FFFFFF" height="30.3516" style="stroke:#181818;stroke-width:1.0;" width="10" x="199.5" y="114.9609"/><rect fill="#FFFFFF" height="46.7031" style="stroke:#181818;stroke-width:1.0;" width="10" x="199.5" y="577.8828"/><rect fill="#FFFFFF" height="30.3516" style="stroke:#181818;stroke-width:1.0;" width="10" x="372.5" y="145.3125"/><rect fill="#FFFFFF" height="341.5156" style="stroke:#181818;stroke-width:1.0;" width="10" x="372.5" y="236.3672"/><rect fill="#FFFFFF" height="280.8125" style="stroke:#181818;stroke-width:1.0;" width="10" x="493.5" y="266.7188"/><rect fill="#FFFFFF" height="73.7031" style="stroke:#181818;stroke-width:1.0;" width="10" x="754.5" y="400.125"/><polygon fill="#181818" points="187.5,110.9609,197.5,114.9609,187.5,118.9609,191.5,114.9609" style="stroke:#181818;stroke-width:1.0;"/><line style="stroke:#181818;stroke-width:1.0;" x1="27.5" x2="193.5" y1="114.9609" y2="114.9609"/><text fill="#000000" font-family="sans-serif" font-size="13" font-weight="bold" lengthAdjust="spacing" textLength="7" x="34.5" y="110.1045">1</text><text fill="#000000" font-family="sans-serif" font-size="13" lengthAdjust="spacing" textLength="134" x="45.5" y="110.1045">trigger CTA to add note</text><polygon fill="#181818" points="360.5,141.3125,370.5,145.3125,360.5,149.3125,364.5,145.3125" style="stroke:#181818;stroke-width:1.0;"/><line style="stroke:#181818;stroke-width:1.0;" x1="204.5" x2="366.5" y1="145.3125" y2="145.3125"/><text fill="#000000" font-family="sans-serif" font-size="13" font-weight="bold" lengthAdjust="spacing" textLength="7" x="211.5" y="140.4561">2</text><text fill="#000000" font-family="sans-serif" font-size="13" lengthAdjust="spacing" textLength="133" x="222.5" y="140.4561">router.push('/note/new')</text><polygon fill="#181818" points="38.5,171.6641,28.5,175.6641,38.5,179.6641,34.5,175.6641" style="stroke:#181818;stroke-width:1.0;"/><line style="stroke:#181818;stroke-width:1.0;stroke-dasharray:2.0,2.0;" x1="32.5" x2="376.5" y1="175.6641" y2="175.6641"/><text fill="#000000" font-family="sans-serif" font-size="13" font-weight="bold" lengthAdjust="spacing" textLength="7" x="44.5" y="170.8076">3</text><text fill="#000000" font-family="sans-serif" font-size="13" lengthAdjust="spacing" textLength="135" x="55.5" y="170.8076">render new note screen</text><polygon fill="#181818" points="365.5,202.0156,375.5,206.0156,365.5,210.0156,369.5,206.0156" style="stroke:#181818;stroke-width:1.0;"/><line style="stroke:#181818;stroke-width:1.0;" x1="27.5" x2="371.5" y1="206.0156" y2="206.0156"/><text fill="#000000" font-family="sans-serif" font-size="13" font-weight="bold" lengthAdjust="spacing" textLength="7" x="34.5" y="201.1592">4</text><text fill="#000000" font-family="sans-serif" font-size="13" lengthAdjust="spacing" textLength="87" x="45.5" y="201.1592">enter note data</text><polygon fill="#181818" points="360.5,232.3672,370.5,236.3672,360.5,240.3672,364.5,236.3672" style="stroke:#181818;stroke-width:1.0;"/><line style="stroke:#181818;stroke-width:1.0;" x1="27.5" x2="366.5" y1="236.3672" y2="236.3672"/><text fill="#000000" font-family="sans-serif" font-size="13" font-weight="bold" lengthAdjust="spacing" textLength="7" x="34.5" y="231.5107">5</text><text fill="#000000" font-family="sans-serif" font-size="13" lengthAdjust="spacing" textLength="139" x="45.5" y="231.5107">trigger CTA to save note</text><polygon fill="#181818" points="481.5,262.7188,491.5,266.7188,481.5,270.7188,485.5,266.7188" style="stroke:#181818;stroke-width:1.0;"/><line style="stroke:#181818;stroke-width:1.0;" x1="382.5" x2="487.5" y1="266.7188" y2="266.7188"/><text fill="#000000" font-family="sans-serif" font-size="13" font-weight="bold" lengthAdjust="spacing" textLength="7" x="389.5" y="261.8623">6</text><text fill="#000000" font-family="sans-serif" font-size="13" lengthAdjust="spacing" textLength="81" x="400.5" y="261.8623">addNote(data)</text><line style="stroke:#181818;stroke-width:1.0;" x1="503.5" x2="545.5" y1="297.0703" y2="297.0703"/><line style="stroke:#181818;stroke-width:1.0;" x1="545.5" x2="545.5" y1="297.0703" y2="310.0703"/><line style="stroke:#181818;stroke-width:1.0;" x1="504.5" x2="545.5" y1="310.0703" y2="310.0703"/><polygon fill="#181818" points="514.5,306.0703,504.5,310.0703,514.5,314.0703,510.5,310.0703" style="stroke:#181818;stroke-width:1.0;"/><text fill="#000000" font-family="sans-serif" font-size="13" font-weight="bold" lengthAdjust="spacing" textLength="7" x="510.5" y="292.2139">7</text><text fill="#000000" font-family="sans-serif" font-size="13" lengthAdjust="spacing" textLength="145" x="521.5" y="292.2139">generate UUID for note id</text><line style="stroke:#181818;stroke-width:1.0;" x1="503.5" x2="545.5" y1="356.7734" y2="356.7734"/><line style="stroke:#181818;stroke-width:1.0;" x1="545.5" x2="545.5" y1="356.7734" y2="369.7734"/><line style="stroke:#181818;stroke-width:1.0;" x1="504.5" x2="545.5" y1="369.7734" y2="369.7734"/><polygon fill="#181818" points="514.5,365.7734,504.5,369.7734,514.5,373.7734,510.5,369.7734" style="stroke:#181818;stroke-width:1.0;"/><text fill="#000000" font-family="sans-serif" font-size="13" font-weight="bold" lengthAdjust="spacing" textLength="7" x="510.5" y="343.7412">8</text><text fill="#000000" font-family="sans-serif" font-size="13" lengthAdjust="spacing" textLength="129" x="521.5" y="335.5654">create newNote object</text><text fill="#000000" font-family="sans-serif" font-size="13" lengthAdjust="spacing" textLength="224" x="521.5" y="351.917">(userId='local', isSynced=false, ...data)</text><polygon fill="#181818" points="742.5,396.125,752.5,400.125,742.5,404.125,746.5,400.125" style="stroke:#181818;stroke-width:1.0;"/><line style="stroke:#181818;stroke-width:1.0;" x1="503.5" x2="748.5" y1="400.125" y2="400.125"/><text fill="#000000" font-family="sans-serif" font-size="13" font-weight="bold" lengthAdjust="spacing" textLength="7" x="510.5" y="395.2686">9</text><text fill="#000000" font-family="sans-serif" font-size="13" lengthAdjust="spacing" textLength="221" x="521.5" y="395.2686">saveNote(newNote, markAsDirty=true)</text><line style="stroke:#181818;stroke-width:1.0;" x1="764.5" x2="806.5" y1="430.4766" y2="430.4766"/><line style="stroke:#181818;stroke-width:1.0;" x1="806.5" x2="806.5" y1="430.4766" y2="443.4766"/><line style="stroke:#181818;stroke-width:1.0;" x1="765.5" x2="806.5" y1="443.4766" y2="443.4766"/><polygon fill="#181818" points="775.5,439.4766,765.5,443.4766,775.5,447.4766,771.5,443.4766" style="stroke:#181818;stroke-width:1.0;"/><text fill="#000000" font-family="sans-serif" font-size="13" font-weight="bold" lengthAdjust="spacing" textLength="14" x="771.5" y="425.6201">10</text><text fill="#000000" font-family="sans-serif" font-size="13" lengthAdjust="spacing" textLength="127" x="789.5" y="425.6201">INSERT INTO notes...</text><polygon fill="#181818" points="514.5,469.8281,504.5,473.8281,514.5,477.8281,510.5,473.8281" style="stroke:#181818;stroke-width:1.0;"/><line style="stroke:#181818;stroke-width:1.0;stroke-dasharray:2.0,2.0;" x1="508.5" x2="758.5" y1="473.8281" y2="473.8281"/><text fill="#000000" font-family="sans-serif" font-size="13" font-weight="bold" lengthAdjust="spacing" textLength="14" x="520.5" y="468.9717">11</text><text fill="#000000" font-family="sans-serif" font-size="13" lengthAdjust="spacing" textLength="22" x="538.5" y="468.9717">void</text><line style="stroke:#181818;stroke-width:1.0;" x1="503.5" x2="545.5" y1="504.1797" y2="504.1797"/><line style="stroke:#181818;stroke-width:1.0;" x1="545.5" x2="545.5" y1="504.1797" y2="517.1797"/><line style="stroke:#181818;stroke-width:1.0;" x1="504.5" x2="545.5" y1="517.1797" y2="517.1797"/><polygon fill="#181818" points="514.5,513.1797,504.5,517.1797,514.5,521.1797,510.5,517.1797" style="stroke:#181818;stroke-width:1.0;"/><text fill="#000000" font-family="sans-serif" font-size="13" font-weight="bold" lengthAdjust="spacing" textLength="14" x="510.5" y="499.3232">12</text><text fill="#000000" font-family="sans-serif" font-size="13" lengthAdjust="spacing" textLength="194" x="528.5" y="499.3232">dispatch("ADD_NOTE", newNote)</text><polygon fill="#181818" points="393.5,543.5313,383.5,547.5313,393.5,551.5313,389.5,547.5313" style="stroke:#181818;stroke-width:1.0;"/><line style="stroke:#181818;stroke-width:1.0;stroke-dasharray:2.0,2.0;" x1="387.5" x2="497.5" y1="547.5313" y2="547.5313"/><text fill="#000000" font-family="sans-serif" font-size="13" font-weight="bold" lengthAdjust="spacing" textLength="14" x="399.5" y="542.6748">13</text><text fill="#000000" font-family="sans-serif" font-size="13" lengthAdjust="spacing" textLength="22" x="417.5" y="542.6748">void</text><polygon fill="#181818" points="220.5,573.8828,210.5,577.8828,220.5,581.8828,216.5,577.8828" style="stroke:#181818;stroke-width:1.0;"/><line style="stroke:#181818;stroke-width:1.0;" x1="214.5" x2="376.5" y1="577.8828" y2="577.8828"/><text fill="#000000" font-family="sans-serif" font-size="13" font-weight="bold" lengthAdjust="spacing" textLength="14" x="226.5" y="573.0264">14</text><text fill="#000000" font-family="sans-serif" font-size="13" lengthAdjust="spacing" textLength="73" x="244.5" y="573.0264">router.back()</text><polygon fill="#181818" points="38.5,620.5859,28.5,624.5859,38.5,628.5859,34.5,624.5859" style="stroke:#181818;stroke-width:1.0;"/><line style="stroke:#181818;stroke-width:1.0;stroke-dasharray:2.0,2.0;" x1="32.5" x2="203.5" y1="624.5859" y2="624.5859"/><text fill="#000000" font-family="sans-serif" font-size="13" font-weight="bold" lengthAdjust="spacing" textLength="14" x="44.5" y="611.5537">15</text><text fill="#000000" font-family="sans-serif" font-size="13" lengthAdjust="spacing" textLength="115" x="62.5" y="603.3779">render home screen</text><text fill="#000000" font-family="sans-serif" font-size="13" lengthAdjust="spacing" textLength="130" x="62.5" y="619.7295">with updated notes list</text><!--SRC=[RLB1Rk8m4BtdAqQv42HAxokn4cqgDOVIrGAtIgiXde9Ri2Dx0jk_tx6JB4dA9OdYzzwyDtvOipNrQKSkIR1awo3TUd8fe8VmaLJeM9UwGiEGlg0si2uTaOc8PtkY8M95bvLbweEsnGWYv_wNisUjsa6FrZ3zvI4iHyOTUeg8_27QqsSKxUWhFE3kPxG0Fu2Ttk_bp-Dc2Mm1bG8ZSwwaQ3M2XRGjXE9ipUJcLUqFsUG-eEyDNIRJHD6GTHrS9CAy2m9XkaYGaGmWj3WDV4pT5n3AVwjnAabKrw2L91mUZb9uFDCeHjGh0g5Tch0aRDXf5lIcLsYtrQH33aXxCkIYuhR8uTssdhIw3PTW0MpQwxMx3ohvpMIrs2_KOdAq9HudCz1-_MLAKejtF7gQmNm-RsprPVC7KGpXekrMSmOdT9zBdsl7NmjsDVMooFqBgQCMg_NJxusyDg_HjPSfyNnW-MmbJEygGeTkPbFQLyZb8KkNUVvdzRfvIcTTqkcLqbtIMBVRStCjRH_RSksm_CoceqBSwkItJXt2xwPFR-QY-G1r9PkafjSUZjhpjwR-0m00]--></g></svg>