<?xml version="1.0" encoding="us-ascii" standalone="no"?><svg xmlns="http://www.w3.org/2000/svg" xmlns:xlink="http://www.w3.org/1999/xlink" contentStyleType="text/css" height="710px" preserveAspectRatio="none" style="width:916px;height:710px;background:#FFFFFF;" version="1.1" viewBox="0 0 916 710" width="916px" zoomAndPan="magnify"><defs/><g><rect fill="#FFFFFF" height="526.9766" style="stroke:#181818;stroke-width:1.0;" width="10" x="17.5" y="92.6094"/><rect fill="#FFFFFF" height="495.625" style="stroke:#181818;stroke-width:1.0;" width="10" x="199.5" y="114.9609"/><rect fill="#FFFFFF" height="30.3516" style="stroke:#181818;stroke-width:1.0;" width="10" x="372.5" y="145.3125"/><rect fill="#FFFFFF" height="341.5156" style="stroke:#181818;stroke-width:1.0;" width="10" x="372.5" y="222.3672"/><rect fill="#FFFFFF" height="280.8125" style="stroke:#181818;stroke-width:1.0;" width="10" x="493.5" y="252.7188"/><rect fill="#FFFFFF" height="73.7031" style="stroke:#181818;stroke-width:1.0;" width="10" x="754.5" y="386.125"/><line style="stroke:#181818;stroke-width:0.5;stroke-dasharray:5.0,5.0;" x1="22" x2="22" y1="82.6094" y2="628.5859"/><line style="stroke:#181818;stroke-width:0.5;stroke-dasharray:5.0,5.0;" x1="204" x2="204" y1="82.6094" y2="628.5859"/><line style="stroke:#181818;stroke-width:0.5;stroke-dasharray:5.0,5.0;" x1="377.5" x2="377.5" y1="82.6094" y2="628.5859"/><line style="stroke:#181818;stroke-width:0.5;stroke-dasharray:5.0,5.0;" x1="498" x2="498" y1="82.6094" y2="628.5859"/><line style="stroke:#181818;stroke-width:0.5;stroke-dasharray:5.0,5.0;" x1="759" x2="759" y1="82.6094" y2="628.5859"/><text fill="#000000" font-family="sans-serif" font-size="14" lengthAdjust="spacing" textLength="29" x="5" y="79.5332">User</text><ellipse cx="22.5" cy="13.5" fill="#E2E2F0" rx="8" ry="8" style="stroke:#181818;stroke-width:0.5;"/><path d="M22.5,21.5 L22.5,48.5 M9.5,29.5 L35.5,29.5 M22.5,48.5 L9.5,63.5 M22.5,48.5 L35.5,63.5 " fill="none" style="stroke:#181818;stroke-width:0.5;"/><text fill="#000000" font-family="sans-serif" font-size="14" lengthAdjust="spacing" textLength="29" x="5" y="642.1191">User</text><ellipse cx="22.5" cy="653.6953" fill="#E2E2F0" rx="8" ry="8" style="stroke:#181818;stroke-width:0.5;"/><path d="M22.5,661.6953 L22.5,688.6953 M9.5,669.6953 L35.5,669.6953 M22.5,688.6953 L9.5,703.6953 M22.5,688.6953 L35.5,703.6953 " fill="none" style="stroke:#181818;stroke-width:0.5;"/><rect fill="#E2E2F0" height="31.6094" rx="2.5" ry="2.5" style="stroke:#181818;stroke-width:0.5;" width="93" x="158" y="50"/><text fill="#000000" font-family="sans-serif" font-size="14" lengthAdjust="spacing" textLength="79" x="165" y="71.5332">Main Screen</text><rect fill="#E2E2F0" height="31.6094" rx="2.5" ry="2.5" style="stroke:#181818;stroke-width:0.5;" width="93" x="158" y="627.5859"/><text fill="#000000" font-family="sans-serif" font-size="14" lengthAdjust="spacing" textLength="79" x="165" y="649.1191">Main Screen</text><rect fill="#E2E2F0" height="31.6094" rx="2.5" ry="2.5" style="stroke:#181818;stroke-width:0.5;" width="118" x="318.5" y="50"/><text fill="#000000" font-family="sans-serif" font-size="14" lengthAdjust="spacing" textLength="104" x="325.5" y="71.5332">NewNote Screen</text><rect fill="#E2E2F0" height="31.6094" rx="2.5" ry="2.5" style="stroke:#181818;stroke-width:0.5;" width="118" x="318.5" y="627.5859"/><text fill="#000000" font-family="sans-serif" font-size="14" lengthAdjust="spacing" textLength="104" x="325.5" y="649.1191">NewNote Screen</text><rect fill="#E2E2F0" height="31.6094" rx="2.5" ry="2.5" style="stroke:#181818;stroke-width:0.5;" width="103" x="447" y="50"/><text fill="#000000" font-family="sans-serif" font-size="14" lengthAdjust="spacing" textLength="89" x="454" y="71.5332">NotesProvider</text><rect fill="#E2E2F0" height="31.6094" rx="2.5" ry="2.5" style="stroke:#181818;stroke-width:0.5;" width="103" x="447" y="627.5859"/><text fill="#000000" font-family="sans-serif" font-size="14" lengthAdjust="spacing" textLength="89" x="454" y="649.1191">NotesProvider</text><rect fill="#E2E2F0" height="31.6094" rx="2.5" ry="2.5" style="stroke:#181818;stroke-width:0.5;" width="75" x="722" y="50"/><text fill="#000000" font-family="sans-serif" font-size="14" lengthAdjust="spacing" textLength="61" x="729" y="71.5332">Database</text><rect fill="#E2E2F0" height="31.6094" rx="2.5" ry="2.5" style="stroke:#181818;stroke-width:0.5;" width="75" x="722" y="627.5859"/><text fill="#000000" font-family="sans-serif" font-size="14" lengthAdjust="spacing" textLength="61" x="729" y="649.1191">Database</text><rect fill="#FFFFFF" height="526.9766" style="stroke:#181818;stroke-width:1.0;" width="10" x="17.5" y="92.6094"/><rect fill="#FFFFFF" height="495.625" style="stroke:#181818;stroke-width:1.0;" width="10" x="199.5" y="114.9609"/><rect fill="#FFFFFF" height="30.3516" style="stroke:#181818;stroke-width:1.0;" width="10" x="372.5" y="145.3125"/><rect fill="#FFFFFF" height="341.5156" style="stroke:#181818;stroke-width:1.0;" width="10" x="372.5" y="222.3672"/><rect fill="#FFFFFF" height="280.8125" style="stroke:#181818;stroke-width:1.0;" width="10" x="493.5" y="252.7188"/><rect fill="#FFFFFF" height="73.7031" style="stroke:#181818;stroke-width:1.0;" width="10" x="754.5" y="386.125"/><polygon fill="#181818" points="187.5,110.9609,197.5,114.9609,187.5,118.9609,191.5,114.9609" style="stroke:#181818;stroke-width:1.0;"/><line style="stroke:#181818;stroke-width:1.0;" x1="27.5" x2="193.5" y1="114.9609" y2="114.9609"/><text fill="#000000" font-family="sans-serif" font-size="13" font-weight="bold" lengthAdjust="spacing" textLength="7" x="34.5" y="110.1045">1</text><text fill="#000000" font-family="sans-serif" font-size="13" lengthAdjust="spacing" textLength="134" x="45.5" y="110.1045">trigger CTA to add note</text><polygon fill="#181818" points="360.5,141.3125,370.5,145.3125,360.5,149.3125,364.5,145.3125" style="stroke:#181818;stroke-width:1.0;"/><line style="stroke:#181818;stroke-width:1.0;" x1="209.5" x2="366.5" y1="145.3125" y2="145.3125"/><text fill="#000000" font-family="sans-serif" font-size="13" font-weight="bold" lengthAdjust="spacing" textLength="7" x="216.5" y="140.4561">2</text><text fill="#000000" font-family="sans-serif" font-size="13" lengthAdjust="spacing" textLength="133" x="227.5" y="140.4561">router.push('/note/new')</text><polygon fill="#181818" points="38.5,171.6641,28.5,175.6641,38.5,179.6641,34.5,175.6641" style="stroke:#181818;stroke-width:1.0;"/><line style="stroke:#181818;stroke-width:1.0;stroke-dasharray:2.0,2.0;" x1="32.5" x2="376.5" y1="175.6641" y2="175.6641"/><text fill="#000000" font-family="sans-serif" font-size="13" font-weight="bold" lengthAdjust="spacing" textLength="7" x="44.5" y="170.8076">3</text><text fill="#000000" font-family="sans-serif" font-size="13" lengthAdjust="spacing" textLength="135" x="55.5" y="170.8076">render new note screen</text><polygon fill="#181818" points="360.5,218.3672,370.5,222.3672,360.5,226.3672,364.5,222.3672" style="stroke:#181818;stroke-width:1.0;"/><line style="stroke:#181818;stroke-width:1.0;" x1="27.5" x2="366.5" y1="222.3672" y2="222.3672"/><text fill="#000000" font-family="sans-serif" font-size="13" font-weight="bold" lengthAdjust="spacing" textLength="7" x="34.5" y="209.335">4</text><text fill="#000000" font-family="sans-serif" font-size="13" lengthAdjust="spacing" textLength="112" x="45.5" y="201.1592">enter note data and</text><text fill="#000000" font-family="sans-serif" font-size="13" lengthAdjust="spacing" textLength="139" x="45.5" y="217.5107">trigger CTA to save note</text><polygon fill="#181818" points="481.5,248.7188,491.5,252.7188,481.5,256.7188,485.5,252.7188" style="stroke:#181818;stroke-width:1.0;"/><line style="stroke:#181818;stroke-width:1.0;" x1="382.5" x2="487.5" y1="252.7188" y2="252.7188"/><text fill="#000000" font-family="sans-serif" font-size="13" font-weight="bold" lengthAdjust="spacing" textLength="7" x="389.5" y="247.8623">5</text><text fill="#000000" font-family="sans-serif" font-size="13" lengthAdjust="spacing" textLength="81" x="400.5" y="247.8623">addNote(data)</text><line style="stroke:#181818;stroke-width:1.0;" x1="503.5" x2="545.5" y1="283.0703" y2="283.0703"/><line style="stroke:#181818;stroke-width:1.0;" x1="545.5" x2="545.5" y1="283.0703" y2="296.0703"/><line style="stroke:#181818;stroke-width:1.0;" x1="504.5" x2="545.5" y1="296.0703" y2="296.0703"/><polygon fill="#181818" points="514.5,292.0703,504.5,296.0703,514.5,300.0703,510.5,296.0703" style="stroke:#181818;stroke-width:1.0;"/><text fill="#000000" font-family="sans-serif" font-size="13" font-weight="bold" lengthAdjust="spacing" textLength="7" x="510.5" y="278.2139">6</text><text fill="#000000" font-family="sans-serif" font-size="13" lengthAdjust="spacing" textLength="145" x="521.5" y="278.2139">generate UUID for note id</text><line style="stroke:#181818;stroke-width:1.0;" x1="503.5" x2="545.5" y1="342.7734" y2="342.7734"/><line style="stroke:#181818;stroke-width:1.0;" x1="545.5" x2="545.5" y1="342.7734" y2="355.7734"/><line style="stroke:#181818;stroke-width:1.0;" x1="504.5" x2="545.5" y1="355.7734" y2="355.7734"/><polygon fill="#181818" points="514.5,351.7734,504.5,355.7734,514.5,359.7734,510.5,355.7734" style="stroke:#181818;stroke-width:1.0;"/><text fill="#000000" font-family="sans-serif" font-size="13" font-weight="bold" lengthAdjust="spacing" textLength="7" x="510.5" y="329.7412">7</text><text fill="#000000" font-family="sans-serif" font-size="13" lengthAdjust="spacing" textLength="129" x="521.5" y="321.5654">create newNote object</text><text fill="#000000" font-family="sans-serif" font-size="13" lengthAdjust="spacing" textLength="224" x="521.5" y="337.917">(userId='local', isSynced=false, ...data)</text><polygon fill="#181818" points="742.5,382.125,752.5,386.125,742.5,390.125,746.5,386.125" style="stroke:#181818;stroke-width:1.0;"/><line style="stroke:#181818;stroke-width:1.0;" x1="503.5" x2="748.5" y1="386.125" y2="386.125"/><text fill="#000000" font-family="sans-serif" font-size="13" font-weight="bold" lengthAdjust="spacing" textLength="7" x="510.5" y="381.2686">8</text><text fill="#000000" font-family="sans-serif" font-size="13" lengthAdjust="spacing" textLength="221" x="521.5" y="381.2686">saveNote(newNote, markAsDirty=true)</text><line style="stroke:#181818;stroke-width:1.0;" x1="764.5" x2="806.5" y1="416.4766" y2="416.4766"/><line style="stroke:#181818;stroke-width:1.0;" x1="806.5" x2="806.5" y1="416.4766" y2="429.4766"/><line style="stroke:#181818;stroke-width:1.0;" x1="765.5" x2="806.5" y1="429.4766" y2="429.4766"/><polygon fill="#181818" points="775.5,425.4766,765.5,429.4766,775.5,433.4766,771.5,429.4766" style="stroke:#181818;stroke-width:1.0;"/><text fill="#000000" font-family="sans-serif" font-size="13" font-weight="bold" lengthAdjust="spacing" textLength="7" x="771.5" y="411.6201">9</text><text fill="#000000" font-family="sans-serif" font-size="13" lengthAdjust="spacing" textLength="127" x="782.5" y="411.6201">INSERT INTO notes...</text><polygon fill="#181818" points="514.5,455.8281,504.5,459.8281,514.5,463.8281,510.5,459.8281" style="stroke:#181818;stroke-width:1.0;"/><line style="stroke:#181818;stroke-width:1.0;stroke-dasharray:2.0,2.0;" x1="508.5" x2="758.5" y1="459.8281" y2="459.8281"/><text fill="#000000" font-family="sans-serif" font-size="13" font-weight="bold" lengthAdjust="spacing" textLength="14" x="520.5" y="454.9717">10</text><text fill="#000000" font-family="sans-serif" font-size="13" lengthAdjust="spacing" textLength="22" x="538.5" y="454.9717">void</text><line style="stroke:#181818;stroke-width:1.0;" x1="503.5" x2="545.5" y1="490.1797" y2="490.1797"/><line style="stroke:#181818;stroke-width:1.0;" x1="545.5" x2="545.5" y1="490.1797" y2="503.1797"/><line style="stroke:#181818;stroke-width:1.0;" x1="504.5" x2="545.5" y1="503.1797" y2="503.1797"/><polygon fill="#181818" points="514.5,499.1797,504.5,503.1797,514.5,507.1797,510.5,503.1797" style="stroke:#181818;stroke-width:1.0;"/><text fill="#000000" font-family="sans-serif" font-size="13" font-weight="bold" lengthAdjust="spacing" textLength="14" x="510.5" y="485.3232">11</text><text fill="#000000" font-family="sans-serif" font-size="13" lengthAdjust="spacing" textLength="194" x="528.5" y="485.3232">dispatch("ADD_NOTE", newNote)</text><polygon fill="#181818" points="393.5,529.5313,383.5,533.5313,393.5,537.5313,389.5,533.5313" style="stroke:#181818;stroke-width:1.0;"/><line style="stroke:#181818;stroke-width:1.0;stroke-dasharray:2.0,2.0;" x1="387.5" x2="497.5" y1="533.5313" y2="533.5313"/><text fill="#000000" font-family="sans-serif" font-size="13" font-weight="bold" lengthAdjust="spacing" textLength="14" x="399.5" y="528.6748">12</text><text fill="#000000" font-family="sans-serif" font-size="13" lengthAdjust="spacing" textLength="22" x="417.5" y="528.6748">void</text><polygon fill="#181818" points="220.5,559.8828,210.5,563.8828,220.5,567.8828,216.5,563.8828" style="stroke:#181818;stroke-width:1.0;"/><line style="stroke:#181818;stroke-width:1.0;" x1="214.5" x2="376.5" y1="563.8828" y2="563.8828"/><text fill="#000000" font-family="sans-serif" font-size="13" font-weight="bold" lengthAdjust="spacing" textLength="14" x="226.5" y="559.0264">13</text><text fill="#000000" font-family="sans-serif" font-size="13" lengthAdjust="spacing" textLength="73" x="244.5" y="559.0264">router.back()</text><polygon fill="#181818" points="38.5,606.5859,28.5,610.5859,38.5,614.5859,34.5,610.5859" style="stroke:#181818;stroke-width:1.0;"/><line style="stroke:#181818;stroke-width:1.0;stroke-dasharray:2.0,2.0;" x1="32.5" x2="203.5" y1="610.5859" y2="610.5859"/><text fill="#000000" font-family="sans-serif" font-size="13" font-weight="bold" lengthAdjust="spacing" textLength="14" x="44.5" y="597.5537">14</text><text fill="#000000" font-family="sans-serif" font-size="13" lengthAdjust="spacing" textLength="115" x="62.5" y="589.3779">render home screen</text><text fill="#000000" font-family="sans-serif" font-size="13" lengthAdjust="spacing" textLength="130" x="62.5" y="605.7295">with updated notes list</text><!--SRC=[RLB1Rkem4BpdArQv42HAxvMeH4cbvb1QFU26zBJ4Mt0BTcHluFNlktQIrv3sGb0oCpkpErYpDVLfHov9i6Jh8DruSYcWX_0dgT2nBdM5XY5zHcrWLJeY4n5FzaJNY2LTbfQf3zeK0uXyzw_EdhLg1osiOVh7rx0S6NVeAIBoXsXFdr6qew_m0pVtqGBS0JkztykRnNeER06L0YDpladHQWGBQLC8nTcQoKshsX-oqMr0tngwZCQzGKKYo9j02DE4GaOyWy2YElYOCb7Kf_ot5gUGH7CDMaaYGAEsPk3Muva6TgDE4LJQvOYKX0gxou9EpsMtlQH3Nf7sPCX5nKsHmvjjlMZrErm21R1fpsXtxrJorcIrP2hKR7Iq9Hv74z1-zMbAKhCtF7gQm7GwRMprPVC7KGpXekrMSm8dT1zpdsl7dpDsDVMoo9s5r56BvUhnpreUwvVesikK-FtAyjbAcDu9GbT-pQQqhv3BGvREy_plycNzc4wwfEDlIdUveMwtv-OiRU_Q4ksm_CZ6Wo8qRVlHdaDutJHdQowQ3r1NiZjg6klXg3ttbM9plm00]--></g></svg>